<svg width="52" height="52" viewBox="0 0 52 52" fill="none" xmlns="http://www.w3.org/2000/svg">
<path d="M36.2895 4.33333H46.1565L46.3731 4.36367L46.5876 4.42433L46.7176 4.48067C46.891 4.55433 47.0491 4.66483 47.1921 4.80567L47.2788 4.901L47.3741 5.0245L47.4911 5.2195L47.5756 5.4145L47.6168 5.55317L47.6471 5.69183L47.6666 5.89767V15.717C47.6665 16.1287 47.5101 16.525 47.229 16.8259C46.948 17.1267 46.5632 17.3097 46.1524 17.3377C45.7416 17.3658 45.3355 17.2369 45.0162 16.9771C44.6968 16.7172 44.4879 16.3459 44.4318 15.938L44.4166 15.717V9.87783L30.4633 23.8312C30.1882 24.1064 29.8234 24.2737 29.4353 24.3027C29.0473 24.3317 28.6617 24.2205 28.3486 23.9893L28.1666 23.8333L21.6016 17.5283L9.27331 29.8545C8.98336 30.1452 8.59408 30.3154 8.18375 30.3309C7.77342 30.3463 7.37246 30.2058 7.06149 29.9377C6.75052 29.6695 6.55259 29.2936 6.50751 28.8854C6.46243 28.4773 6.57353 28.0672 6.81848 27.7377L6.97664 27.5557L20.4533 14.079C20.7287 13.8041 21.0936 13.6372 21.4817 13.6086C21.8698 13.5799 22.2552 13.6915 22.568 13.923L22.75 14.079L29.315 20.384L42.1156 7.58333H36.2873C35.895 7.58279 35.5161 7.44035 35.2206 7.18229C34.9252 6.92424 34.733 6.568 34.6796 6.17933L34.6645 5.95833C34.6645 5.56565 34.8067 5.18626 35.0648 4.89032C35.3229 4.59437 35.6794 4.4019 36.0685 4.3485L36.2895 4.33333ZM8.12498 36.8333C8.55595 36.8333 8.96928 37.0045 9.27403 37.3093C9.57877 37.614 9.74998 38.0274 9.74998 38.4583V46.0417C9.74998 46.4726 9.57877 46.886 9.27403 47.1907C8.96928 47.4955 8.55595 47.6667 8.12498 47.6667C7.694 47.6667 7.28067 47.4955 6.97593 47.1907C6.67118 46.886 6.49998 46.4726 6.49998 46.0417V38.4583C6.49998 38.0274 6.67118 37.614 6.97593 37.3093C7.28067 37.0045 7.694 36.8333 8.12498 36.8333ZM20.5833 29.7917C20.5833 29.3607 20.4121 28.9474 20.1074 28.6426C19.8026 28.3379 19.3893 28.1667 18.9583 28.1667C18.5273 28.1667 18.114 28.3379 17.8093 28.6426C17.5045 28.9474 17.3333 29.3607 17.3333 29.7917V46.0417C17.3333 46.4726 17.5045 46.886 17.8093 47.1907C18.114 47.4955 18.5273 47.6667 18.9583 47.6667C19.3893 47.6667 19.8026 47.4955 20.1074 47.1907C20.4121 46.886 20.5833 46.4726 20.5833 46.0417V29.7917ZM29.7916 32.5C30.2226 32.5 30.6359 32.6712 30.9407 32.9759C31.2454 33.2807 31.4166 33.694 31.4166 34.125V46.0417C31.4166 46.4726 31.2454 46.886 30.9407 47.1907C30.6359 47.4955 30.2226 47.6667 29.7916 47.6667C29.3607 47.6667 28.9473 47.4955 28.6426 47.1907C28.3378 46.886 28.1666 46.4726 28.1666 46.0417V34.125C28.1666 33.694 28.3378 33.2807 28.6426 32.9759C28.9473 32.6712 29.3607 32.5 29.7916 32.5ZM42.25 23.2917C42.25 22.8607 42.0788 22.4474 41.774 22.1426C41.4693 21.8379 41.056 21.6667 40.625 21.6667C40.194 21.6667 39.7807 21.8379 39.4759 22.1426C39.1712 22.4474 39 22.8607 39 23.2917V46.0417C39 46.4726 39.1712 46.886 39.4759 47.1907C39.7807 47.4955 40.194 47.6667 40.625 47.6667C41.056 47.6667 41.4693 47.4955 41.774 47.1907C42.0788 46.886 42.25 46.4726 42.25 46.0417V23.2917Z" fill="#5A503F"/>
</svg>
