<svg width="52" height="52" viewBox="0 0 52 52" fill="none" xmlns="http://www.w3.org/2000/svg">
<path d="M52 37.7904C52 38.7071 51.8307 39.573 51.4922 40.3879C51.1536 41.2027 50.6628 41.9412 50.0195 42.6033L40.625 52L31.2305 42.6033C30.5872 41.9582 30.0964 41.2282 29.7578 40.4133C29.4193 39.5984 29.25 38.7241 29.25 37.7904C29.25 36.8567 29.4277 35.9739 29.7832 35.142C30.1387 34.3102 30.6211 33.5886 31.2305 32.9775C31.8398 32.3663 32.5508 31.874 33.3633 31.5005C34.1758 31.127 35.0645 30.9487 36.0293 30.9657C36.8757 30.9657 37.6966 31.11 38.4922 31.3986C39.2878 31.6872 39.9987 32.1371 40.625 32.7483C41.2682 32.1541 41.9792 31.7127 42.7578 31.4241C43.5365 31.1355 44.3574 30.9827 45.2207 30.9657C46.1686 30.9657 47.0488 31.144 47.8613 31.5005C48.6738 31.857 49.3932 32.3408 50.0195 32.952C50.6458 33.5632 51.1283 34.2932 51.4668 35.142C51.8053 35.9909 51.9831 36.8737 52 37.7904ZM48.75 37.7904C48.75 37.2981 48.6569 36.8397 48.4707 36.4153C48.2845 35.9909 48.0306 35.6089 47.709 35.2693C47.3874 34.9298 47.015 34.6752 46.5918 34.5054C46.1686 34.3356 45.7031 34.2422 45.1953 34.2253C44.2305 34.2253 43.401 34.5733 42.707 35.2693L40.625 37.3575L38.543 35.2693C38.2044 34.9298 37.8236 34.6752 37.4004 34.5054C36.9772 34.3356 36.5286 34.2422 36.0547 34.2253C35.5638 34.2253 35.1068 34.3186 34.6836 34.5054C34.2604 34.6921 33.8796 34.9468 33.541 35.2693C33.2025 35.5919 32.9486 35.9654 32.7793 36.3898C32.61 36.8142 32.5169 37.2811 32.5 37.7904C32.5 38.7581 32.847 39.5899 33.541 40.286L40.625 47.3908L47.709 40.286C48.403 39.5899 48.75 38.7581 48.75 37.7904ZM29.25 29.3359C27.7773 28.2325 26.2454 27.4176 24.6543 26.8913C23.0632 26.365 21.3451 26.0934 19.5 26.0764C17.2318 26.0764 15.1074 26.4923 13.127 27.3242C11.1465 28.1561 9.42839 29.3105 7.97266 30.7875C6.51693 32.2644 5.36589 33.9961 4.51953 35.9824C3.67318 37.9687 3.25 40.0992 3.25 42.3741H0C0 40.3199 0.296224 38.3506 0.888672 36.4662C1.48112 34.5818 2.32747 32.8332 3.42773 31.2204C4.52799 29.6076 5.84831 28.1985 7.38867 26.9931C8.92904 25.7878 10.6725 24.8116 12.6191 24.0646C11.6882 23.4874 10.8503 22.7914 10.1055 21.9765C9.36068 21.1616 8.71745 20.2788 8.17578 19.3281C7.63411 18.3774 7.2194 17.3673 6.93164 16.2977C6.64388 15.2282 6.5 14.1417 6.5 13.0382C6.5 11.2387 6.83854 9.54946 7.51562 7.97062C8.19271 6.39177 9.1237 5.01665 10.3086 3.84525C11.4935 2.67385 12.873 1.74012 14.4473 1.04407C16.0215 0.348025 17.7057 0 19.5 0C21.2943 0 22.9785 0.339536 24.5527 1.01861C26.127 1.69768 27.498 2.63141 28.666 3.81978C29.834 5.00816 30.765 6.39177 31.459 7.97062C32.153 9.54946 32.5 11.2387 32.5 13.0382C32.5 14.1417 32.3561 15.2197 32.0684 16.2723C31.7806 17.3248 31.3743 18.335 30.8496 19.3026C30.3249 20.2703 29.6816 21.1616 28.9199 21.9765C28.1582 22.7914 27.3118 23.4874 26.3809 24.0646C27.498 24.4551 28.5221 24.9474 29.4531 25.5416C30.3841 26.1358 31.3066 26.8319 32.2207 27.6298C31.6621 27.8165 31.1458 28.0542 30.6719 28.3428C30.1979 28.6314 29.724 28.9625 29.25 29.3359ZM29.25 13.0382C29.25 11.697 28.9961 10.4407 28.4883 9.26934C27.9805 8.09794 27.278 7.06236 26.3809 6.16259C25.4837 5.26281 24.4512 4.55828 23.2832 4.04897C22.1152 3.53967 20.8542 3.27653 19.5 3.25955C18.1628 3.25955 16.9102 3.5142 15.7422 4.02351C14.5742 4.53281 13.5417 5.23735 12.6445 6.13712C11.7474 7.03689 11.0449 8.07248 10.5371 9.24388C10.0293 10.4153 9.76693 11.6801 9.75 13.0382C9.75 14.3794 10.0039 15.6357 10.5117 16.8071C11.0195 17.9785 11.722 19.014 12.6191 19.9138C13.5163 20.8136 14.5488 21.5181 15.7168 22.0274C16.8848 22.5367 18.1458 22.7999 19.5 22.8168C20.8372 22.8168 22.0898 22.5622 23.2578 22.0529C24.4258 21.5436 25.4583 20.839 26.3555 19.9393C27.2526 19.0395 27.9551 18.0039 28.4629 16.8325C28.9707 15.6611 29.2331 14.3963 29.25 13.0382Z" fill="#5A503F"/>
</svg>
