<svg width="52" height="52" viewBox="0 0 52 52" fill="none" xmlns="http://www.w3.org/2000/svg">
<path d="M26 13C28.5391 13 31.0104 13.3301 33.4141 13.9902C35.8177 14.6504 38.1198 15.556 40.3203 16.707C42.5208 17.8581 44.6029 19.2376 46.5664 20.8457C48.5299 22.4538 50.3411 24.1719 52 26C50.3411 27.862 48.5384 29.5801 46.5918 31.1543C44.6452 32.7285 42.5632 34.0996 40.3457 35.2676C38.1283 36.4355 35.8177 37.3496 33.4141 38.0098C31.0104 38.6699 28.5391 39 26 39C23.4609 39 20.9896 38.6699 18.5859 38.0098C16.1823 37.3496 13.8802 36.444 11.6797 35.293C9.47917 34.1419 7.38867 32.7708 5.4082 31.1797C3.42773 29.5885 1.625 27.862 0 26C1.64193 24.155 3.44466 22.4369 5.4082 20.8457C7.37174 19.2546 9.45378 17.8835 11.6543 16.7324C13.8548 15.5814 16.1654 14.6673 18.5859 13.9902C21.0065 13.3132 23.4779 12.9831 26 13ZM26 35.293C27.2865 35.293 28.4883 35.0475 29.6055 34.5566C30.7227 34.0658 31.7044 33.4056 32.5508 32.5762C33.3971 31.7467 34.0658 30.765 34.5566 29.6309C35.0475 28.4967 35.293 27.2865 35.293 26C35.293 24.7135 35.0475 23.5117 34.5566 22.3945C34.0658 21.2773 33.4056 20.2956 32.5762 19.4492C31.7467 18.6029 30.765 17.9342 29.6309 17.4434C28.4967 16.9525 27.2865 16.707 26 16.707C24.7135 16.707 23.5117 16.9525 22.3945 17.4434C21.2773 17.9342 20.2956 18.5944 19.4492 19.4238C18.6029 20.2533 17.9342 21.235 17.4434 22.3691C16.9525 23.5033 16.707 24.7135 16.707 26C16.707 27.2865 16.9525 28.4883 17.4434 29.6055C17.9342 30.7227 18.5944 31.7044 19.4238 32.5508C20.2533 33.3971 21.235 34.0658 22.3691 34.5566C23.5033 35.0475 24.7135 35.293 26 35.293ZM16.4785 33.9219C15.5475 32.8047 14.8366 31.569 14.3457 30.2148C13.8548 28.8607 13.6094 27.4557 13.6094 26C13.6094 24.5443 13.8548 23.1393 14.3457 21.7852C14.8366 20.431 15.5475 19.1953 16.4785 18.0781C14.2103 18.9753 12.0859 20.0924 10.1055 21.4297C8.125 22.7669 6.25456 24.2904 4.49414 26C6.23763 27.6927 8.09961 29.2077 10.0801 30.5449C12.0605 31.8822 14.1934 33.0078 16.4785 33.9219ZM47.5059 26C45.7624 24.3073 43.9004 22.7923 41.9199 21.4551C39.9395 20.1178 37.8066 18.9922 35.5215 18.0781C36.4525 19.1953 37.1634 20.431 37.6543 21.7852C38.1452 23.1393 38.3906 24.5443 38.3906 26C38.3906 27.4557 38.1452 28.8607 37.6543 30.2148C37.1634 31.569 36.4525 32.8047 35.5215 33.9219C37.7897 33.0247 39.9141 31.9076 41.8945 30.5703C43.875 29.2331 45.7454 27.7096 47.5059 26ZM26 21.6582C26.5924 21.6582 27.151 21.7682 27.6758 21.9883C28.2005 22.2083 28.6576 22.5215 29.0469 22.9277C29.4362 23.334 29.7493 23.7995 29.9863 24.3242C30.2233 24.849 30.3418 25.4076 30.3418 26C30.3418 26.5925 30.2318 27.151 30.0117 27.6758C29.7917 28.2005 29.4785 28.666 29.0723 29.0723C28.666 29.4785 28.2005 29.7832 27.6758 29.9863C27.151 30.1895 26.5924 30.3079 26 30.3418C25.4076 30.3418 24.849 30.2318 24.3242 30.0117C23.7995 29.7917 23.334 29.4785 22.9277 29.0723C22.5215 28.666 22.2168 28.209 22.0137 27.7012C21.8105 27.1934 21.6921 26.6263 21.6582 26C21.6582 25.4076 21.7682 24.849 21.9883 24.3242C22.2083 23.7995 22.5215 23.3424 22.9277 22.9531C23.334 22.5638 23.791 22.2507 24.2988 22.0137C24.8066 21.7767 25.3737 21.6582 26 21.6582Z" fill="#5A503F"/>
</svg>
