<svg width="199" height="199" viewBox="0 0 199 199" fill="none" xmlns="http://www.w3.org/2000/svg">
<g clip-path="url(#clip0_32_134)">
<path d="M153.44 119.971V119.21H153.466C153.78 119.21 154.05 119.16 154.277 119.059C154.503 118.959 154.691 118.833 154.836 118.663C154.987 118.487 155.1 118.298 155.188 118.072C155.276 117.845 155.339 117.613 155.37 117.361C155.408 117.109 155.421 116.851 155.421 116.594C155.421 116.355 155.408 116.109 155.37 115.858C155.333 115.612 155.276 115.373 155.188 115.147C155.106 114.92 154.981 114.719 154.836 114.53C154.685 114.348 154.497 114.21 154.27 114.103C154.044 113.996 153.767 113.945 153.447 113.945V113.203H153.491C154.453 113.203 155.169 113.493 155.653 114.071C156.131 114.65 156.376 115.493 156.376 116.606C156.376 117.172 156.301 117.669 156.15 118.091C155.999 118.512 155.785 118.864 155.515 119.147C155.245 119.424 154.924 119.638 154.566 119.776C154.22 119.908 153.849 119.978 153.453 119.984V119.971H153.447H153.44ZM153.44 113.197V113.939C153.132 113.939 152.862 113.996 152.636 114.096C152.41 114.203 152.221 114.342 152.064 114.518C151.913 114.7 151.794 114.902 151.706 115.128C151.618 115.354 151.555 115.593 151.517 115.851C151.479 116.103 151.46 116.355 151.46 116.6C151.46 116.94 151.492 117.267 151.561 117.581C151.63 117.889 151.737 118.172 151.888 118.411C152.045 118.657 152.246 118.852 152.51 118.99C152.762 119.129 153.076 119.204 153.44 119.204V119.965H153.378C152.787 119.965 152.278 119.833 151.85 119.581C151.429 119.324 151.102 118.952 150.876 118.455C150.649 117.965 150.536 117.367 150.536 116.656C150.536 116.097 150.612 115.6 150.756 115.172C150.901 114.744 151.108 114.379 151.372 114.084C151.636 113.788 151.951 113.568 152.303 113.411C152.648 113.266 153.032 113.191 153.44 113.184V113.197ZM134.142 119.921V119.097C134.375 119.129 134.62 119.147 134.884 119.141C135.004 119.141 135.136 119.141 135.293 119.122C135.45 119.103 135.601 119.097 135.758 119.078C135.915 119.059 136.06 119.04 136.185 119.015C136.311 118.99 136.405 118.971 136.468 118.952L136.632 119.713C136.581 119.732 136.481 119.758 136.336 119.783C136.198 119.808 136.028 119.833 135.827 119.858C135.632 119.883 135.431 119.902 135.211 119.915C134.997 119.927 134.79 119.94 134.589 119.94C134.432 119.94 134.274 119.94 134.124 119.921H134.142ZM134.142 116.763V116.065H135.802C135.802 115.619 135.745 115.241 135.632 114.92C135.519 114.6 135.356 114.354 135.129 114.178C134.909 114.002 134.626 113.914 134.3 113.914C134.249 113.914 134.199 113.914 134.142 113.914V113.216C134.237 113.216 134.337 113.203 134.438 113.203C135.23 113.203 135.821 113.474 136.198 114.015C136.581 114.549 136.77 115.354 136.77 116.43V116.763H134.142ZM143.729 119.833V115.65C143.729 115.43 143.729 115.203 143.703 114.971C143.678 114.738 143.641 114.524 143.565 114.31C143.496 114.096 143.389 113.914 143.238 113.744C143.087 113.581 142.893 113.449 142.647 113.348C142.396 113.247 142.082 113.197 141.704 113.197C141.415 113.197 141.158 113.228 140.931 113.291C140.705 113.348 140.504 113.423 140.334 113.511C140.158 113.606 140.001 113.694 139.856 113.794C139.712 113.895 139.58 113.983 139.46 114.065V113.367H138.549V119.833H139.46V114.857C139.536 114.813 139.643 114.738 139.787 114.644C139.932 114.549 140.102 114.455 140.29 114.354C140.479 114.254 140.68 114.166 140.881 114.103C141.088 114.033 141.29 113.996 141.478 113.996C141.774 113.996 142.013 114.046 142.195 114.14C142.377 114.235 142.509 114.367 142.603 114.537C142.698 114.707 142.761 114.902 142.786 115.128C142.817 115.348 142.83 115.593 142.83 115.845V119.833H143.735H143.729ZM149.568 119.764L149.405 119.028C149.405 119.028 149.355 119.04 149.26 119.066C149.166 119.084 149.047 119.11 148.896 119.135C148.745 119.16 148.588 119.173 148.412 119.173C148.167 119.173 147.965 119.16 147.802 119.135C147.645 119.11 147.513 119.059 147.418 118.978C147.324 118.902 147.261 118.789 147.224 118.638C147.186 118.487 147.167 118.298 147.167 118.053V114.134H149.166V113.367H147.167V112.04H146.268V113.367H145.325V114.134H146.268V118.065C146.268 118.443 146.306 118.745 146.375 118.99C146.444 119.229 146.551 119.418 146.677 119.55C146.809 119.682 146.966 119.776 147.142 119.839C147.324 119.902 147.519 119.934 147.739 119.946C147.953 119.959 148.185 119.965 148.424 119.959C148.525 119.959 148.632 119.959 148.751 119.934C148.864 119.921 148.977 119.902 149.084 119.877C149.191 119.858 149.292 119.833 149.373 119.814C149.455 119.789 149.524 119.77 149.562 119.758L149.568 119.764ZM134.142 113.222V113.92C133.885 113.939 133.646 114.015 133.432 114.147C133.174 114.304 132.961 114.543 132.797 114.857C132.634 115.178 132.527 115.581 132.489 116.065H134.149V116.763H132.477C132.489 117.172 132.539 117.512 132.621 117.795C132.703 118.072 132.816 118.304 132.961 118.481C133.105 118.657 133.275 118.795 133.47 118.896C133.665 118.99 133.885 119.059 134.124 119.091H134.142V119.921C133.853 119.902 133.589 119.852 133.338 119.783C132.961 119.676 132.646 119.506 132.382 119.254C132.118 119.009 131.911 118.676 131.773 118.26C131.634 117.845 131.559 117.33 131.559 116.713C131.559 116.059 131.634 115.512 131.779 115.059C131.923 114.612 132.131 114.247 132.389 113.977C132.653 113.706 132.954 113.505 133.3 113.386C133.564 113.291 133.841 113.235 134.142 113.216H134.149L134.142 113.222ZM102.423 132.137V131.382C102.605 131.357 102.763 131.313 102.901 131.256C103.127 131.162 103.316 131.029 103.46 130.86C103.611 130.684 103.724 130.495 103.812 130.268C103.9 130.042 103.963 129.809 103.995 129.558C104.032 129.306 104.045 129.048 104.045 128.79C104.045 128.551 104.026 128.306 103.995 128.054C103.957 127.809 103.9 127.57 103.812 127.343C103.731 127.117 103.605 126.916 103.46 126.727C103.31 126.545 103.121 126.406 102.895 126.299C102.756 126.236 102.593 126.192 102.417 126.167V125.406C103.222 125.469 103.838 125.746 104.265 126.262C104.743 126.84 104.988 127.683 104.988 128.796C104.988 129.363 104.912 129.86 104.762 130.281C104.611 130.702 104.397 131.055 104.127 131.338C103.856 131.614 103.536 131.828 103.178 131.967C102.939 132.061 102.687 132.118 102.417 132.149V132.137H102.423ZM102.423 119.978V119.217H102.448C102.763 119.217 103.033 119.166 103.259 119.066C103.486 118.971 103.674 118.839 103.819 118.669C103.97 118.493 104.083 118.304 104.171 118.078C104.259 117.852 104.322 117.619 104.353 117.367C104.391 117.116 104.403 116.858 104.403 116.6C104.403 116.361 104.391 116.116 104.353 115.864C104.315 115.619 104.259 115.38 104.171 115.153C104.089 114.927 103.963 114.725 103.819 114.537C103.668 114.354 103.479 114.216 103.253 114.109C103.027 114.002 102.75 113.952 102.429 113.952V113.209H102.473C103.435 113.209 104.152 113.499 104.636 114.078C105.114 114.656 105.359 115.499 105.359 116.612C105.359 117.179 105.283 117.675 105.132 118.097C104.982 118.518 104.768 118.871 104.498 119.154C104.227 119.43 103.907 119.644 103.548 119.783C103.203 119.915 102.832 119.984 102.436 119.99V119.978H102.429H102.423ZM108.156 119.839V110.907H107.245V119.839H108.156ZM115.278 113.373H114.335L112.808 117.814L112.343 119.185L111.928 117.839L110.564 113.373H109.57L111.676 119.839H113.015L115.278 113.373ZM118.251 111.36L117.472 110.593L116.705 111.36L117.472 112.14L118.251 111.36ZM117.931 119.839V113.373H117.019V119.839H117.931ZM129.73 119.839V115.656C129.73 115.436 129.73 115.21 129.704 114.977C129.679 114.744 129.635 114.53 129.566 114.317C129.497 114.103 129.384 113.92 129.239 113.75C129.095 113.587 128.894 113.455 128.648 113.354C128.403 113.254 128.089 113.203 127.712 113.203C127.429 113.203 127.171 113.241 126.932 113.304C126.706 113.367 126.492 113.449 126.304 113.549C126.115 113.65 125.945 113.75 125.801 113.851C125.65 113.952 125.518 114.046 125.392 114.128C125.311 113.945 125.197 113.788 125.047 113.65C124.896 113.511 124.707 113.404 124.468 113.323C124.229 113.247 123.94 113.203 123.601 113.203C123.312 113.203 123.066 113.235 122.859 113.298C122.652 113.354 122.469 113.43 122.318 113.518C122.161 113.612 122.023 113.7 121.904 113.801C121.778 113.901 121.658 113.989 121.533 114.071V113.373H120.621V119.839H121.533V114.864C121.608 114.82 121.709 114.744 121.834 114.65C121.96 114.556 122.111 114.461 122.281 114.361C122.45 114.26 122.626 114.172 122.815 114.109C123.004 114.04 123.192 114.002 123.381 114.002C123.676 114.002 123.915 114.052 124.097 114.147C124.28 114.241 124.412 114.373 124.506 114.543C124.6 114.713 124.663 114.908 124.688 115.134C124.72 115.354 124.732 115.6 124.732 115.851V119.839H125.631V115.656C125.631 115.518 125.631 115.38 125.619 115.241C125.619 115.103 125.6 114.964 125.581 114.826C125.669 114.763 125.782 114.688 125.92 114.6C126.059 114.512 126.216 114.417 126.392 114.323C126.568 114.228 126.75 114.159 126.932 114.096C127.115 114.033 127.297 114.002 127.479 114.002C127.775 114.002 128.014 114.052 128.19 114.147C128.372 114.241 128.504 114.373 128.592 114.543C128.686 114.713 128.743 114.908 128.774 115.134C128.806 115.354 128.818 115.6 128.818 115.851V119.839H129.73ZM111.205 125.758C111.104 125.695 110.978 125.639 110.821 125.582C110.664 125.526 110.469 125.482 110.249 125.444C110.029 125.406 109.772 125.393 109.476 125.387C109.017 125.387 108.596 125.463 108.225 125.614C107.848 125.765 107.527 125.978 107.257 126.268C106.987 126.551 106.779 126.897 106.635 127.312C106.49 127.727 106.415 128.193 106.415 128.715C106.415 129.325 106.471 129.847 106.591 130.275C106.71 130.709 106.899 131.061 107.163 131.331C107.427 131.608 107.76 131.803 108.187 131.929C108.609 132.055 109.118 132.118 109.715 132.118C109.935 132.118 110.142 132.099 110.337 132.074C110.532 132.048 110.702 132.011 110.846 131.979C110.991 131.948 111.104 131.916 111.18 131.898L111.048 131.174C110.966 131.187 110.859 131.206 110.733 131.231C110.608 131.256 110.463 131.275 110.306 131.3C110.149 131.325 109.985 131.325 109.816 131.331C109.332 131.331 108.935 131.281 108.615 131.174C108.294 131.074 108.049 130.916 107.861 130.702C107.672 130.489 107.553 130.224 107.471 129.897C107.389 129.57 107.358 129.186 107.364 128.746C107.364 127.891 107.54 127.237 107.873 126.802C108.206 126.362 108.697 126.148 109.332 126.148C109.545 126.148 109.753 126.167 109.948 126.199C110.142 126.23 110.318 126.268 110.476 126.318C110.633 126.362 110.752 126.413 110.853 126.457L111.211 125.746V125.758H111.205ZM110.092 133.413C110.092 133.275 110.067 133.143 110.023 133.005C109.979 132.872 109.916 132.747 109.847 132.627H108.973C109.049 132.766 109.118 132.904 109.168 133.036C109.218 133.168 109.244 133.294 109.244 133.42C109.244 133.577 109.2 133.728 109.093 133.873C108.986 134.024 108.81 134.175 108.558 134.326L108.854 134.848C109.162 134.715 109.413 134.571 109.596 134.42C109.778 134.263 109.91 134.099 109.992 133.923C110.067 133.747 110.105 133.577 110.098 133.401V133.413H110.092ZM102.417 113.209V113.952C102.109 113.952 101.839 114.008 101.612 114.109C101.386 114.216 101.197 114.354 101.04 114.53C100.889 114.713 100.77 114.914 100.682 115.141C100.594 115.367 100.531 115.606 100.493 115.864C100.456 116.116 100.437 116.367 100.437 116.612C100.437 116.952 100.468 117.279 100.537 117.594C100.607 117.902 100.713 118.185 100.864 118.424C101.021 118.669 101.223 118.864 101.487 119.003C101.738 119.141 102.052 119.217 102.417 119.217V119.978H102.354C101.763 119.978 101.248 119.846 100.827 119.594C100.405 119.336 100.079 118.965 99.8522 118.468C99.6259 117.977 99.5128 117.38 99.5128 116.669C99.5128 116.109 99.5882 115.612 99.7328 115.185C99.8774 114.757 100.085 114.392 100.349 114.096C100.613 113.801 100.927 113.581 101.279 113.423C101.625 113.279 102.008 113.203 102.417 113.197V113.209ZM102.417 125.406V126.167C102.31 126.155 102.191 126.142 102.065 126.142C101.751 126.142 101.48 126.199 101.254 126.299C101.028 126.406 100.839 126.545 100.682 126.721C100.531 126.903 100.412 127.104 100.324 127.331C100.236 127.557 100.173 127.796 100.135 128.054C100.097 128.306 100.079 128.557 100.079 128.803C100.079 129.142 100.11 129.47 100.179 129.784C100.248 130.092 100.355 130.375 100.506 130.614C100.663 130.86 100.864 131.055 101.128 131.193C101.386 131.331 101.707 131.407 102.09 131.407C102.203 131.407 102.31 131.407 102.417 131.388V132.143C102.279 132.155 102.14 132.168 101.996 132.168C101.405 132.168 100.889 132.036 100.468 131.784C100.047 131.526 99.7202 131.155 99.4939 130.658C99.2676 130.168 99.1545 129.57 99.1545 128.859C99.1545 128.3 99.2299 127.803 99.3745 127.375C99.5191 126.947 99.7265 126.582 99.9905 126.287C100.255 125.991 100.569 125.771 100.921 125.614C101.279 125.463 101.675 125.387 102.103 125.387C102.209 125.387 102.316 125.387 102.417 125.4V125.406ZM82.1571 131.96V130.985C82.2514 131.061 82.3519 131.136 82.4588 131.193C82.7165 131.331 83.0371 131.407 83.4206 131.407C83.7349 131.407 84.0052 131.357 84.2315 131.256C84.4578 131.155 84.6463 131.029 84.7909 130.86C84.9418 130.684 85.0549 130.495 85.1429 130.268C85.2309 130.042 85.2938 129.809 85.3252 129.558C85.3629 129.306 85.3755 129.048 85.3755 128.79C85.3755 128.551 85.3567 128.306 85.3252 128.054C85.2875 127.809 85.2309 127.57 85.1429 127.343C85.0612 127.117 84.9355 126.916 84.7909 126.727C84.6401 126.545 84.4515 126.406 84.2252 126.299C83.9989 126.192 83.7223 126.142 83.4017 126.142C83.0811 126.142 82.8171 126.199 82.5908 126.299C82.4274 126.375 82.2828 126.475 82.1634 126.582V125.664C82.1948 125.651 82.2262 125.633 82.2639 125.62C82.6222 125.469 83.0183 125.393 83.4457 125.393C84.4075 125.393 85.1241 125.683 85.6081 126.262C86.0858 126.84 86.331 127.683 86.331 128.796C86.331 129.363 86.2556 129.86 86.1047 130.281C85.9538 130.702 85.7401 131.055 85.4698 131.338C85.1995 131.614 84.8789 131.828 84.5206 131.967C84.156 132.105 83.7663 132.174 83.3389 132.174C82.9114 132.174 82.5154 132.105 82.1697 131.967V131.954H82.1571V131.96ZM82.1571 119.934V119.11C82.3897 119.141 82.6348 119.16 82.8988 119.154C83.0183 119.154 83.1503 119.154 83.3074 119.135C83.4646 119.116 83.6154 119.11 83.7726 119.091C83.9297 119.072 84.0743 119.053 84.2 119.028C84.3258 119.003 84.42 118.984 84.4829 118.965L84.6463 119.726C84.5961 119.745 84.4955 119.77 84.3509 119.795C84.2126 119.82 84.0429 119.846 83.8417 119.871C83.6469 119.896 83.4457 119.915 83.2257 119.927C83.012 119.94 82.8045 119.953 82.6034 119.953C82.4462 119.953 82.2891 119.953 82.1382 119.934H82.1571ZM82.1571 116.776V116.078H83.8166C83.8166 115.631 83.76 115.254 83.6469 114.933C83.5337 114.612 83.3703 114.367 83.144 114.191C82.924 114.015 82.6411 113.927 82.3142 113.927C82.2639 113.927 82.2137 113.927 82.1571 113.927V113.228C82.2514 113.228 82.3519 113.216 82.4525 113.216C83.2446 113.216 83.8354 113.486 84.2126 114.027C84.5961 114.562 84.7846 115.367 84.7846 116.443V116.776H82.1571ZM91.7433 119.846V115.663C91.7433 115.442 91.7433 115.216 91.7181 114.983C91.693 114.751 91.6552 114.537 91.5798 114.323C91.5107 114.109 91.4038 113.927 91.2529 113.757C91.1021 113.593 90.9072 113.461 90.6621 113.36C90.4106 113.26 90.0963 113.209 89.7192 113.209C89.43 113.209 89.1723 113.241 88.946 113.304C88.7197 113.36 88.5185 113.436 88.3488 113.524C88.1728 113.618 88.0156 113.706 87.8711 113.807C87.7265 113.908 87.5945 113.996 87.4751 114.078V113.379H86.5636V119.846H87.4751V114.87C87.5505 114.826 87.6573 114.751 87.8019 114.656C87.9465 114.562 88.1162 114.468 88.3048 114.367C88.4934 114.266 88.6945 114.178 88.8957 114.115C89.1031 114.046 89.3043 114.008 89.4929 114.008C89.7883 114.008 90.0272 114.059 90.2095 114.153C90.3918 114.247 90.5238 114.379 90.6181 114.549C90.7123 114.719 90.7752 114.914 90.8003 115.141C90.8318 115.361 90.8444 115.606 90.8444 115.858V119.846H91.7495H91.7433ZM98.683 113.379H97.7401L96.2126 117.82L95.7474 119.191L95.3326 117.845L93.9685 113.379H92.9753L95.0811 119.846H96.42L98.683 113.379ZM97.3378 132.03V127.847C97.3378 127.626 97.3378 127.4 97.3127 127.167C97.2875 126.935 97.2435 126.721 97.1744 126.507C97.1052 126.293 96.9921 126.111 96.8475 125.941C96.7029 125.777 96.5018 125.645 96.2566 125.544C96.0115 125.444 95.6972 125.393 95.32 125.393C95.0371 125.393 94.7794 125.431 94.5405 125.494C94.3142 125.557 94.1005 125.639 93.9119 125.739C93.7233 125.84 93.5536 125.941 93.409 126.041C93.2582 126.142 93.1262 126.236 93.0005 126.318C92.9187 126.136 92.8056 125.978 92.6547 125.84C92.5039 125.702 92.3153 125.595 92.0764 125.513C91.8375 125.438 91.5484 125.393 91.2089 125.393C90.9198 125.393 90.6746 125.425 90.4672 125.488C90.2598 125.544 90.0775 125.62 89.9266 125.708C89.7694 125.802 89.6312 125.89 89.5117 125.991C89.386 126.092 89.2666 126.18 89.1408 126.262V125.563H88.2294V132.03H89.1408V127.054C89.2163 127.01 89.3169 126.935 89.4426 126.84C89.5683 126.746 89.7192 126.652 89.8889 126.551C90.0586 126.45 90.2346 126.362 90.4232 126.299C90.6118 126.23 90.8004 126.192 90.9889 126.192C91.2844 126.192 91.5232 126.243 91.7055 126.337C91.8878 126.431 92.0198 126.563 92.1141 126.733C92.2084 126.903 92.2713 127.098 92.2964 127.325C92.3279 127.545 92.3404 127.79 92.3404 128.042V132.03H93.2393V127.847C93.2393 127.708 93.2393 127.57 93.2268 127.432C93.2268 127.293 93.2079 127.155 93.189 127.016C93.277 126.953 93.3902 126.878 93.5285 126.79C93.6668 126.702 93.8239 126.607 93.9999 126.513C94.1759 126.419 94.3582 126.343 94.5405 126.287C94.7291 126.224 94.9114 126.192 95.0874 126.192C95.3829 126.192 95.6217 126.243 95.7977 126.337C95.98 126.431 96.112 126.563 96.2 126.733C96.2943 126.903 96.3509 127.098 96.3823 127.325C96.4138 127.545 96.4263 127.79 96.4263 128.042V132.03H97.3378ZM82.1634 113.235V113.933C81.9056 113.952 81.6668 114.027 81.453 114.159C81.1953 114.317 80.9816 114.556 80.8182 114.87C80.6547 115.191 80.5479 115.593 80.5101 116.078H82.1697V116.776H80.4976C80.5101 117.185 80.5604 117.525 80.6422 117.808C80.7239 118.084 80.837 118.317 80.9816 118.493C81.1262 118.669 81.2959 118.808 81.4908 118.908C81.6856 119.003 81.9056 119.072 82.1445 119.103H82.1634V119.934C81.8742 119.915 81.6102 119.864 81.3588 119.795C80.9816 119.688 80.6673 119.518 80.4033 119.267C80.1393 119.022 79.9318 118.688 79.7935 118.273C79.6552 117.858 79.5798 117.342 79.5798 116.726C79.5798 116.071 79.6552 115.524 79.7998 115.071C79.9444 114.625 80.1518 114.26 80.4096 113.989C80.6736 113.719 80.9753 113.518 81.321 113.398C81.5851 113.304 81.8616 113.247 82.1634 113.228V113.235ZM82.1634 125.67V126.589C82.1131 126.633 82.0691 126.677 82.0251 126.727C81.8742 126.909 81.7548 127.111 81.6668 127.337C81.5788 127.564 81.5159 127.803 81.4782 128.061C81.4405 128.312 81.4216 128.564 81.4216 128.809C81.4216 129.149 81.453 129.476 81.5222 129.79C81.5913 130.099 81.6982 130.382 81.8491 130.621C81.9371 130.759 82.0439 130.885 82.1697 130.985V131.96C82.0439 131.91 81.9308 131.853 81.8176 131.784C81.3965 131.526 81.0696 131.155 80.8433 130.658C80.617 130.168 80.5039 129.57 80.5039 128.859C80.5039 128.3 80.5793 127.803 80.7239 127.375C80.8684 126.947 81.0759 126.582 81.3399 126.287C81.5788 126.016 81.8616 125.815 82.1697 125.664H82.1634V125.67ZM70.0439 132.03V123.657H72.3635C72.9166 123.657 73.3944 123.745 73.7967 123.928C74.199 124.11 74.507 124.387 74.727 124.764C74.947 125.142 75.0539 125.62 75.0602 126.205C75.0602 126.582 74.9973 126.928 74.8653 127.249C74.7333 127.57 74.5321 127.847 74.2618 128.079C73.9915 128.318 73.6458 128.501 73.2309 128.633C72.8161 128.765 72.3195 128.828 71.7474 128.834H71.5211V128.054L71.8166 128.042C72.1435 128.029 72.4452 127.998 72.7155 127.935C72.9858 127.872 73.2247 127.771 73.4258 127.639C73.6207 127.507 73.7778 127.331 73.891 127.104C73.9978 126.884 74.0544 126.601 74.0544 126.274C74.0544 125.846 73.9853 125.494 73.8407 125.224C73.7024 124.953 73.4824 124.752 73.1932 124.626C72.9041 124.5 72.5395 124.437 72.0995 124.437H70.5971V132.042H70.0376V132.03H70.0439ZM70.0439 119.94V119.116C70.2765 119.147 70.5217 119.166 70.7857 119.16C70.9051 119.16 71.0371 119.16 71.1943 119.141C71.3514 119.122 71.5023 119.116 71.6594 119.097C71.8166 119.078 71.9612 119.059 72.0869 119.034C72.2126 119.009 72.3069 118.99 72.3698 118.971L72.5332 119.732C72.4829 119.751 72.3823 119.776 72.2377 119.802C72.0995 119.827 71.9297 119.852 71.7286 119.877C71.5337 119.902 71.3326 119.921 71.1126 119.934C70.8988 119.946 70.6914 119.959 70.4902 119.959C70.3331 119.959 70.1759 119.959 70.0251 119.94H70.0439ZM70.0439 116.782V116.084H71.7034C71.7034 115.637 71.6469 115.26 71.5337 114.939C71.4206 114.618 71.2571 114.373 71.0308 114.197C70.8108 114.021 70.528 113.933 70.2011 113.933C70.1508 113.933 70.1005 113.933 70.0439 113.933V113.235C70.1382 113.235 70.2388 113.222 70.3394 113.222C71.1314 113.222 71.7223 113.493 72.0995 114.033C72.4829 114.568 72.6715 115.373 72.6715 116.449V116.782H70.0439ZM78.2598 118.072C78.2598 117.776 78.1969 117.518 78.0775 117.317C77.958 117.116 77.8072 116.94 77.6123 116.801C77.4237 116.663 77.21 116.537 76.9837 116.443C76.7574 116.348 76.5248 116.248 76.2922 116.16C76.0659 116.071 75.8522 115.971 75.6636 115.864C75.4688 115.757 75.3179 115.625 75.1985 115.474C75.079 115.323 75.0225 115.134 75.0162 114.914C75.0162 114.732 75.0602 114.574 75.1419 114.436C75.2299 114.298 75.3556 114.197 75.5379 114.115C75.7139 114.04 75.9339 114.002 76.2105 114.002C76.4557 114.002 76.6757 114.015 76.858 114.046C77.0465 114.071 77.21 114.109 77.3483 114.147C77.4866 114.184 77.5997 114.216 77.6877 114.241L77.8637 113.499C77.8009 113.474 77.694 113.442 77.5431 113.404C77.3923 113.367 77.21 113.329 76.9963 113.304C76.7825 113.272 76.55 113.26 76.3048 113.254C75.9905 113.254 75.6951 113.291 75.431 113.367C75.167 113.442 74.9345 113.555 74.7396 113.706C74.5447 113.857 74.3876 114.046 74.2807 114.273C74.1738 114.499 74.1173 114.757 74.1173 115.059C74.1173 115.386 74.1801 115.65 74.2996 115.87C74.419 116.09 74.5699 116.266 74.7647 116.405C74.9596 116.543 75.1733 116.663 75.4059 116.763C75.6322 116.858 75.8711 116.946 76.0974 117.028C76.3237 117.109 76.5374 117.197 76.7323 117.292C76.9271 117.386 77.078 117.512 77.1974 117.65C77.3168 117.795 77.3734 117.977 77.3797 118.198C77.3797 118.405 77.3106 118.581 77.1848 118.726C77.0528 118.871 76.8643 118.984 76.6191 119.059C76.3739 119.135 76.0848 119.179 75.7453 119.179C75.6133 119.179 75.475 119.166 75.3179 119.154C75.1607 119.135 75.0036 119.11 74.8464 119.084C74.6893 119.059 74.5384 119.028 74.4001 118.996C74.2618 118.971 74.1487 118.934 74.0607 118.908L73.9287 119.701C73.979 119.72 74.067 119.745 74.199 119.776C74.3247 119.808 74.4819 119.839 74.6704 119.871C74.8527 119.896 75.0539 119.921 75.2676 119.946C75.4813 119.965 75.6951 119.978 75.9214 119.978C76.1477 119.978 76.3488 119.959 76.5688 119.921C76.7888 119.883 76.9963 119.82 77.2037 119.732C77.4111 119.644 77.5871 119.531 77.7506 119.386C77.9077 119.242 78.0397 119.059 78.134 118.845C78.2283 118.632 78.2723 118.374 78.2786 118.078H78.2598V118.072ZM79.9884 125.532C79.9381 125.513 79.8438 125.494 79.7181 125.475C79.5924 125.456 79.4352 125.45 79.2404 125.45C78.9701 125.45 78.7123 125.5 78.4672 125.588C78.222 125.683 78.0083 125.796 77.826 125.947C77.6374 126.098 77.4929 126.255 77.3986 126.431V125.563H76.4871V132.03H77.3986V127.306C77.4991 127.142 77.6374 126.985 77.7946 126.834C77.958 126.683 78.1466 126.563 78.3603 126.469C78.5741 126.375 78.8129 126.324 79.0832 126.324C79.2718 126.324 79.4227 126.324 79.5484 126.35C79.6678 126.362 79.7684 126.387 79.8438 126.419L80.001 125.532H79.9884ZM66.1026 115.644C66.1026 114.92 65.9832 114.298 65.7569 113.769C65.5306 113.241 65.2037 112.813 64.7888 112.474C64.3739 112.134 63.8836 111.882 63.3179 111.719C63.1042 111.656 62.8904 111.612 62.6579 111.568V112.398C62.7584 112.417 62.8527 112.448 62.947 112.474C63.4059 112.612 63.8019 112.832 64.1288 113.115C64.4557 113.398 64.7134 113.763 64.8894 114.203C65.0654 114.644 65.1534 115.166 65.1597 115.763C65.1597 116.493 65.0151 117.103 64.7385 117.594C64.4619 118.078 64.0596 118.449 63.5379 118.694C63.2739 118.82 62.9847 118.915 62.6642 118.971V119.764C62.9282 119.72 63.1859 119.663 63.4248 119.594C63.9842 119.424 64.4682 119.173 64.8705 118.827C65.2666 118.481 65.5746 118.047 65.7946 117.512C66.0083 116.984 66.1152 116.355 66.1215 115.631L66.1026 115.644ZM70.0439 113.241V113.939C69.7862 113.958 69.5473 114.033 69.3336 114.166C69.0759 114.323 68.8622 114.562 68.6987 114.876C68.5353 115.197 68.4284 115.6 68.3907 116.084H70.0502V116.782H68.3781C68.3907 117.191 68.441 117.531 68.5227 117.814C68.6044 118.091 68.7176 118.323 68.8622 118.499C69.0067 118.676 69.1765 118.814 69.3713 118.915C69.5662 119.009 69.7862 119.078 70.0251 119.11H70.0439V119.94C69.7548 119.921 69.4908 119.871 69.2393 119.802C68.8622 119.695 68.5479 119.525 68.2838 119.273C68.0198 119.028 67.8124 118.694 67.6741 118.279C67.5358 117.864 67.4604 117.348 67.4604 116.732C67.4604 116.078 67.5358 115.531 67.6804 115.078C67.825 114.631 68.0324 114.266 68.2901 113.996C68.5541 113.725 68.8559 113.524 69.2016 113.404C69.4656 113.31 69.7422 113.254 70.0439 113.235V113.241ZM70.0439 123.664V132.036H69.6416V123.664H70.0439ZM62.6579 132.08V131.294H62.7207C62.8779 131.268 63.0225 131.25 63.1482 131.224C63.2739 131.199 63.3682 131.18 63.431 131.162L63.5945 131.923C63.5442 131.942 63.4436 131.967 63.299 131.992C63.1607 132.017 62.991 132.042 62.7899 132.067L62.6579 132.08ZM62.6579 128.966V128.268H62.7522C62.7522 127.935 62.7207 127.633 62.6579 127.369V125.739C62.8464 125.865 63.0162 126.023 63.1545 126.218C63.5379 126.752 63.7265 127.557 63.7265 128.633V128.966H62.6579ZM62.6579 111.574C62.2744 111.511 61.8721 111.48 61.4509 111.48H59.2257V119.852H61.5201C61.9224 119.852 62.2996 119.827 62.6579 119.77V118.978C62.3498 119.04 62.0104 119.066 61.6521 119.066H60.1623V112.266H61.4195C61.8658 112.266 62.2807 112.31 62.6642 112.398V111.568H62.6579V111.574ZM62.6579 125.746V127.375C62.639 127.287 62.6139 127.205 62.5824 127.123C62.4693 126.802 62.3058 126.557 62.0795 126.381C61.8595 126.205 61.5767 126.117 61.2498 126.117C60.9229 126.117 60.6401 126.192 60.3823 126.35C60.1246 126.507 59.9109 126.746 59.7474 127.06C59.584 127.381 59.4771 127.784 59.4394 128.268H62.6579V128.966H59.4269C59.4394 129.375 59.4897 129.715 59.5714 129.998C59.6531 130.275 59.7663 130.507 59.9109 130.684C60.0555 130.86 60.2252 130.998 60.42 131.099C60.6149 131.193 60.8349 131.262 61.0738 131.294C61.3127 131.331 61.5704 131.344 61.8407 131.344C61.9601 131.344 62.0921 131.344 62.2493 131.325C62.3813 131.313 62.5196 131.3 62.6579 131.287V132.074C62.5007 132.093 62.3436 132.099 62.1801 132.118C61.9664 132.137 61.759 132.143 61.5578 132.143C61.0864 132.143 60.6715 132.093 60.2943 131.986C59.9172 131.879 59.6029 131.709 59.3388 131.457C59.0748 131.212 58.8674 130.879 58.7291 130.463C58.5908 130.048 58.5154 129.532 58.5154 128.916C58.5154 128.262 58.5908 127.715 58.7354 127.262C58.88 126.815 59.0874 126.45 59.3451 126.18C59.6091 125.909 59.9109 125.708 60.2566 125.588C60.6086 125.463 60.9858 125.406 61.3881 125.406C61.891 125.406 62.3184 125.513 62.6579 125.733V125.746Z" fill="#98876C"/>
<path d="M174.951 132.055V131.294L175.02 131.275C175.196 131.212 175.372 131.143 175.548 131.061C175.724 130.973 175.888 130.885 176.032 130.797C176.177 130.709 176.296 130.639 176.391 130.583C176.479 130.526 176.529 130.495 176.529 130.489V129.017L174.989 129.098H174.945V128.356H174.97L176.516 128.318V127.419C176.516 127.148 176.485 126.928 176.422 126.765C176.353 126.601 176.252 126.469 176.12 126.387C175.982 126.306 175.812 126.249 175.599 126.211C175.41 126.186 175.19 126.173 174.939 126.167V125.387H175.115C175.441 125.387 175.743 125.412 176.02 125.469C176.296 125.526 176.535 125.62 176.743 125.752C176.95 125.884 177.107 126.06 177.22 126.28C177.334 126.501 177.39 126.784 177.396 127.117V130.728C177.396 130.904 177.428 131.029 177.491 131.118C177.554 131.206 177.629 131.268 177.717 131.3C177.811 131.331 177.906 131.344 178 131.344L177.937 132.08C177.799 132.092 177.654 132.08 177.491 132.067C177.334 132.048 177.183 132.011 177.044 131.954C176.906 131.891 176.78 131.809 176.686 131.696C176.592 131.583 176.535 131.432 176.523 131.25C176.447 131.3 176.353 131.375 176.24 131.47C176.127 131.564 175.976 131.658 175.806 131.753C175.63 131.847 175.423 131.935 175.177 131.998C175.102 132.017 175.027 132.036 174.945 132.048H174.951V132.055ZM174.951 125.393V126.173H174.863C174.712 126.173 174.561 126.186 174.398 126.211C174.235 126.236 174.09 126.268 173.945 126.306C173.801 126.343 173.669 126.375 173.549 126.406C173.43 126.438 173.342 126.463 173.273 126.482L173.084 125.771C173.178 125.727 173.323 125.677 173.524 125.62C173.719 125.563 173.964 125.513 174.235 125.463C174.461 125.425 174.7 125.4 174.951 125.393ZM174.951 128.35V129.098C174.587 129.117 174.285 129.174 174.059 129.268C173.82 129.363 173.644 129.488 173.531 129.646C173.424 129.803 173.367 129.985 173.367 130.199C173.367 130.482 173.417 130.715 173.524 130.885C173.631 131.055 173.763 131.18 173.939 131.25C174.115 131.325 174.316 131.357 174.543 131.357C174.668 131.357 174.807 131.331 174.951 131.287V132.048C174.763 132.08 174.555 132.099 174.329 132.099C173.945 132.099 173.625 132.03 173.348 131.891C173.078 131.753 172.87 131.545 172.726 131.275C172.581 131.004 172.506 130.671 172.506 130.275C172.506 129.96 172.562 129.69 172.663 129.47C172.764 129.249 172.902 129.061 173.078 128.916C173.254 128.771 173.449 128.658 173.663 128.576C173.876 128.495 174.103 128.438 174.329 128.4C174.543 128.362 174.756 128.35 174.957 128.344L174.951 128.35ZM122.086 132.149V131.388H122.111C122.425 131.388 122.696 131.338 122.922 131.237C123.148 131.143 123.337 131.011 123.481 130.841C123.632 130.665 123.745 130.476 123.833 130.249C123.921 130.023 123.984 129.79 124.016 129.539C124.053 129.287 124.066 129.029 124.066 128.771C124.066 128.532 124.053 128.287 124.016 128.035C123.978 127.79 123.921 127.551 123.833 127.325C123.752 127.098 123.626 126.897 123.481 126.708C123.33 126.526 123.142 126.387 122.916 126.28C122.689 126.173 122.413 126.123 122.092 126.123V125.381H122.136C123.098 125.381 123.814 125.67 124.298 126.249C124.776 126.828 125.021 127.671 125.021 128.784C125.021 129.35 124.946 129.847 124.795 130.268C124.644 130.69 124.43 131.042 124.16 131.325C123.89 131.602 123.569 131.816 123.211 131.954C122.865 132.086 122.494 132.155 122.098 132.162V132.149H122.092H122.086ZM135.953 124.437V123.632H129.277V124.437H132.143V132.004H133.086V124.437H135.953ZM141.66 132.004V125.538H140.787V130.451C140.724 130.489 140.636 130.545 140.523 130.614C140.403 130.684 140.271 130.765 140.114 130.841C139.957 130.923 139.793 131.004 139.624 131.08C139.454 131.155 139.284 131.218 139.127 131.268C138.964 131.319 138.819 131.344 138.687 131.344C138.392 131.344 138.153 131.294 137.977 131.193C137.801 131.099 137.669 130.967 137.587 130.79C137.499 130.614 137.449 130.419 137.424 130.193C137.399 129.966 137.386 129.727 137.386 129.47V125.526H136.487V129.658C136.487 129.878 136.487 130.105 136.518 130.338C136.544 130.564 136.588 130.79 136.657 131.004C136.732 131.218 136.839 131.413 136.984 131.583C137.128 131.753 137.317 131.885 137.562 131.986C137.807 132.086 138.103 132.137 138.461 132.137C138.725 132.137 138.97 132.105 139.203 132.042C139.429 131.979 139.643 131.904 139.831 131.809C140.026 131.715 140.202 131.614 140.359 131.514C140.516 131.413 140.661 131.319 140.787 131.237V131.998H141.667H141.66V132.004ZM147.532 125.5C147.481 125.482 147.387 125.463 147.261 125.444C147.136 125.425 146.978 125.419 146.784 125.419C146.513 125.419 146.255 125.469 146.01 125.557C145.765 125.651 145.551 125.765 145.369 125.916C145.181 126.067 145.036 126.224 144.942 126.4V125.532H144.03V131.998H144.942V127.274C145.042 127.111 145.181 126.953 145.338 126.802C145.501 126.652 145.69 126.532 145.903 126.438C146.117 126.343 146.356 126.293 146.626 126.293C146.815 126.293 146.966 126.293 147.092 126.318C147.211 126.331 147.312 126.356 147.387 126.387L147.544 125.5H147.532ZM151.379 123.236L150.882 122.475L148.55 124.098L148.94 124.702L151.379 123.23V123.236ZM149.983 131.998V125.532H149.072V131.998H149.983ZM156.483 130.224C156.483 129.929 156.42 129.671 156.301 129.47C156.181 129.262 156.03 129.092 155.835 128.954C155.647 128.815 155.433 128.69 155.207 128.595C154.98 128.501 154.748 128.4 154.515 128.312C154.289 128.224 154.075 128.123 153.887 128.016C153.692 127.91 153.541 127.777 153.422 127.626C153.302 127.476 153.246 127.287 153.239 127.067C153.239 126.884 153.283 126.727 153.365 126.589C153.453 126.45 153.585 126.35 153.761 126.268C153.937 126.192 154.157 126.155 154.434 126.155C154.679 126.155 154.899 126.167 155.081 126.199C155.27 126.224 155.433 126.262 155.571 126.299C155.71 126.337 155.823 126.368 155.911 126.394L156.087 125.651C156.024 125.626 155.917 125.595 155.766 125.557C155.615 125.519 155.433 125.482 155.219 125.456C155.006 125.425 154.773 125.412 154.528 125.406C154.214 125.406 153.918 125.444 153.654 125.519C153.39 125.595 153.158 125.708 152.963 125.859C152.768 126.01 152.611 126.199 152.504 126.425C152.397 126.652 152.34 126.909 152.34 127.211C152.34 127.538 152.403 127.803 152.523 128.023C152.642 128.243 152.793 128.419 152.988 128.557C153.183 128.696 153.396 128.815 153.629 128.916C153.855 129.01 154.094 129.098 154.32 129.18C154.547 129.262 154.76 129.35 154.955 129.444C155.15 129.539 155.301 129.658 155.421 129.803C155.54 129.948 155.597 130.13 155.603 130.35C155.603 130.558 155.534 130.734 155.408 130.878C155.276 131.023 155.087 131.136 154.842 131.212C154.597 131.287 154.308 131.331 153.968 131.331C153.836 131.331 153.698 131.319 153.541 131.306C153.384 131.287 153.227 131.262 153.07 131.237C152.912 131.212 152.762 131.18 152.623 131.149C152.485 131.124 152.372 131.086 152.284 131.061L152.152 131.853C152.202 131.872 152.29 131.898 152.422 131.929C152.548 131.96 152.705 131.992 152.894 132.023C153.076 132.048 153.277 132.074 153.491 132.099C153.704 132.118 153.918 132.13 154.144 132.13C154.371 132.13 154.572 132.111 154.792 132.074C155.012 132.036 155.219 131.973 155.427 131.885C155.634 131.797 155.81 131.684 155.974 131.539C156.131 131.394 156.263 131.212 156.357 130.998C156.451 130.784 156.495 130.526 156.502 130.231H156.483V130.224ZM161.82 131.929L161.656 131.193C161.656 131.193 161.606 131.206 161.512 131.231C161.417 131.25 161.292 131.275 161.147 131.3C160.996 131.325 160.839 131.338 160.663 131.338C160.418 131.338 160.217 131.325 160.053 131.3C159.896 131.275 159.764 131.224 159.67 131.143C159.576 131.067 159.513 130.954 159.475 130.803C159.437 130.652 159.418 130.463 159.418 130.218V126.299H161.417V125.532H159.418V124.205H158.52V125.532H157.577V126.299H158.52V130.231C158.52 130.608 158.557 130.91 158.626 131.155C158.696 131.394 158.802 131.583 158.928 131.715C159.06 131.847 159.217 131.942 159.393 132.004C159.576 132.067 159.77 132.099 159.99 132.111C160.21 132.124 160.437 132.13 160.676 132.124C160.776 132.124 160.883 132.124 161.002 132.099C161.116 132.086 161.229 132.067 161.336 132.042C161.443 132.023 161.543 131.998 161.625 131.979C161.707 131.954 161.776 131.935 161.813 131.923L161.82 131.929ZM164.818 123.519L164.039 122.752L163.272 123.519L164.039 124.299L164.818 123.519ZM164.498 131.998V125.532H163.586V131.998H164.498ZM171.506 125.733C171.406 125.67 171.28 125.614 171.123 125.557C170.966 125.5 170.771 125.456 170.551 125.419C170.331 125.381 170.073 125.368 169.778 125.362C169.319 125.362 168.898 125.438 168.527 125.588C168.15 125.739 167.829 125.953 167.559 126.243C167.288 126.526 167.081 126.872 166.936 127.287C166.792 127.702 166.716 128.167 166.716 128.69C166.716 129.3 166.773 129.822 166.892 130.249C167.012 130.683 167.2 131.036 167.465 131.306C167.729 131.577 168.062 131.778 168.489 131.904C168.91 132.03 169.419 132.092 170.017 132.092C170.237 132.092 170.444 132.074 170.639 132.048C170.834 132.023 171.004 131.986 171.148 131.954C171.293 131.923 171.406 131.891 171.481 131.872L171.349 131.149C171.268 131.162 171.161 131.18 171.035 131.206C170.909 131.231 170.765 131.25 170.608 131.275C170.45 131.3 170.287 131.3 170.117 131.306C169.633 131.306 169.237 131.256 168.917 131.149C168.596 131.048 168.345 130.891 168.162 130.677C167.98 130.463 167.854 130.199 167.773 129.872C167.691 129.545 167.659 129.161 167.666 128.721C167.666 127.866 167.842 127.211 168.175 126.777C168.508 126.337 168.998 126.123 169.633 126.123C169.847 126.123 170.054 126.142 170.249 126.173C170.444 126.205 170.62 126.243 170.777 126.293C170.934 126.337 171.054 126.387 171.154 126.431L171.513 125.721V125.733H171.506ZM116.982 123.896L116.648 123.318C116.648 123.318 116.63 123.337 116.586 123.374C116.542 123.412 116.479 123.45 116.403 123.5C116.328 123.544 116.227 123.588 116.127 123.626C116.02 123.664 115.9 123.683 115.768 123.683C115.655 123.683 115.542 123.657 115.435 123.607C115.328 123.557 115.215 123.5 115.102 123.431C114.989 123.362 114.869 123.305 114.737 123.255C114.719 123.255 114.7 123.242 114.675 123.236V124.148C114.769 124.192 114.863 124.242 114.957 124.299C115.077 124.362 115.196 124.425 115.322 124.475C115.448 124.525 115.58 124.551 115.718 124.551C115.869 124.551 116.007 124.525 116.133 124.481C116.259 124.437 116.378 124.381 116.485 124.318C116.592 124.255 116.68 124.192 116.755 124.123C116.831 124.06 116.887 124.003 116.931 123.959C116.969 123.915 116.994 123.896 116.994 123.896H116.982ZM122.086 125.368V126.111C121.778 126.111 121.507 126.167 121.281 126.268C121.055 126.375 120.866 126.513 120.709 126.689C120.558 126.872 120.439 127.073 120.351 127.299C120.263 127.526 120.2 127.765 120.162 128.023C120.125 128.274 120.106 128.526 120.106 128.771C120.106 129.111 120.137 129.438 120.206 129.753C120.275 130.061 120.382 130.344 120.533 130.583C120.69 130.828 120.891 131.023 121.155 131.162C121.407 131.3 121.721 131.375 122.086 131.375V132.137H122.023C121.432 132.137 120.917 132.004 120.495 131.753C120.074 131.495 119.747 131.124 119.521 130.627C119.295 130.136 119.182 129.539 119.182 128.828C119.182 128.268 119.257 127.771 119.402 127.343C119.546 126.916 119.754 126.551 120.018 126.255C120.282 125.96 120.596 125.739 120.948 125.582C121.294 125.438 121.677 125.362 122.086 125.356V125.368ZM114.662 132.042V131.281L114.731 131.262C114.907 131.199 115.083 131.13 115.259 131.048C115.435 130.96 115.599 130.872 115.743 130.784C115.888 130.696 116.007 130.627 116.101 130.57C116.189 130.514 116.24 130.482 116.24 130.476V129.004L114.7 129.086H114.656V128.344H114.681L116.227 128.306V127.406C116.227 127.136 116.196 126.916 116.133 126.752C116.064 126.589 115.963 126.457 115.831 126.375C115.693 126.293 115.523 126.236 115.309 126.199C115.121 126.173 114.901 126.161 114.649 126.155V125.375H114.825C115.152 125.375 115.454 125.4 115.731 125.456C116.007 125.513 116.246 125.607 116.454 125.739C116.661 125.872 116.818 126.048 116.931 126.268C117.044 126.488 117.101 126.771 117.107 127.104V130.715C117.107 130.891 117.139 131.017 117.202 131.105C117.264 131.193 117.34 131.256 117.428 131.287C117.522 131.319 117.616 131.331 117.711 131.331L117.648 132.067C117.51 132.08 117.365 132.067 117.202 132.055C117.044 132.036 116.894 131.998 116.755 131.942C116.617 131.879 116.491 131.797 116.397 131.684C116.303 131.57 116.246 131.419 116.233 131.237C116.158 131.287 116.064 131.363 115.951 131.457C115.837 131.552 115.687 131.646 115.517 131.74C115.341 131.835 115.133 131.923 114.888 131.986C114.813 132.004 114.737 132.023 114.656 132.036H114.662V132.042ZM114.662 123.23C114.549 123.192 114.429 123.173 114.304 123.173C114.109 123.173 113.933 123.205 113.776 123.267C113.619 123.324 113.48 123.393 113.367 123.475C113.254 123.557 113.166 123.62 113.103 123.683C113.04 123.745 113.009 123.771 113.009 123.777L113.304 124.406C113.405 124.318 113.505 124.249 113.6 124.198C113.694 124.148 113.795 124.11 113.901 124.085C114.008 124.06 114.121 124.054 114.247 124.054C114.373 124.054 114.48 124.079 114.593 124.129L114.656 124.154V123.242V123.23H114.662ZM114.662 125.381V126.161H114.574C114.423 126.161 114.272 126.173 114.109 126.199C113.945 126.224 113.801 126.255 113.656 126.293C113.512 126.331 113.38 126.362 113.26 126.394C113.141 126.425 113.053 126.45 112.984 126.469L112.795 125.758C112.889 125.714 113.034 125.664 113.235 125.607C113.43 125.551 113.675 125.5 113.945 125.45C114.172 125.412 114.411 125.387 114.662 125.381ZM114.662 128.337V129.086C114.297 129.105 113.996 129.161 113.769 129.256C113.531 129.35 113.354 129.476 113.241 129.633C113.134 129.79 113.078 129.973 113.078 130.187C113.078 130.47 113.128 130.702 113.235 130.872C113.342 131.042 113.474 131.168 113.65 131.237C113.826 131.313 114.027 131.344 114.253 131.344C114.379 131.344 114.517 131.319 114.662 131.275V132.036C114.473 132.067 114.266 132.086 114.04 132.086C113.656 132.086 113.336 132.017 113.059 131.879C112.789 131.74 112.581 131.533 112.437 131.262C112.292 130.992 112.217 130.658 112.217 130.262C112.217 129.948 112.273 129.677 112.374 129.457C112.474 129.237 112.613 129.048 112.789 128.903C112.965 128.759 113.16 128.645 113.373 128.564C113.587 128.482 113.813 128.425 114.04 128.388C114.253 128.35 114.467 128.337 114.668 128.331L114.662 128.337ZM97.5577 144.22V143.459L97.6269 143.44C97.8029 143.377 97.9789 143.308 98.1549 143.22C98.3309 143.132 98.4944 143.044 98.6389 142.956C98.7835 142.868 98.903 142.798 98.9972 142.742C99.0852 142.685 99.1355 142.654 99.1355 142.647V141.175L97.5955 141.257H97.5515V140.515H97.5766L99.123 140.477V139.578C99.123 139.307 99.0915 139.087 99.0287 138.924C98.9595 138.76 98.859 138.628 98.7269 138.546C98.5887 138.464 98.4189 138.408 98.2052 138.37C98.0166 138.345 97.7966 138.332 97.5452 138.326V137.546H97.7212C98.0481 137.546 98.3498 137.571 98.6264 137.628C98.903 137.684 99.1418 137.779 99.3493 137.911C99.5567 138.043 99.7139 138.219 99.827 138.439C99.9401 138.659 99.9967 138.942 100.003 139.276V142.886C100.003 143.063 100.034 143.188 100.097 143.276C100.16 143.364 100.236 143.427 100.324 143.459C100.418 143.49 100.512 143.503 100.606 143.503L100.544 144.239C100.405 144.251 100.261 144.239 100.097 144.226C99.9401 144.207 99.7893 144.17 99.651 144.113C99.5127 144.05 99.387 143.968 99.2927 143.855C99.1984 143.742 99.1418 143.591 99.1293 143.408C99.0538 143.459 98.9595 143.534 98.8464 143.629C98.7332 143.723 98.5824 143.817 98.4126 143.912C98.2366 144.006 98.0292 144.094 97.784 144.157C97.7086 144.176 97.6332 144.195 97.5515 144.207V144.22H97.5577ZM106.867 137.911C106.767 137.848 106.641 137.791 106.484 137.735C106.327 137.678 106.132 137.634 105.912 137.596C105.692 137.559 105.434 137.546 105.139 137.54C104.68 137.54 104.259 137.615 103.888 137.766C103.511 137.917 103.19 138.131 102.92 138.42C102.649 138.703 102.442 139.049 102.297 139.465C102.153 139.88 102.077 140.345 102.077 140.867C102.077 141.477 102.134 141.999 102.253 142.427C102.373 142.861 102.561 143.213 102.825 143.484C103.089 143.761 103.423 143.956 103.85 144.082C104.271 144.207 104.78 144.27 105.378 144.27C105.598 144.27 105.805 144.251 106 144.226C106.195 144.201 106.364 144.163 106.509 144.132C106.654 144.094 106.767 144.069 106.842 144.05L106.71 143.327C106.628 143.339 106.522 143.358 106.396 143.383C106.27 143.408 106.126 143.427 105.968 143.453C105.811 143.478 105.648 143.478 105.478 143.484C104.994 143.484 104.598 143.434 104.277 143.327C103.957 143.226 103.712 143.069 103.523 142.855C103.335 142.641 103.215 142.377 103.133 142.05C103.052 141.723 103.02 141.339 103.027 140.899C103.027 140.043 103.203 139.389 103.536 138.955C103.869 138.515 104.359 138.301 104.994 138.301C105.208 138.301 105.415 138.32 105.61 138.351C105.805 138.383 105.981 138.42 106.138 138.471C106.295 138.515 106.415 138.565 106.515 138.609L106.874 137.898V137.911H106.867ZM105.755 145.566C105.755 145.428 105.73 145.296 105.686 145.157C105.642 145.025 105.579 144.899 105.51 144.78H104.636C104.711 144.918 104.78 145.056 104.831 145.189C104.881 145.321 104.906 145.446 104.906 145.572C104.906 145.73 104.862 145.881 104.755 146.025C104.648 146.176 104.472 146.327 104.221 146.478L104.516 147C104.824 146.868 105.076 146.723 105.258 146.572C105.44 146.415 105.572 146.252 105.654 146.075C105.73 145.899 105.767 145.73 105.761 145.553V145.566H105.755ZM113.637 144.182V137.716H112.764V142.628C112.701 142.666 112.613 142.723 112.5 142.792C112.38 142.861 112.248 142.943 112.091 143.018C111.934 143.1 111.77 143.182 111.601 143.258C111.431 143.333 111.261 143.396 111.104 143.446C110.941 143.497 110.796 143.522 110.664 143.522C110.369 143.522 110.13 143.471 109.954 143.371C109.778 143.276 109.646 143.144 109.564 142.968C109.476 142.792 109.426 142.597 109.394 142.371C109.369 142.144 109.357 141.905 109.357 141.647V137.703H108.458V141.836C108.458 142.056 108.458 142.283 108.489 142.515C108.514 142.742 108.558 142.968 108.627 143.182C108.703 143.396 108.81 143.591 108.954 143.761C109.099 143.931 109.287 144.063 109.533 144.163C109.771 144.264 110.073 144.314 110.438 144.314C110.702 144.314 110.947 144.283 111.18 144.22C111.406 144.157 111.62 144.082 111.808 143.987C112.003 143.893 112.173 143.792 112.336 143.692C112.493 143.591 112.638 143.497 112.764 143.415V144.176H113.644H113.637V144.182ZM97.5577 137.565V138.345H97.4697C97.3189 138.345 97.168 138.357 97.0046 138.383C96.8411 138.408 96.6966 138.439 96.552 138.477C96.4074 138.515 96.2754 138.546 96.156 138.578C96.0365 138.609 95.9485 138.634 95.8794 138.653L95.6908 137.942C95.7851 137.898 95.9297 137.848 96.1308 137.791C96.3257 137.735 96.5708 137.684 96.8411 137.634C97.0674 137.596 97.3063 137.571 97.5577 137.565ZM97.5577 140.521V141.27C97.1932 141.289 96.8914 141.345 96.6651 141.44C96.4263 141.534 96.2503 141.66 96.1371 141.817C96.0302 141.974 95.9737 142.157 95.9737 142.371C95.9737 142.654 96.024 142.886 96.1308 143.056C96.2314 143.226 96.3697 143.352 96.5457 143.421C96.7217 143.497 96.9229 143.528 97.1492 143.528C97.2749 143.528 97.4132 143.503 97.5577 143.459V144.22C97.3692 144.251 97.1617 144.27 96.9354 144.27C96.552 144.27 96.2314 144.201 95.9548 144.063C95.6845 143.924 95.4771 143.717 95.3325 143.446C95.1879 143.176 95.1125 142.842 95.1125 142.446C95.1125 142.132 95.1691 141.861 95.2696 141.641C95.3702 141.421 95.5085 141.232 95.6845 141.087C95.8605 140.943 96.0554 140.83 96.2691 140.748C96.4828 140.666 96.7091 140.609 96.9354 140.572C97.1492 140.534 97.3629 140.521 97.564 140.515L97.5577 140.521ZM83.2696 146.918V146.12C83.4519 146.12 83.6154 146.094 83.7788 146.063C84.024 146.019 84.244 145.937 84.4263 145.818C84.6086 145.698 84.7531 145.522 84.8537 145.296C84.9543 145.069 85.0109 144.773 85.0109 144.409V143.723C84.8789 143.824 84.7343 143.912 84.5834 144C84.4263 144.082 84.2565 144.151 84.0742 144.201C83.892 144.251 83.6908 144.277 83.4771 144.277H83.2696V143.497C83.3514 143.497 83.4456 143.509 83.5337 143.509C83.7034 143.509 83.8605 143.484 84.0114 143.44C84.1623 143.396 84.2943 143.333 84.4263 143.264C84.552 143.195 84.6651 143.125 84.7594 143.05C84.86 142.974 84.9417 142.912 85.0046 142.861V138.559C84.8977 138.54 84.7846 138.527 84.6588 138.515C84.5331 138.502 84.3886 138.49 84.2314 138.477C84.0742 138.464 83.8857 138.464 83.6782 138.464C83.5337 138.464 83.4016 138.477 83.2696 138.49V137.703C83.4079 137.684 83.5462 137.678 83.6908 137.678C84.0554 137.678 84.4263 137.703 84.8034 137.747C85.1806 137.791 85.5515 137.842 85.9161 137.905V144.597C85.9161 144.931 85.8658 145.226 85.7589 145.484C85.6583 145.742 85.52 145.962 85.344 146.138C85.168 146.321 84.9669 146.465 84.7343 146.585C84.508 146.705 84.2628 146.78 84.0051 146.837C83.7599 146.887 83.5148 146.912 83.2696 146.918ZM93.3964 144.182V137.716H92.5227V142.628C92.4598 142.666 92.3718 142.723 92.2586 142.792C92.1392 142.861 92.0072 142.943 91.8501 143.018C91.6929 143.1 91.5295 143.182 91.3597 143.258C91.19 143.333 91.0203 143.396 90.8631 143.446C90.6997 143.497 90.5551 143.522 90.4231 143.522C90.1277 143.522 89.8888 143.471 89.7128 143.371C89.5368 143.276 89.4048 143.144 89.3231 142.968C89.2351 142.792 89.1848 142.597 89.1534 142.371C89.1282 142.144 89.1156 141.905 89.1156 141.647V137.703H88.2167V141.836C88.2167 142.056 88.2167 142.283 88.2482 142.515C88.2733 142.742 88.3173 142.968 88.3865 143.182C88.4619 143.396 88.5687 143.591 88.7133 143.761C88.8579 143.931 89.0465 144.063 89.2916 144.163C89.5305 144.264 89.8322 144.314 90.1968 144.314C90.4608 144.314 90.706 144.283 90.9386 144.22C91.1649 144.157 91.3786 144.082 91.5672 143.987C91.762 143.893 91.9318 143.792 92.0952 143.692C92.2524 143.591 92.3969 143.497 92.5227 143.415V144.176H93.4027H93.3964V144.182ZM83.2696 137.703V138.49C83.0496 138.521 82.8548 138.584 82.6788 138.666C82.4022 138.804 82.1822 138.986 82.0124 139.226C81.8427 139.465 81.717 139.735 81.6416 140.037C81.5661 140.345 81.5284 140.666 81.5284 141.012C81.5284 141.597 81.6101 142.075 81.7673 142.446C81.9244 142.811 82.1507 143.088 82.4462 143.258C82.6788 143.39 82.9491 143.478 83.2571 143.503V144.283C83.0559 144.283 82.8548 144.258 82.6473 144.22C82.377 144.176 82.1193 144.088 81.8804 143.956C81.6353 143.83 81.4216 143.641 81.233 143.396C81.0444 143.151 80.8935 142.83 80.7867 142.433C80.6798 142.037 80.6232 141.553 80.6232 140.974C80.6232 140.433 80.7049 139.949 80.8684 139.54C81.0255 139.125 81.2455 138.785 81.5284 138.508C81.805 138.232 82.1319 138.03 82.4965 137.886C82.7416 137.791 82.9931 137.735 83.2571 137.703H83.2696ZM83.2696 146.12V146.918H83.2256C82.9868 146.918 82.7605 146.906 82.5405 146.887C82.3205 146.868 82.1193 146.843 81.9307 146.811C81.7421 146.786 81.585 146.749 81.453 146.723C81.321 146.698 81.2204 146.667 81.1575 146.648L81.2895 145.937C81.3587 145.95 81.4593 145.975 81.5913 145.994C81.7233 146.013 81.8679 146.038 82.0376 146.057C82.201 146.075 82.3645 146.094 82.5342 146.107C82.6976 146.12 82.8422 146.126 82.9742 146.126C83.0748 146.126 83.1816 146.126 83.2759 146.126H83.2696V146.12ZM68.5918 144.327V143.566H68.6169C68.9312 143.566 69.2015 143.515 69.4278 143.415C69.6541 143.32 69.8427 143.188 69.9873 143.018C70.1382 142.842 70.2513 142.654 70.3393 142.427C70.4273 142.201 70.4902 141.968 70.5216 141.716C70.5593 141.465 70.5719 141.207 70.5719 140.949C70.5719 140.71 70.553 140.465 70.5216 140.213C70.4839 139.968 70.4273 139.729 70.3393 139.502C70.2576 139.276 70.1319 139.075 69.9873 138.886C69.8364 138.703 69.6478 138.565 69.4216 138.458C69.1953 138.351 68.9187 138.301 68.5981 138.301H68.5918V137.559H68.6358C69.5976 137.559 70.3142 137.848 70.7982 138.427C71.2759 139.005 71.5211 139.848 71.5211 140.962C71.5211 141.528 71.4456 142.025 71.2948 142.446C71.1439 142.868 70.9302 143.22 70.6599 143.503C70.3896 143.78 70.069 143.993 69.7107 144.132C69.365 144.264 68.9941 144.333 68.5981 144.339V144.327H68.5918ZM78.5048 144.188V135.816H77.5619V144.188H78.5048ZM68.5918 137.559V138.301C68.2838 138.301 68.0135 138.357 67.7872 138.458C67.5609 138.565 67.3723 138.703 67.2152 138.88C67.0643 139.062 66.9449 139.263 66.8569 139.49C66.7689 139.716 66.706 139.955 66.6683 140.213C66.6306 140.465 66.6117 140.716 66.6117 140.962C66.6117 141.301 66.6431 141.628 66.7123 141.943C66.7814 142.251 66.8883 142.534 67.0392 142.773C67.1963 143.018 67.3975 143.213 67.6615 143.352C67.9129 143.49 68.2272 143.566 68.5918 143.572V144.333H68.5289C67.9381 144.333 67.4289 144.201 67.0014 143.949C66.5803 143.692 66.2534 143.32 66.0271 142.823C65.8008 142.333 65.6877 141.735 65.6877 141.025C65.6877 140.465 65.7631 139.968 65.9077 139.54C66.0522 139.112 66.2597 138.747 66.5237 138.452C66.7877 138.156 67.102 137.936 67.454 137.779C67.7998 137.634 68.1832 137.559 68.5918 137.552V137.559ZM61.1429 144.283V143.509H61.2686C61.4383 143.509 61.6017 143.478 61.7652 143.415C61.9286 143.358 62.0795 143.289 62.2241 143.201C62.3624 143.119 62.4944 143.031 62.6075 142.949C62.7144 142.868 62.8087 142.798 62.8778 142.742V138.584C62.7269 138.54 62.5447 138.502 62.3246 138.483C62.1046 138.464 61.8469 138.458 61.5263 138.458C61.3943 138.458 61.2623 138.471 61.1429 138.483V137.672C61.2812 137.653 61.4195 137.647 61.564 137.647C61.74 137.647 61.8846 137.647 62.0041 137.659C62.1235 137.659 62.2241 137.672 62.3121 137.684C62.4001 137.697 62.4944 137.716 62.5761 137.741C62.6641 137.766 62.7647 137.791 62.8778 137.823V135.244H63.7893V144.176H62.8778V143.585C62.7332 143.71 62.5698 143.824 62.4001 143.924C62.2241 144.025 62.0418 144.107 61.8406 144.17C61.6458 144.232 61.432 144.264 61.212 144.264H61.1429V144.283ZM61.1429 137.684V138.496C60.9166 138.527 60.7154 138.59 60.5331 138.672C60.2628 138.81 60.0428 138.993 59.8794 139.232C59.7159 139.471 59.5965 139.741 59.5148 140.043C59.4394 140.351 59.4016 140.672 59.4079 141.018C59.4079 141.603 59.4896 142.081 59.6468 142.452C59.804 142.817 60.024 143.094 60.3005 143.264C60.5457 143.421 60.8286 143.503 61.1429 143.515V144.289C60.9291 144.289 60.7091 144.27 60.4828 144.226C60.2314 144.182 59.9925 144.094 59.7537 143.962C59.5211 143.836 59.3074 143.648 59.1251 143.402C58.9365 143.157 58.7919 142.836 58.6788 142.44C58.5719 142.044 58.509 141.559 58.509 140.98C58.509 140.44 58.5908 139.955 58.7542 139.546C58.9113 139.131 59.1313 138.785 59.4142 138.508C59.6908 138.232 60.0177 138.024 60.3823 137.879C60.6274 137.785 60.8789 137.722 61.1429 137.691V137.684Z" fill="#98876C"/>
<path d="M37.7087 70.7319H22V87.0675H37.7087V70.7319Z" fill="#98876C"/>
<path d="M37.7087 88.3821H22V104.718H37.7087V88.3821Z" fill="#98876C"/>
<path d="M37.7087 53H22V69.3355H37.7087V53Z" fill="#98876C"/>
<path d="M54.7942 70.7319H39.0854V87.0675H54.7942V70.7319Z" fill="#98876C"/>
<path d="M54.7942 53H39.0854V69.3355H54.7942V53Z" fill="#98876C"/>
<path fill-rule="evenodd" clip-rule="evenodd" d="M121.319 89.9798H127.134V97.5343C127.134 99.6038 127.58 100.277 129.428 100.277C131.276 100.277 131.773 99.6038 131.773 97.5343V89.9798H135.689V97.5909C135.689 102.29 132.502 103.466 129.428 103.466C126.354 103.466 123.224 102.29 123.224 97.5909V92.8356H121.319V89.9798ZM100.996 100.271V97.3016H102.587L101.022 92.4896L100.996 92.5714V89.9735H103.542L108.577 103.12H104.548L103.486 100.264H100.996V100.271ZM117.013 104.019C117.013 103.799 116.957 103.573 116.957 103.346C118.076 103.29 118.918 103.07 120.144 102.56L119.471 99.7044C118.409 99.9246 117.623 100.094 116.397 100.094C114.159 100.094 112.594 99.2515 112.594 96.4021C112.594 93.7162 114.273 92.7664 116.001 92.7664C117.284 92.7664 118.239 92.9865 119.188 93.2696L119.861 90.3572C118.742 89.9673 117.566 89.7408 115.888 89.7408C110.91 89.7408 108.621 92.2569 108.621 96.6222C108.621 100.315 110.413 102.831 114.266 103.221V103.497C114.266 104.56 112.701 105.12 111.972 105.347L113.983 107.806C115.322 107.19 117.007 105.85 117.007 104.001V104.019H117.013ZM100.996 89.9798V92.5777L99.3998 97.3079H100.996V100.277H98.5072L97.5014 103.133H93.4721L98.5072 89.9861H100.996V89.9798ZM86.8215 100.271C88.6696 100.271 89.1159 99.5975 89.1159 97.528V89.9735H93.0321V97.5846C93.0321 102.283 89.8451 103.46 86.8278 103.46C83.8105 103.46 80.5669 102.283 80.5669 97.5846V89.9735H84.4831V97.528C84.4831 99.5975 84.9294 100.271 86.8278 100.271H86.8215ZM63.9027 103.126V89.9798H58.0881V92.8356H60.0431V103.126H63.9027ZM78.3794 95.295H73.0677V98.0375H74.9158V100.164H73.9666C71.6722 100.164 70.0504 98.9873 70.0504 96.5279C70.0504 93.8986 71.5591 92.779 73.8535 92.779C74.9724 92.779 75.9781 92.9425 77.3171 93.2822H77.3736L77.9897 90.4264C76.8142 89.9798 75.5884 89.6968 73.8535 89.6968C68.8749 89.6968 66.2474 91.8795 66.2474 96.6914C66.2474 101.164 69.1012 103.403 73.7403 103.403C75.4187 103.403 76.7073 103.126 78.3794 102.51V95.295Z" fill="#98876C"/>
<path d="M128.617 86.1743V83.1676C129.478 83.155 130.176 82.9789 130.698 82.6581C131.238 82.331 131.641 81.8655 131.88 81.2743C132.125 80.683 132.238 79.9974 132.238 79.2174C132.238 78.4374 132.112 77.7706 131.861 77.1857C131.609 76.6007 131.22 76.1478 130.698 75.8207C130.17 75.4936 129.497 75.3175 128.667 75.3175H128.617V72.3108H128.837C130.094 72.3108 131.182 72.4806 132.106 72.8077C133.017 73.1348 133.772 73.6003 134.363 74.2104C134.953 74.8206 135.387 75.5439 135.676 76.3994C135.959 77.2486 136.104 78.1984 136.104 79.2362C136.104 80.727 135.808 81.985 135.224 83.0166C134.639 84.0419 133.772 84.8219 132.64 85.3566C131.54 85.8786 130.201 86.1491 128.617 86.1617V86.1743ZM128.617 72.3234V75.3301C127.769 75.3364 127.077 75.5062 126.543 75.827C126.002 76.1541 125.606 76.607 125.361 77.1857C125.116 77.7644 124.996 78.4374 124.996 79.1985C124.996 79.7709 125.066 80.2993 125.198 80.7773C125.33 81.2554 125.543 81.6768 125.826 82.0354C126.109 82.3939 126.474 82.677 126.914 82.8657C127.36 83.0607 127.894 83.1676 128.517 83.1676H128.617V86.1743H128.466C126.838 86.1743 125.487 85.8849 124.399 85.3188C123.318 84.759 122.507 83.9539 121.96 82.9223C121.413 81.8907 121.143 80.6578 121.149 79.2237C121.149 78.0914 121.332 77.0913 121.684 76.2296C122.042 75.3678 122.545 74.6444 123.217 74.0657C123.89 73.487 124.695 73.0467 125.638 72.7574C126.524 72.4806 127.511 72.336 128.611 72.3171L128.617 72.3234ZM112.211 85.8912V82.8908C112.657 82.8216 113.04 82.7147 113.367 82.5637C113.952 82.2933 114.379 81.8907 114.643 81.356C114.907 80.8214 115.027 80.1609 115.027 79.3683C115.027 78.5066 114.876 77.7832 114.574 77.2045C114.272 76.6258 113.795 76.1918 113.154 75.9025C112.877 75.7767 112.563 75.6823 112.217 75.6068V72.5561C112.839 72.619 113.424 72.7259 113.977 72.8706C114.964 73.1348 115.825 73.5311 116.548 74.072C117.277 74.613 117.837 75.3112 118.233 76.1604C118.629 77.0095 118.836 78.016 118.836 79.1859C118.836 80.3559 118.648 81.356 118.277 82.2052C117.906 83.0544 117.371 83.7526 116.674 84.3124C115.976 84.8722 115.134 85.2748 114.14 85.5453C113.543 85.7088 112.896 85.822 112.204 85.8849H112.211V85.8912ZM69.2017 75.4747V72.4932H59.251V85.9478H63.0666V81.658H68.7806V78.8463H63.0666V75.4684H69.2017V75.4747ZM112.211 72.5687V75.6194C111.752 75.5251 111.236 75.481 110.658 75.481H109.401V82.9726H111.029C111.456 82.9726 111.852 82.9474 112.211 82.8908V85.8912C111.764 85.9353 111.293 85.9541 110.809 85.9541H105.61V72.4995H110.708C111.23 72.4995 111.727 72.5247 112.211 72.575V72.5687ZM84.9985 80.3559V72.4932H81.2269V80.3056C81.2269 81.0164 81.1326 81.5636 80.9503 81.9662C80.7617 82.3625 80.4726 82.6455 80.0703 82.8028C79.6742 82.9663 79.1651 83.0418 78.5428 83.0355C77.9079 83.0355 77.3861 82.9663 76.9901 82.8216C76.5941 82.677 76.3112 82.4316 76.1289 82.092C75.9466 81.746 75.8523 81.2805 75.8586 80.6956V72.4869H72.0179V80.7962C72.0179 81.6768 72.1499 82.4254 72.395 83.0544C72.6465 83.6771 72.9796 84.1929 73.4134 84.6017C73.8408 85.0106 74.3437 85.3314 74.8969 85.5641C75.4563 85.7906 76.0409 85.9604 76.6632 86.0485C77.2856 86.1491 77.9142 86.1932 78.5428 86.1869C79.1651 86.1869 79.7811 86.1365 80.3971 86.0359C81.0069 85.929 81.5915 85.7528 82.1384 85.4949C82.6915 85.2433 83.1818 84.8911 83.6093 84.4445C84.0367 83.9979 84.3699 83.4444 84.6213 82.765C84.8665 82.092 84.9922 81.2868 84.9985 80.3433V80.3559ZM101.92 85.9541V72.4995H98.1048V79.3306L98.2054 80.7585L92.6611 72.4995H88.4495V85.9541H92.2651V79.5948L92.0703 77.9153L97.6145 85.9541H101.927H101.92Z" fill="#98876C"/>
</g>
<defs>
<clipPath id="clip0_32_134">
<rect width="156" height="94" fill="white" transform="translate(22 53)"/>
</clipPath>
</defs>
</svg>
