<?xml version="1.0" encoding="UTF-8"?><svg id="Layer_1" xmlns="http://www.w3.org/2000/svg" viewBox="0 0 19.61 18.7"><defs><style>.cls-1{fill:#f4c20d;stroke-width:0px;}</style></defs><path class="cls-1" d="M10.25.3l2.34,5.71c.07.17.23.28.41.3l6.16.46c.43.03.61.57.28.85l-4.71,3.99c-.14.12-.2.31-.16.48l1.46,6c.1.42-.36.75-.72.53l-5.25-3.25c-.16-.1-.35-.1-.51,0l-5.25,3.25c-.37.23-.83-.11-.72-.53l1.46-6c.04-.18-.02-.36-.16-.48L.17,7.62c-.33-.28-.15-.82.28-.85l6.16-.46c.18-.01.34-.13.41-.3L9.36.3c.16-.4.73-.4.89,0Z"/></svg>