<svg width="199" height="199" viewBox="0 0 199 199" fill="none" xmlns="http://www.w3.org/2000/svg">
<g clip-path="url(#clip0_32_133)">
<path d="M149.771 128.225C157.672 128.225 161 125.351 161 117.047V103.094H152.951V118.965C152.951 120.926 152.107 122.496 149.771 122.496C147.435 122.496 146.578 120.926 146.578 118.965V103.094H138.541V117.047C138.541 125.351 141.876 128.225 149.771 128.225ZM88.1143 122.111H79.264L77.2425 127.685H68.953L76.9528 106.247C77.8095 103.919 79.1531 103.032 81.7416 103.032H85.6306C88.2191 103.032 89.575 103.919 90.4194 106.247L98.4192 127.685H90.1297L88.1082 122.111H88.1143ZM80.4966 117.084H86.8817L84.4411 108.953C84.3301 108.624 84.1884 108.456 83.6892 108.456C83.1899 108.456 83.0482 108.63 82.9496 108.953L80.4966 117.084ZM71.7819 103.1V108.624H64.9161V127.685H56.8424V108.624H49.9766V103.1H71.7819ZM39 103.1H47.0738V127.691H39V103.1ZM127.602 111.79C127.602 113.472 127.01 115.135 123.503 115.135H120.976V108.308H123.503C127.01 108.308 127.602 109.971 127.602 111.659V111.79ZM121.013 120.535H125.303C132.372 120.535 135.528 117.643 135.528 111.864C135.528 106.085 132.372 103.106 125.303 103.106H112.94V127.698H121.013V120.535ZM100.478 103.106H108.551V127.698H100.478V103.106Z" fill="#98876C"/>
<path d="M122.942 51H103.097V69.4466H122.942V51Z" fill="#98876C"/>
<path fill-rule="evenodd" clip-rule="evenodd" d="M103.005 74.0645H124.471L147.367 97.1227H116.841L103.005 74.0645Z" fill="#98876C"/>
<path d="M96.9401 51H77.0947V69.4466H96.9401V51Z" fill="#98876C"/>
<path fill-rule="evenodd" clip-rule="evenodd" d="M97.0324 74.0645H75.5661L52.6699 97.1227H83.1961L97.0324 74.0645Z" fill="#98876C"/>
<path d="M56.4171 143.637C56.4171 146.343 54.7653 147.696 51.4619 147.696H46.6731V134.004H51.4557C54.3339 134.004 55.7699 135.183 55.7699 137.535C55.7699 138.832 55.2522 139.745 54.223 140.266C54.1059 140.328 53.9395 140.372 53.7176 140.384C53.9087 140.384 54.0751 140.409 54.223 140.459C55.6775 140.974 56.4047 142.029 56.4047 143.63M54.26 137.529C54.26 136.666 53.9949 136.064 53.4587 135.729C53.0335 135.462 52.3679 135.332 51.4557 135.332H48.1523V139.807H51.6591C53.3971 139.807 54.2661 139.05 54.2661 137.523H54.26V137.529ZM54.9194 143.63C54.9194 141.986 53.8285 141.154 51.6529 141.154H48.1461V146.361H51.4496C52.7315 146.361 53.6313 146.157 54.1429 145.747C54.6606 145.337 54.9133 144.63 54.9133 143.63H54.9194ZM60.5217 147.69H59.0487V133.997H60.5217V147.69ZM74.5553 147.69H73.1562L64.9716 136.313C65.064 136.61 65.1071 136.89 65.1071 137.144V147.683H63.6341V133.991H65.0332L73.1871 145.325C73.1131 144.983 73.0761 144.735 73.0761 144.58V133.985H74.5491V147.69H74.5553ZM88.3608 147.69H86.7954L85.2299 143.432H79.6337L78.0683 147.69H76.5583L81.5936 133.997H83.3378L88.3546 147.69H88.3608ZM84.7245 142.054L82.8386 136.877C82.6907 136.461 82.5612 136.008 82.4441 135.506C82.327 136.021 82.1976 136.48 82.0497 136.877L80.1453 142.054H84.7307H84.7245ZM100.015 145.244C99.2203 147.081 97.6734 147.994 95.3745 147.994C93.2728 147.994 91.769 147.299 90.8754 145.921C90.142 144.785 89.7783 143.097 89.7783 140.837C89.7783 138.46 90.1666 136.71 90.9493 135.58C91.8183 134.326 93.2544 133.699 95.2451 133.699C96.7735 133.699 97.9507 134.097 98.7766 134.885C99.4607 135.53 99.8305 136.356 99.9044 137.343H98.5424C98.3328 135.81 97.2296 135.046 95.2266 135.046C93.5995 135.046 92.5086 135.593 91.9416 136.679C91.5163 137.486 91.3068 138.876 91.3068 140.837C91.3068 142.681 91.5287 144.028 91.9786 144.878C92.5949 146.051 93.7289 146.641 95.3745 146.641C97.0201 146.641 98.2527 145.939 98.8628 144.537L100.015 145.244ZM104.231 147.69H102.758V133.997H104.231V147.69ZM118.191 140.682C118.191 143.047 117.815 144.81 117.057 145.958C116.163 147.317 114.665 148 112.545 148C110.425 148 108.952 147.317 108.077 145.958C107.337 144.822 106.974 143.066 106.974 140.682C106.974 138.504 107.343 136.853 108.077 135.741C108.97 134.382 110.462 133.699 112.545 133.699C114.628 133.699 116.144 134.382 117.057 135.741C117.808 136.859 118.191 138.504 118.191 140.682ZM116.681 140.682C116.681 138.777 116.397 137.386 115.83 136.524C115.195 135.537 114.098 135.046 112.545 135.046C110.992 135.046 109.913 135.537 109.285 136.53C108.742 137.38 108.471 138.764 108.471 140.682C108.471 142.768 108.742 144.263 109.291 145.151C109.901 146.15 110.986 146.647 112.539 146.647C114.092 146.647 115.195 146.15 115.824 145.151C116.391 144.251 116.674 142.761 116.674 140.682H116.681ZM131.848 147.69H130.449L122.264 136.313C122.357 136.61 122.4 136.89 122.4 137.144V147.683H120.927V133.991H122.326L130.48 145.325C130.406 144.983 130.369 144.735 130.369 144.58V133.985H131.842V147.69H131.848ZM145.654 147.69H144.088L142.523 143.432H136.927L135.361 147.69H133.851L138.886 133.997H140.631L145.647 147.69H145.654ZM142.017 142.054L140.131 136.877C139.984 136.461 139.854 136.008 139.737 135.506C139.62 136.021 139.49 136.48 139.343 136.877L137.438 142.054H142.024H142.017ZM155.361 147.69H147.669V133.997H149.142V146.361H155.367V147.69H155.361Z" fill="#98876C"/>
</g>
<defs>
<clipPath id="clip0_32_133">
<rect width="122" height="97" fill="white" transform="translate(39 51)"/>
</clipPath>
</defs>
</svg>
