<?xml version="1.0" encoding="utf-8"?>
<!-- Generator: Adobe Illustrator 28.1.0, SVG Export Plug-In . SVG Version: 6.00 Build 0)  -->
<svg version="1.1" id="Layer_1" xmlns="http://www.w3.org/2000/svg" xmlns:xlink="http://www.w3.org/1999/xlink" x="0px" y="0px"
	 viewBox="0 0 131 89" style="enable-background:new 0 0 131 89;" xml:space="preserve">
<style type="text/css">
	.st0{clip-path:url(#SVGID_00000170250709578021272410000005651908534366041498_);}
	.st1{fill:#98876C;}
</style>
<g>
	<defs>
		<rect id="SVGID_1_" width="131" height="89"/>
	</defs>
	<clipPath id="SVGID_00000008832864189787933530000009885923040198787236_">
		<use xlink:href="#SVGID_1_"  style="overflow:visible;"/>
	</clipPath>
	<g style="clip-path:url(#SVGID_00000008832864189787933530000009885923040198787236_);">
		<path class="st1" d="M53.9,17.4c-3.6,7.1-0.6,12.3-0.6,12.3c2.5,6.4,9.7,10.9,9.7,10.9s-7.1,0.1-16-2.8c0,0-10.3-3.1-10.4-9.3
			c0,0-0.4-3.7,5.5-7.1C46.7,18.7,53.9,17.4,53.9,17.4z"/>
		<path class="st1" d="M63,40.6c0,0,0.3-2,2.3-4.6c1.2-1.5,2.8-3.3,4.8-5.2l3.4-2.9c7-5.1,12.3-10,10.5-18.4c-1.1-5-6.3-9.5-6.3-9.5
			s0.5,3.1-7.8,8.5c-4.5,2.6-8,5.3-10,7.8c-3.1,3.9-3.5,7.3-3.5,7.3C54.9,33,63.1,40.6,63,40.6L63,40.6z"/>
		<path class="st1" d="M91.8,22c-1.9-1.6-8.7-3.7-8.7-3.7l0,0c-1.8,3.6-5.4,6.6-9.5,9.6l-3.4,2.9c-2,1.9-3.6,3.7-4.8,5.2
			c-2,2.6-2.3,4.6-2.3,4.6s11.3,0.7,19.8-1.9c0,0,10.6-2.4,13.1-8.1C95.9,30.6,98.2,26.3,91.8,22z"/>
		<path class="st1" d="M4.3,50.3H0v29.3h4.3V50.3z"/>
		<path class="st1" d="M12.6,59.4H8.4v20.1h4.3V59.4z"/>
		<path class="st1" d="M10.4,55.6c1.5,0,2.8-1.2,2.8-2.7c0-1.5-1.2-2.7-2.8-2.7c-1.5,0-2.8,1.2-2.8,2.7C7.6,54.4,8.9,55.6,10.4,55.6
			z"/>
		<path class="st1" d="M25.9,58.9c-4.3,0-6.6,2.3-6.6,2.3c-3,2.7-3.3,6.3-3.3,6.3c-0.7,5.2,1.5,8.2,1.5,8.2c2,3.3,5.3,4.1,5.3,4.1
			c2.9,0.9,5.6,0,5.6,0c2.3-0.6,4.1-3.2,4.1-3.2l0,12.1h4.3V59.4H33l-0.4,3.1c0,0-1.4-3.1-5.8-3.6C26.5,58.9,26.2,58.9,25.9,58.9
			L25.9,58.9z M26.5,62.6c1.2,0,4.4,0.4,5.7,4.4c0,0,1.6,5.2-2.3,8.2c0,0-3.1,2.2-6.7,0.2c0,0-3.4-1.7-3.1-7.1c0,0,0.6-5.4,5.9-5.7
			C26,62.6,26.2,62.6,26.5,62.6L26.5,62.6z"/>
		<path class="st1" d="M55.1,79.6h3.7V59.3h-4.3v10c0.2,3.6-1.4,5.2-1.4,5.2c-1.8,2.1-4.1,1.8-4.1,1.8c-3,0-3.8-2-3.8-2
			c-0.8-1-0.8-3.5-0.8-3.5V59.4h-4.3v10.1C39.6,80.1,46.7,80,46.7,80c4.1,0.7,6.7-2.1,6.7-2.1c0.9-0.9,1.3-1.8,1.3-1.8L55.1,79.6
			L55.1,79.6z"/>
		<path class="st1" d="M67.1,59.5h-4.3v20.1h4.3V59.5z"/>
		<path class="st1" d="M64.9,55.7c1.5,0,2.8-1.2,2.8-2.7c0-1.5-1.2-2.7-2.8-2.7c-1.5,0-2.8,1.2-2.8,2.7
			C62.1,54.5,63.4,55.7,64.9,55.7z"/>
		<path class="st1" d="M100.4,58.9c-4.3,0-6.6,2.3-6.6,2.3c-3,2.7-3.3,6.3-3.3,6.3c-0.7,5.2,1.5,8.2,1.5,8.2c2,3.3,5.3,4.1,5.3,4.1
			c2.9,0.9,5.6,0,5.6,0c2.3-0.6,4.1-3.2,4.1-3.2l0.3,3.1h3.9V59.4h-3.8l-0.4,3.1c0,0-1.4-3.1-5.8-3.6
			C101,58.9,100.7,58.9,100.4,58.9z M101,62.7c1.2,0,4.4,0.4,5.7,4.4c0,0,1.6,5.2-2.3,8.2c0,0-3.1,2.2-6.7,0.2c0,0-3.4-1.7-3.1-7.1
			c0,0,0.6-5.4,5.9-5.7C100.6,62.7,100.8,62.7,101,62.7z"/>
		<path class="st1" d="M114,73.2h4.3c0,0,0.6,2.7,3.2,3.2c0,0,2.9,0.7,4.5-0.8c0,0,1.5-1.7,0.1-3.3c-1.2-1.2-4.1-1.3-5.9-2
			c0,0-5.2-1.2-5.3-4.7c0,0-0.6-4,3.4-5.9c2.8-1.4,6.4-0.7,6.4-0.7c3.3,0.6,4.6,2.9,4.6,2.9c0.7,0.9,1.1,3.1,1.1,3.1h-4.1
			c0,0-0.2-2.4-3.4-2.7c0,0-2.6-0.3-3.6,1.4c-1.2,2.5,2.2,3.2,2.2,3.2c0.4,0.4,6.7,1.3,8.3,3.2c0,0,1.4,1.3,1.1,4.4
			c0,0-0.2,2.5-2.7,4.1c0,0-2.1,1.5-6,1.3c0,0-3.6,0-6-2.3C116.3,77.7,114.4,76.4,114,73.2L114,73.2z"/>
		<path class="st1" d="M99,54.7v3.2l8.7-4.6v-3.6L99,54.7z"/>
		<path class="st1" d="M78.9,58.9c-0.1,0-0.1,0-0.2,0c-3.4,0.2-4.8,1.7-4.8,1.7c-2.5,1.9-2.7,4.7-2.7,4.7c-0.3,4.2,2.2,6.2,2.2,6.2
			l-3.4,3.6v1c1.5,1.3,2.6,1.6,2.6,1.6c-1.9,1.4-2.4,3.1-2.4,3.1c-1.3,4,1.6,6.3,1.6,6.3c2.8,2,6,1.9,6,1.9c5.2,0.4,7.4-1.4,7.4-1.4
			c3.2-2.1,2.9-5.6,2.9-5.6c0-3.6-3.2-5-3.2-5s-2-0.9-4.8-1c-4.7-0.3-5.5-1.1-5.5-1.1l1.7-1.7c0,0,2.4,0.7,5,0.1
			c2.4-0.5,4-2.1,4-2.1c1.7-1.9,1.8-3.9,1.8-3.9c0.4-2.4-0.8-4.7-0.8-4.7l3.5-0.2v-2.9h-7.4c0,0-1.4-0.5-3.3-0.5
			C79,58.9,79,58.9,78.9,58.9L78.9,58.9z M79.3,62.3c0.8,0,3,0.2,3.9,2.5c0,0,1.1,2.9-1.5,4.7c0,0-2.1,1.2-4.5,0.1c0,0-2.3-1-2.1-4
			c0,0,0.4-3.1,4-3.3C79,62.3,79.1,62.3,79.3,62.3L79.3,62.3z M76.4,78.7c0.3,0.2,3.5,0.4,3.5,0.4c2.7,0.2,3.4,1.1,3.4,1.1
			c1.5,1.4,0.6,3.2,0.6,3.2c-0.7,1.5-2.6,1.9-2.6,1.9c-2.8,0.7-5.2-0.3-5.2-0.3c-2-0.8-2.1-2.5-2.1-2.5C73.7,81,74.7,80,74.7,80
			C75.5,79,76.4,78.7,76.4,78.7L76.4,78.7z"/>
	</g>
</g>
</svg>
