<?xml version="1.0" encoding="UTF-8"?><svg id="Layer_1" xmlns="http://www.w3.org/2000/svg" viewBox="0 0 487.61 103.75"><defs><style>.cls-1{fill:#98876c;stroke-width:0px;}</style></defs><path class="cls-1" d="M431.99,103.61c-.92,0-1.7-.31-2.35-.94-.65-.63-.98-1.39-.97-2.29-.01-.87.31-1.62.97-2.25.65-.63,1.44-.94,2.35-.94s1.65.31,2.31.94c.66.63.99,1.38,1,2.25,0,.59-.16,1.14-.47,1.62-.32.5-.71.88-1.21,1.16-.49.29-1.04.44-1.63.44"/><path class="cls-1" d="M453.39,73.3h5.55v21.09c0,1.94-.44,3.6-1.27,4.99-.84,1.39-2.01,2.46-3.5,3.21-1.49.74-3.23,1.12-5.21,1.12-1.81,0-3.43-.32-4.88-.95-1.44-.63-2.59-1.57-3.43-2.8-.85-1.24-1.26-2.78-1.26-4.63h5.56c0,.81.2,1.51.56,2.1.35.59.85,1.03,1.48,1.34.64.31,1.37.47,2.19.47.89,0,1.66-.18,2.28-.55.62-.36,1.09-.91,1.43-1.63.32-.72.49-1.61.5-2.66v-21.09Z"/><path class="cls-1" d="M481.8,81.54c-.14-1.28-.73-2.28-1.77-2.99-1.04-.72-2.39-1.07-4.05-1.07-1.17,0-2.17.17-3,.51-.83.35-1.48.81-1.92,1.39-.44.58-.66,1.25-.68,2,0,.63.15,1.17.45,1.62.29.46.7.85,1.21,1.16.51.32,1.08.59,1.7.8.63.22,1.26.4,1.89.54l2.9.7c1.16.26,2.29.62,3.37,1.07,1.08.44,2.05,1.01,2.91,1.7.86.69,1.54,1.51,2.04,2.47.5.97.76,2.1.76,3.4,0,1.76-.46,3.3-1.39,4.63-.93,1.33-2.26,2.37-4.01,3.12-1.74.74-3.85,1.12-6.32,1.12s-4.49-.36-6.24-1.09c-1.77-.72-3.14-1.77-4.14-3.16-.99-1.39-1.53-3.08-1.6-5.06h5.5c.08,1.04.42,1.9,1,2.61.59.69,1.35,1.2,2.29,1.55.94.34,1.99.51,3.16.51s2.28-.18,3.21-.54c.92-.35,1.64-.85,2.16-1.49.53-.63.79-1.38.8-2.24,0-.78-.24-1.43-.7-1.95-.47-.51-1.11-.94-1.94-1.29-.83-.35-1.8-.66-2.9-.93l-3.52-.87c-2.54-.64-4.55-1.6-6.02-2.9-1.48-1.29-2.21-3.01-2.21-5.16,0-1.76.49-3.32,1.49-4.64.99-1.33,2.33-2.36,4.04-3.09,1.72-.74,3.65-1.1,5.81-1.1s4.11.36,5.76,1.1c1.66.74,2.96,1.76,3.9,3.06.95,1.3,1.44,2.8,1.46,4.49h-5.39Z"/><polygon class="cls-1" points="339.67 .04 428.67 .04 428.67 16.47 393.36 16.47 393.36 102.89 375.71 102.89 375.71 16.47 339.67 16.47 339.67 .04"/><polygon class="cls-1" points="193.3 .04 193.3 16.47 121.96 16.47 121.96 42.9 179.33 42.9 179.33 59.32 121.96 59.32 121.96 86.46 193.3 86.46 193.3 102.89 104.3 102.89 104.3 16.47 104.3 16.47 104.3 .04 193.3 .04"/><polygon class="cls-1" points="237.74 .09 214.63 .09 297.38 102.93 320.55 102.93 279.17 51.54 320.48 .16 297.38 .2 267.6 37.18 237.74 .09"/><polygon class="cls-1" points="261.44 73.55 249.87 59.17 214.57 103.01 237.74 103.01 261.44 73.55"/><polygon class="cls-1" points="104.92 102.89 22.07 0 0 0 0 102.85 17.65 102.85 17.65 21.98 82.75 102.89 104.92 102.89"/></svg>