<?xml version="1.0" encoding="UTF-8"?><svg id="Layer_1" xmlns="http://www.w3.org/2000/svg" viewBox="0 0 199.26 118.68"><defs><style>.cls-1{fill:#fff;}.cls-1,.cls-2{fill-rule:evenodd;}.cls-1,.cls-2,.cls-3{stroke-width:0px;}.cls-2,.cls-3{fill:#98876c;}</style></defs><path class="cls-3" d="M30.61,93.25c-1.29-1.22-3.63-1.84-6.96-1.84h-9.58v27.26h6.5v-10.78h3.46c1.97,0,3.35-.13,4.21-.41.87-.28,1.64-.75,2.29-1.4.66-.65,1.17-1.54,1.52-2.64.34-1.09.51-2.36.51-3.76,0-3.04-.65-5.2-1.94-6.43M20.5,96.04h2.23c1.36,0,2.29.25,2.77.74.48.49.73,1.42.73,2.76,0,1.41-.26,2.38-.78,2.88-.52.5-1.6.76-3.23.76h-1.72v-7.14Z"/><path class="cls-3" d="M54.38,91.41h-7.74l-7.9,27.01-.07.26h6.3l1.47-5.97h7.76l1.49,5.97h6.56l-7.86-27.26ZM53.03,108.17h-5.42l2.79-10.6,2.63,10.6Z"/><path class="cls-3" d="M90.04,118.41c-.25-.7-.43-1.49-.55-2.36h0c-.12-.87-.18-1.92-.18-3.13,0-.14,0-.36.03-.66.02-.31.03-.54.03-.69,0-2.37-.31-3.94-.95-4.79-.54-.72-1.47-1.26-2.78-1.61,1.13-.4,1.98-1.05,2.52-1.93.64-1.05.96-2.64.96-4.73,0-2.66-.64-4.53-1.91-5.56-1.26-1.02-3.64-1.54-7.09-1.54h-8.49v27.26h6.26v-11.07h2.23c1.05,0,1.81.25,2.24.75.45.51.69,1.42.73,2.7.01.5.03,1.2.04,2.11.03,2.71.17,4.47.44,5.37l.04.14h6.51l-.09-.27ZM77.9,96h1.34c1.54,0,2.58.24,3.09.7.51.46.77,1.36.77,2.67s-.29,2.31-.85,2.84c-.57.53-1.62.8-3.12.8h-1.23v-7.01Z"/><path class="cls-3" d="M113.92,91.41h-7.74l-7.9,27.01-.07.26h6.3l1.47-5.97h7.76l1.49,5.97h6.56l-7.86-27.26ZM112.57,108.17h-5.42l2.79-10.6,2.63,10.6Z"/><path class="cls-3" d="M146.46,91.41l.34,15.68c0,1.48.04,2.88.11,4.15.02.32.04.64.06.95-.18-.64-.37-1.29-.57-1.93-.48-1.54-1.05-3.15-1.68-4.77l-5.38-14.08h-8.18v27.26h5.77l-.33-16.21c-.01-.9-.06-2.01-.13-3.29-.04-.71-.09-1.5-.16-2.35.31,1.07.61,2.09.9,3.04.48,1.54.93,2.88,1.35,3.98l5.7,14.83h7.99v-27.26h-5.81Z"/><path class="cls-3" d="M177.33,91.41h-7.74l-7.9,27.01-.07.26h6.3l1.47-5.97h7.76l1.49,5.97h6.56l-7.86-27.26ZM175.98,108.17h-5.42l2.79-10.6,2.63,10.6Z"/><polygon class="cls-3" points="179.42 82.36 173.97 82.36 170.02 89.48 173.15 89.48 179.42 82.36"/><polygon class="cls-2" points="71.61 79.86 105.42 0 139.23 79.86 71.61 79.86"/><path class="cls-2" d="M42.68,32.31c-15.37-4.67-36.93-3.82-41.05-3.58.61-2.08,1.39-4.08,2.31-6,5.89-.32,25.03-.76,40.45,3.93,14.45,4.39,29.03,13.73,34.98,17.85.17-1.5.27-3.03.27-4.58C79.65,17.93,61.82.1,39.83.1S0,17.93,0,39.93s17.83,39.83,39.83,39.83c18.2,0,33.54-12.22,38.29-28.89-3.02-2.18-19.65-13.75-35.44-18.55Z"/><path class="cls-2" d="M142.5.19v79.67h37.76c21.16-5.73,28.94-34.02.66-45.53C194.58,18.21,177.23.19,169.34.19h-26.84Z"/><polygon class="cls-1" points="54.76 25.82 53.68 26.87 53.98 28.34 52.65 27.64 51.34 28.38 51.6 26.89 50.49 25.88 51.98 25.67 52.61 24.3 53.27 25.65 54.76 25.82"/><polygon class="cls-1" points="50.49 37.23 49.7 37.94 49.88 38.99 48.95 38.46 48.01 38.95 48.23 37.9 47.47 37.16 48.53 37.04 49.01 36.09 49.44 37.07 50.49 37.23"/><polygon class="cls-1" points="9.49 33.06 8.35 34.08 8.6 35.59 7.27 34.83 5.91 35.53 6.23 34.03 5.14 32.96 6.66 32.8 7.35 31.43 7.97 32.83 9.49 33.06"/><polygon class="cls-1" points="12.61 49.67 11.53 50.65 11.77 52.08 10.51 51.35 9.21 52.02 9.52 50.6 8.48 49.57 9.93 49.42 10.58 48.12 11.17 49.45 12.61 49.67"/><polygon class="cls-1" points="8.33 53.26 7.39 54.11 7.59 55.36 6.5 54.73 5.37 55.31 5.64 54.07 4.74 53.18 6 53.05 6.56 51.91 7.08 53.07 8.33 53.26"/><polygon class="cls-1" points="18.69 57.58 17.94 58.29 18.13 59.31 17.22 58.81 16.31 59.31 16.5 58.29 15.74 57.57 16.78 57.44 17.22 56.5 17.66 57.44 18.69 57.58"/><polygon class="cls-1" points="20.36 53.37 19.41 54.27 19.65 55.56 18.5 54.93 17.34 55.56 17.59 54.27 16.63 53.37 17.94 53.2 18.5 52.01 19.06 53.2 20.36 53.37"/><polygon class="cls-1" points="25.01 61.57 23.97 62.55 24.23 63.95 22.98 63.26 21.73 63.95 21.99 62.55 20.96 61.57 22.37 61.39 22.98 60.1 23.59 61.39 25.01 61.57"/><polygon class="cls-1" points="25.89 41.49 24.98 42.33 25.19 43.55 24.11 42.95 23.01 43.53 23.26 42.31 22.36 41.45 23.59 41.31 24.14 40.19 24.66 41.32 25.89 41.49"/><polygon class="cls-1" points="41.81 46.78 40.9 47.62 41.11 48.84 40.03 48.24 38.93 48.82 39.17 47.6 38.28 46.74 39.51 46.6 40.06 45.48 40.58 46.61 41.81 46.78"/><polygon class="cls-1" points="45.3 50.2 44.36 51.02 44.54 52.25 43.48 51.61 42.36 52.16 42.64 50.95 41.77 50.06 43.01 49.95 43.59 48.85 44.07 49.99 45.3 50.2"/><polygon class="cls-1" points="36 50.79 35.22 51.5 35.4 52.54 34.49 52.02 33.55 52.51 33.77 51.48 33.01 50.75 34.06 50.63 34.52 49.69 34.96 50.64 36 50.79"/><polygon class="cls-1" points="38.5 52.94 37.89 53.49 38.03 54.3 37.32 53.9 36.59 54.28 36.76 53.48 36.17 52.9 36.98 52.81 37.35 52.07 37.69 52.82 38.5 52.94"/><polygon class="cls-1" points="15.06 47.26 14.57 47.71 14.69 48.37 14.11 48.04 13.52 48.35 13.65 47.7 13.18 47.23 13.84 47.16 14.13 46.56 14.41 47.17 15.06 47.26"/><polygon class="cls-1" points="42.01 58.2 40.87 59.24 41.13 60.75 39.8 59.99 38.44 60.71 38.74 59.2 37.64 58.13 39.17 57.96 39.85 56.58 40.49 57.98 42.01 58.2"/><polygon class="cls-1" points="49.56 62.45 48.76 63.18 48.94 64.24 48.01 63.71 47.05 64.21 47.27 63.16 46.5 62.41 47.57 62.29 48.04 61.32 48.49 62.3 49.56 62.45"/><polygon class="cls-1" points="41 71.36 40.59 71.91 40.83 72.55 40.18 72.32 39.64 72.75 39.65 72.06 39.08 71.68 39.74 71.48 39.93 70.82 40.32 71.39 41 71.36"/><polygon class="cls-1" points="52.94 67.21 52.15 68 52.38 69.09 51.39 68.58 50.42 69.14 50.6 68.04 49.76 67.29 50.87 67.12 51.33 66.09 51.83 67.1 52.94 67.21"/><polygon class="cls-1" points="56.33 63.44 55.59 64.17 55.81 65.19 54.88 64.71 53.98 65.24 54.15 64.21 53.38 63.51 54.4 63.35 54.83 62.4 55.29 63.33 56.33 63.44"/><polygon class="cls-1" points="61.08 62.4 60.33 63.14 60.55 64.15 59.63 63.68 58.73 64.2 58.89 63.17 58.12 62.47 59.15 62.32 59.57 61.37 60.04 62.29 61.08 62.4"/><polygon class="cls-1" points="64.84 62.44 64.17 63.15 64.41 64.1 63.52 63.69 62.69 64.21 62.81 63.24 62.06 62.61 63.02 62.42 63.39 61.51 63.86 62.37 64.84 62.44"/><polygon class="cls-1" points="68.87 60.87 67.99 61.71 68.22 62.91 67.15 62.33 66.09 62.92 66.31 61.73 65.42 60.9 66.62 60.74 67.13 59.64 67.66 60.73 68.87 60.87"/><polygon class="cls-1" points="70.93 57.82 70.05 58.66 70.29 59.85 69.22 59.28 68.15 59.87 68.37 58.67 67.48 57.84 68.68 57.68 69.19 56.58 69.72 57.67 70.93 57.82"/><polygon class="cls-1" points="69.71 53.48 68.66 54.48 68.94 55.91 67.66 55.22 66.38 55.93 66.64 54.5 65.58 53.51 67.02 53.31 67.63 51.99 68.26 53.3 69.71 53.48"/><polygon class="cls-1" points="74.71 54.16 74.04 54.8 74.22 55.7 73.41 55.27 72.6 55.72 72.76 54.81 72.09 54.18 73 54.06 73.39 53.22 73.79 54.05 74.71 54.16"/><polygon class="cls-1" points="61.71 66.35 60.75 67.27 61 68.58 59.83 67.95 58.67 68.6 58.9 67.29 57.93 66.38 59.25 66.2 59.81 64.99 60.39 66.19 61.71 66.35"/><polygon class="cls-1" points="61.25 70.51 60.52 71.21 60.72 72.2 59.83 71.72 58.95 72.21 59.13 71.22 58.39 70.53 59.39 70.4 59.81 69.48 60.25 70.39 61.25 70.51"/><path class="cls-3" d="M4.25,25.66c.05-.27.13-.5.26-.69.09-.14.21-.27.34-.38.14-.12.28-.21.43-.27.2-.08.42-.13.66-.15.44-.03.77.07.99.3.22.23.29.56.21.99-.08.43-.27.77-.58,1.03-.3.26-.68.4-1.11.43-.44.03-.77-.06-.99-.28-.22-.22-.29-.54-.22-.96M4.87,25.59c-.05.3-.02.52.11.66.13.14.31.21.55.19.24-.02.45-.11.63-.27.18-.16.3-.4.36-.71.06-.3.02-.52-.1-.66-.12-.14-.31-.2-.56-.18-.25.02-.46.11-.64.27-.18.16-.3.4-.35.7"/><path class="cls-3" d="M7.37,26.74c.2-1.06.29-1.59.49-2.65.51-.03.76-.04,1.27-.06.32-.01.55,0,.68.05.14.04.24.12.3.24.06.12.08.26.05.41-.04.2-.14.36-.29.5-.16.13-.37.22-.64.26.12.06.21.13.28.21.07.08.16.22.26.42.11.2.16.3.26.51-.29,0-.43.01-.72.02-.13-.22-.19-.34-.32-.56-.12-.2-.2-.33-.24-.38-.05-.05-.1-.09-.16-.1-.06-.02-.16-.02-.3-.02-.05,0-.07,0-.12,0-.08.44-.12.66-.21,1.11-.24.01-.36.02-.6.03M8.25,25.18c.18,0,.27-.01.45-.02.29-.01.47-.03.55-.05.08-.02.14-.06.19-.12.05-.05.08-.12.1-.2.02-.09,0-.16-.04-.21-.04-.05-.11-.09-.21-.1-.05,0-.19,0-.44,0-.19,0-.28.01-.47.02-.05.27-.08.4-.13.67"/><path class="cls-3" d="M10.87,23.98c.44-.01.66-.01,1.1-.02.25,0,.43.01.56.05.17.04.3.13.4.24.1.12.17.26.2.43.03.17.02.38-.03.63-.04.22-.11.41-.2.56-.11.19-.25.35-.41.47-.12.09-.28.16-.46.21-.14.04-.32.06-.54.06-.45,0-.68,0-1.13.02.21-1.06.31-1.59.51-2.65M11.38,24.42c-.14.7-.21,1.05-.34,1.75.18,0,.27,0,.45,0,.17,0,.29-.01.37-.03.1-.02.19-.06.26-.11.07-.05.14-.14.21-.26.06-.12.12-.28.16-.49.04-.2.05-.36.03-.47-.02-.11-.06-.19-.12-.26-.06-.06-.15-.1-.25-.12-.08-.02-.24-.02-.49-.02-.11,0-.16,0-.27,0"/><path class="cls-3" d="M13.35,26.6c.21-1.06.32-1.59.54-2.65.88,0,1.33.01,2.21.03-.04.18-.06.27-.09.45-.64-.02-.96-.02-1.6-.03-.05.23-.07.35-.12.59.6,0,.89.01,1.49.03-.04.18-.06.27-.09.45-.6-.01-.89-.02-1.49-.03-.06.29-.09.43-.15.72.66,0,.99.01,1.65.03-.04.18-.06.27-.09.45-.9-.02-1.35-.03-2.25-.04"/><path class="cls-3" d="M16.09,26.65c.22-1.06.33-1.59.56-2.65.36.01.54.02.9.03.06.73.09,1.1.15,1.83.37-.71.55-1.07.92-1.78.36.02.54.03.9.05-.23,1.06-.35,1.59-.58,2.65-.22-.01-.33-.02-.55-.03.18-.83.27-1.25.45-2.08-.42.82-.62,1.23-1.04,2.05-.23-.01-.34-.02-.57-.03-.06-.84-.08-1.26-.14-2.11-.18.83-.26,1.25-.44,2.08-.22,0-.33-.01-.55-.02"/><path class="cls-3" d="M21.26,24.25c.44.03.66.05,1.09.09.25.02.43.05.55.1.16.06.29.16.39.28.1.13.16.28.18.46.03.17,0,.39-.05.63-.05.22-.12.4-.22.55-.12.19-.26.33-.42.44-.12.08-.28.14-.46.17-.14.03-.32.03-.54,0-.45-.04-.67-.06-1.12-.09.24-1.06.35-1.59.59-2.65M21.76,24.74c-.16.7-.24,1.05-.39,1.75.18.01.27.02.44.04.17.01.29.02.36,0,.1-.01.19-.04.26-.09.07-.05.15-.13.21-.24.07-.11.12-.27.17-.48.05-.2.06-.36.05-.48-.01-.11-.05-.2-.11-.27-.06-.07-.14-.12-.25-.15-.08-.02-.24-.05-.48-.07-.11,0-.16-.01-.27-.02"/><path class="cls-3" d="M23.82,25.84c.06-.27.16-.49.29-.66.1-.13.22-.24.36-.33.14-.09.29-.16.44-.2.2-.05.42-.06.66-.03.43.05.75.21.95.49.2.27.25.63.15,1.06-.1.43-.31.74-.62.95-.31.21-.68.29-1.11.24-.43-.05-.75-.21-.95-.47-.2-.27-.25-.61-.16-1.03M24.43,25.88c-.07.3-.05.53.07.71.12.17.29.27.53.3.24.03.45-.03.63-.16.19-.14.32-.36.39-.66.07-.3.05-.54-.06-.7-.11-.17-.29-.26-.54-.29-.24-.03-.46.03-.64.16-.19.13-.31.35-.38.66"/><path class="cls-3" d="M26.87,26.65c.23,0,.35.02.59.03,0,.18.03.32.12.41.09.1.22.16.4.18.19.03.34.01.45-.05.11-.06.18-.14.21-.23.02-.06,0-.12-.02-.17-.03-.05-.09-.1-.18-.15-.06-.03-.21-.09-.44-.18-.3-.12-.5-.23-.6-.35-.14-.17-.19-.36-.14-.57.03-.13.11-.25.22-.36.11-.11.26-.18.43-.22.17-.04.37-.04.6-.01.37.05.63.17.78.34.15.17.2.38.15.63-.24-.03-.36-.04-.6-.07,0-.14-.02-.24-.09-.32-.07-.07-.19-.12-.35-.14-.17-.02-.31-.01-.43.04-.07.03-.12.08-.13.15-.01.06,0,.12.05.17.06.07.23.15.5.25.27.1.47.2.59.28.12.09.21.19.26.32.05.13.05.27.01.44-.04.15-.12.29-.24.4-.13.12-.28.2-.47.23-.18.04-.4.04-.66,0-.37-.05-.63-.17-.79-.35-.16-.18-.22-.42-.19-.72"/><path class="cls-3" d="M33.1,28.56c-.25-.05-.38-.07-.63-.12-.04-.26-.06-.39-.1-.65-.46-.09-.69-.13-1.16-.21-.16.22-.23.33-.39.56-.25-.04-.37-.06-.62-.1.72-.98,1.07-1.47,1.8-2.44.25.04.37.07.62.11.2,1.14.29,1.71.48,2.85M32.29,27.31c-.06-.42-.09-.63-.15-1.05-.26.36-.39.54-.64.91.32.06.47.08.79.14"/><path class="cls-3" d="M34.09,25.98c.43.08.64.13,1.07.22.24.05.42.11.54.17.16.08.28.19.37.34.09.14.14.3.16.49.02.18,0,.4-.07.64-.06.22-.14.4-.24.54-.12.18-.27.31-.43.4-.12.07-.28.11-.46.12-.14,0-.31,0-.53-.05-.44-.09-.66-.14-1.09-.22.27-1.05.41-1.58.68-2.63M34.56,26.55c-.18.7-.27,1.05-.46,1.74.17.04.26.05.43.09.16.03.28.05.36.05.1,0,.19-.02.26-.06.08-.04.15-.11.22-.22.07-.11.13-.27.19-.47.05-.2.08-.36.07-.48-.01-.12-.04-.21-.1-.29-.05-.08-.13-.14-.24-.18-.08-.03-.23-.08-.47-.12-.1-.02-.16-.03-.26-.05"/><path class="cls-3" d="M37.03,29.4c-.12-1.15-.19-1.72-.32-2.86.25.06.38.09.63.14.08.85.12,1.27.2,2.11.49-.71.74-1.07,1.23-1.77.25.06.37.09.61.15-.7.95-1.05,1.42-1.74,2.37-.25-.06-.37-.09-.62-.15"/><path class="cls-3" d="M39.2,28.54c.07-.27.18-.48.32-.64.1-.12.22-.21.37-.29.14-.08.29-.12.44-.14.2-.02.41,0,.64.06.42.11.72.32.91.63.18.31.21.68.09,1.1-.12.42-.34.72-.65.89-.32.17-.68.2-1.1.09-.42-.11-.72-.32-.91-.62-.18-.3-.22-.66-.1-1.08M39.8,28.68c-.08.3-.07.54.03.73.11.19.27.32.5.38.23.06.44.04.63-.08.19-.11.33-.32.41-.62.09-.3.08-.54-.02-.73-.1-.19-.27-.31-.51-.38-.24-.06-.45-.04-.64.07-.19.11-.32.32-.41.62"/><path class="cls-3" d="M43.63,30.12c.05-.18.08-.26.13-.44.49.15.74.22,1.23.38-.12.42-.18.62-.31,1.04-.15.07-.35.11-.6.12-.25.01-.49-.02-.72-.09-.29-.09-.53-.22-.72-.4-.19-.18-.3-.39-.35-.64-.05-.24-.04-.49.03-.74.08-.27.21-.5.39-.67.18-.18.41-.29.68-.33.21-.03.45-.01.72.07.35.11.61.26.76.45.16.2.23.42.21.68-.24-.03-.36-.05-.59-.08,0-.14-.05-.26-.14-.37-.09-.11-.21-.19-.38-.24-.25-.07-.47-.06-.66.04-.19.1-.33.3-.41.59-.09.31-.08.57.02.76.1.2.28.33.52.41.12.04.24.05.38.04.13,0,.25-.03.35-.06.04-.13.06-.2.1-.33-.26-.08-.39-.12-.65-.2"/><path class="cls-3" d="M47.6,32.45c-.24-.08-.37-.13-.61-.21-.03-.27-.04-.4-.06-.67-.45-.15-.67-.22-1.12-.37-.16.21-.24.31-.41.52-.24-.08-.36-.12-.6-.19.74-.91,1.12-1.36,1.87-2.26.24.08.36.12.6.2.14,1.19.2,1.79.33,2.99M46.88,31.07c-.04-.44-.06-.66-.1-1.1-.27.34-.4.51-.67.84.3.1.46.15.76.25"/><path class="cls-3" d="M48.68,29.95c.41.14.62.22,1.03.36.23.08.4.16.51.24.15.1.26.24.34.39.08.16.12.33.13.52,0,.19-.02.4-.1.65-.07.21-.15.39-.26.52-.13.16-.27.28-.44.35-.12.05-.28.07-.46.06-.13,0-.3-.05-.51-.12-.42-.15-.63-.23-1.05-.37.32-1.04.48-1.56.79-2.6M49.11,30.59c-.21.69-.32,1.03-.53,1.72.17.06.25.09.42.15.16.06.27.09.35.1.1.01.18,0,.26-.03.08-.03.15-.09.22-.2.07-.1.14-.25.2-.46.06-.2.09-.36.09-.48,0-.12-.03-.22-.08-.31-.05-.09-.12-.16-.22-.22-.07-.04-.22-.11-.45-.19-.1-.04-.15-.05-.25-.09"/><path class="cls-3" d="M50.96,32.25c.08-.26.19-.47.33-.62.1-.11.23-.19.37-.26.14-.06.28-.1.43-.1.19,0,.4.04.63.13.41.16.69.41.86.74.17.33.18.71.05,1.14-.13.42-.36.7-.67.83-.31.14-.67.13-1.07-.03-.41-.16-.69-.4-.86-.73-.17-.33-.19-.7-.06-1.11M51.54,32.45c-.09.29-.09.54,0,.75.1.21.25.35.47.44.22.09.42.08.61,0,.19-.09.33-.29.43-.59.09-.3.1-.55,0-.75-.09-.2-.25-.35-.48-.44-.23-.09-.44-.09-.62,0-.19.09-.33.29-.42.59"/><path class="cls-3" d="M53.77,33.85c.22.07.33.1.55.17-.02.18,0,.34.07.46.07.12.19.22.36.29.18.08.32.1.43.06.11-.03.18-.1.22-.19.02-.06.02-.12,0-.18-.02-.06-.08-.13-.16-.2-.06-.05-.19-.15-.4-.3-.27-.19-.45-.37-.54-.52-.12-.21-.15-.42-.08-.63.04-.13.12-.24.24-.32.12-.08.26-.12.43-.12.17,0,.36.05.57.14.34.15.57.33.7.55s.15.45.08.69c-.22-.09-.33-.13-.55-.22.02-.14,0-.26-.06-.35-.06-.09-.16-.17-.32-.24-.16-.07-.29-.09-.41-.07-.07.02-.12.06-.14.12-.02.06,0,.13.03.19.05.08.2.21.45.39.25.17.42.32.53.44.11.12.18.25.21.39.04.14.03.3-.03.46-.05.15-.14.27-.27.36-.13.09-.28.13-.46.13-.18,0-.38-.06-.62-.16-.34-.15-.58-.33-.71-.56-.14-.23-.17-.49-.12-.8"/><path class="cls-3" d="M58.05,33.73c.4.18.6.27.99.46.22.11.39.2.49.29.14.12.25.26.32.43.07.17.11.35.11.54,0,.19-.04.41-.12.65-.07.21-.16.38-.27.51-.13.15-.28.26-.44.32-.12.04-.27.05-.45.02-.13-.02-.29-.08-.49-.17-.4-.19-.61-.29-1.01-.47.34-1.03.52-1.55.86-2.58M58.45,34.42c-.23.68-.34,1.02-.57,1.7.16.08.24.11.4.19.15.07.26.11.33.13.09.02.18.02.25,0,.07-.02.15-.08.22-.18.08-.1.15-.25.21-.44.07-.2.1-.36.1-.48,0-.12-.02-.23-.07-.32-.05-.09-.12-.17-.21-.24-.07-.05-.21-.13-.44-.23-.1-.05-.15-.07-.24-.11"/><path class="cls-3" d="M60.2,36.26c.09-.26.21-.46.35-.6.1-.1.23-.18.37-.23.14-.05.28-.07.42-.06.19.02.39.08.61.19.39.2.66.48.81.83.15.36.15.74,0,1.16-.14.41-.37.67-.68.79s-.66.07-1.04-.12c-.39-.2-.66-.47-.81-.82-.15-.35-.16-.73-.02-1.13M60.76,36.52c-.1.29-.11.55-.02.76.09.22.23.38.45.49.21.11.41.12.6.04.19-.08.33-.27.44-.56.1-.29.11-.55.03-.76-.08-.21-.23-.38-.45-.49-.22-.11-.42-.13-.61-.05-.19.08-.33.27-.43.56"/><path class="cls-3" d="M64.64,37.04c.42.23.63.34,1.04.57.21.12.36.21.45.28.09.07.17.16.23.26.06.1.1.21.12.33.02.12.01.23-.03.34-.04.12-.12.21-.22.27-.1.06-.22.09-.35.07.14.13.23.28.28.44.04.16.04.31-.01.46-.04.12-.11.21-.2.29-.09.08-.2.12-.32.13-.12.01-.25-.01-.39-.08-.09-.04-.3-.15-.63-.33-.35-.2-.53-.29-.88-.49.36-1.02.55-1.53.91-2.55M65.02,37.75l-.21.59c.14.08.21.11.34.19.2.11.33.18.38.2.09.04.17.05.24.03.07-.02.12-.07.15-.16.03-.08.03-.16,0-.23-.03-.07-.08-.14-.16-.2-.05-.03-.2-.12-.44-.26-.12-.07-.18-.1-.3-.17M64.65,38.76c-.1.27-.15.41-.24.68.19.11.29.16.48.27.19.11.31.17.36.18.08.03.16.03.23,0,.07-.03.12-.08.15-.17.03-.08.03-.15.01-.23-.02-.07-.06-.14-.12-.21-.06-.06-.21-.16-.45-.3-.17-.09-.25-.14-.42-.23"/><path class="cls-3" d="M66.33,41.05c.37-1.02.56-1.52.93-2.54.44.25.65.38,1.09.64.27.16.46.31.57.43.11.12.17.26.21.42.03.16.02.32-.04.47-.07.19-.19.31-.34.37-.16.06-.35.03-.59-.07.09.13.15.26.2.38.04.12.09.32.14.59.05.27.07.41.12.68-.24-.15-.36-.22-.61-.37-.07-.31-.1-.47-.17-.78-.06-.28-.1-.45-.13-.53-.03-.08-.07-.15-.12-.2-.05-.05-.13-.11-.25-.18-.04-.02-.06-.04-.1-.06-.16.42-.23.64-.39,1.06-.21-.12-.31-.18-.51-.3M67.38,39.89c.15.09.23.14.38.23.25.15.4.23.47.25.07.02.13,0,.18-.02.05-.03.09-.08.12-.16.03-.09.03-.17,0-.25-.03-.08-.08-.15-.16-.22-.04-.03-.16-.11-.37-.23-.16-.1-.24-.14-.4-.24-.09.26-.14.39-.24.64"/><path class="cls-3" d="M71.14,44.02c-.22-.14-.33-.21-.55-.36,0-.29,0-.43,0-.71-.4-.26-.6-.38-1-.64-.17.18-.25.27-.42.44-.22-.13-.32-.2-.54-.33.77-.77,1.16-1.15,1.93-1.92.22.14.32.2.54.34.02,1.27.03,1.9.04,3.17M70.59,42.42c0-.46,0-.69,0-1.16-.28.29-.42.43-.69.72.27.17.41.26.68.43"/><path class="cls-3" d="M71.59,43.29c.2.11.3.16.51.27-.03.19-.02.35.04.48.06.14.16.26.32.36.16.11.29.16.4.14.11-.01.18-.07.22-.16.02-.06.03-.12,0-.19-.02-.07-.06-.14-.14-.23-.05-.06-.17-.19-.36-.38-.24-.25-.4-.46-.47-.63-.1-.24-.11-.46-.03-.66.05-.13.13-.22.25-.29.11-.06.25-.08.41-.05.16.03.33.11.52.24.31.21.52.44.62.68.1.25.11.49.03.72-.2-.13-.3-.19-.51-.32.03-.14.02-.27-.03-.37-.05-.1-.14-.2-.28-.3-.15-.1-.27-.14-.38-.14-.07,0-.11.04-.14.1-.02.06-.02.13.02.2.04.1.17.25.39.48.22.22.38.41.47.55.09.14.15.29.17.44.02.15,0,.31-.06.47-.06.14-.15.25-.27.32-.13.07-.27.09-.44.05-.17-.04-.36-.13-.57-.27-.31-.21-.52-.44-.63-.7-.11-.26-.13-.54-.05-.84"/><path class="cls-3" d="M73.67,45.74c.39-1,.59-1.5.98-2.51.2.14.3.21.49.35-.4,1-.59,1.5-.99,2.5-.2-.14-.29-.21-.49-.34"/><path class="cls-3" d="M74.65,46.43c.39-.99.59-1.49.98-2.48.2.14.29.21.49.35-.33.82-.49,1.23-.82,2.06.49.35.73.53,1.21.89-.07.17-.1.25-.17.42-.67-.5-1.01-.75-1.69-1.24"/></svg>