<svg width="199" height="199" viewBox="0 0 199 199" fill="none" xmlns="http://www.w3.org/2000/svg">
<g clip-path="url(#clip0_32_131)">
<path fill-rule="evenodd" clip-rule="evenodd" d="M97.2593 125.428H90.2281V147.479H97.2593V125.428ZM118.19 125.415H99.5488V130.764H105.357V147.472H112.388V130.764H118.197L118.184 125.415H118.19ZM66.3964 127.631C65.0566 126.055 63.1573 125.883 60.9003 125.639C59.9767 125.54 59.0531 125.475 58.1555 125.442C57.2644 125.475 56.3343 125.54 55.4107 125.639C53.1537 125.883 51.261 126.055 49.9146 127.631C47.0137 131.028 47.2153 143.706 50.7016 146.338C52.1521 147.432 55.1701 147.986 58.149 148C61.128 147.98 64.1525 147.432 65.5964 146.338C69.0827 143.712 69.2778 131.028 66.3834 127.631M60.5036 142.255C59.8987 142.908 59.0401 143.257 58.1555 143.211C57.2709 143.264 56.4124 142.908 55.8075 142.255C54.7148 140.744 54.6497 133.449 55.5603 131.497C55.8725 130.811 56.5425 130.369 57.2904 130.356C57.5766 130.296 57.8628 130.257 58.1555 130.243C58.4482 130.263 58.7344 130.303 59.0206 130.356C59.7686 130.369 60.4385 130.811 60.7507 131.497C61.6678 133.449 61.6028 140.744 60.5036 142.255ZM169.99 127.631C168.65 126.055 166.751 125.883 164.494 125.639C163.57 125.54 162.647 125.475 161.749 125.442C160.852 125.475 159.928 125.54 159.004 125.639C156.747 125.883 154.855 126.055 153.508 127.631C150.607 131.028 150.809 143.706 154.295 146.338C155.746 147.432 158.764 147.986 161.749 148C164.728 147.98 167.753 147.432 169.197 146.338C172.676 143.712 172.885 131.028 169.984 127.631M164.091 142.248C163.486 142.901 162.627 143.251 161.743 143.204C160.858 143.257 160 142.901 159.395 142.248C158.302 140.738 158.237 133.442 159.148 131.49C159.46 130.797 160.136 130.356 160.891 130.349C161.177 130.29 161.463 130.25 161.756 130.237C162.048 130.257 162.335 130.296 162.621 130.349C163.369 130.362 164.039 130.804 164.351 131.49C165.262 133.442 165.197 140.738 164.104 142.248M46.5974 132.677C46.6885 130.468 45.8299 128.324 44.2559 126.8C42.7274 125.752 40.8932 125.263 39.0589 125.428H27V147.479H34.0311V140.289H34.0506V140.276H39.0329C40.5809 140.329 42.1095 139.953 43.4623 139.201C45.3161 138.271 46.5714 135.454 46.5909 132.684M39.1435 134.122C38.3565 134.3 37.5565 134.386 36.7499 134.386H34.0181V130.428H36.7499C37.693 130.382 38.6362 130.507 39.5338 130.784C40.2232 131.101 40.6265 131.833 40.5354 132.598C40.4444 133.363 39.8785 133.977 39.1305 134.122M86.6573 125.831C86.6573 125.831 78.6245 124.775 74.9691 125.857C71.3137 126.939 69.8827 128.878 69.8827 132.018C69.8827 135.157 70.6242 136.219 72.1983 137.354C73.8373 138.29 75.6455 138.897 77.5123 139.135C78.4489 139.286 81.6555 139.366 81.6035 141.377C81.5514 143.389 76.3935 142.901 76.3935 142.901L70.4486 142.598V147.518C70.4486 147.518 79.444 148.574 83.106 147.492C86.7679 146.41 88.1923 144.398 88.1923 141.331V141.245C88.1923 138.099 87.4508 137.044 85.8768 135.909C84.2377 134.973 82.4295 134.366 80.5628 134.135C79.6262 133.983 76.4195 133.904 76.4716 131.892C76.5236 129.881 81.6815 130.369 81.6815 130.369L86.4817 130.619L86.6638 125.831H86.6573ZM129.176 125.428H136.239C137.43 131.556 139.205 137.057 139.96 143.633C141.04 137.334 142.484 131.398 143.888 125.428H150.946C149.007 132.803 147.011 140.118 145.059 147.479H135.062C133.098 140.131 131.043 132.882 129.176 125.428ZM127.478 147.479H120.447V125.428H127.478V147.479Z" fill="#98876C"/>
<path d="M90.4818 105.067C93.76 105.008 97.0187 104.665 100.29 104.651C100.115 105.192 100.043 105.759 100.069 106.333C98.4431 106.32 96.8235 106.426 95.217 106.657C89.5517 107.336 81.2978 109.011 77.6879 103.266C77.0635 102.633 77.07 101.611 77.6879 100.984C77.753 100.918 77.8245 100.859 77.8961 100.806C79.5091 101.782 80.901 103.398 82.6897 104.031C85.2069 104.816 87.8346 105.166 90.4688 105.073" fill="#98876C"/>
<path d="M100.602 89.9293C100.856 90.3712 101.097 90.8263 101.311 91.288C101.012 91.73 100.609 92.0928 100.141 92.3434C99.9455 92.4951 99.7829 92.6864 99.6723 92.9106C100.121 93.4713 100.746 94.1177 100.199 94.8433C99.6528 95.5688 98.8593 95.6941 98.6772 96.6835C99.1585 97.4289 99.4642 98.2797 99.5682 99.157C99.6723 101.611 96.2706 102.02 94.5144 102.099C92.1664 102.198 89.8183 101.947 87.5418 101.373C86.1434 100.984 84.81 100.357 83.6132 99.5198C82.5726 98.8338 80.9465 97.6399 81.7075 96.1822C82.2408 95.7073 82.5791 95.5886 83.1775 96.0437C84.1141 96.7627 84.8165 97.7982 85.7076 98.5634C86.293 98.9921 86.9369 99.3285 87.6264 99.5528C89.363 100.212 91.1842 100.615 93.0314 100.74C94.6575 100.846 98.0137 100.74 97.6495 98.2666C97.5324 97.5146 97.0511 96.9803 96.9145 96.2746C96.8104 95.8656 97.0186 95.4501 97.4023 95.2918C97.9097 94.9752 98.456 94.7179 98.9438 94.3618C99.126 94.2298 99.2951 94.0847 99.4772 93.9528C99.2625 93.6956 99.0414 93.4581 98.8072 93.2273C98.3129 92.7655 97.6365 92.3632 97.604 91.6047L99.7959 90.734C98.9633 89.3686 98.2023 87.9637 97.5194 86.5192C96.2771 87.1986 94.9827 87.7856 93.6493 88.2737C92.2379 88.6629 91.7761 87.5811 91.542 86.3543C92.7518 85.4111 94.1437 84.7317 95.6201 84.3623C96.4527 84.1578 97.8251 84.1248 98.1633 85.167C98.2674 85.4902 98.365 85.8068 98.495 86.1234C99.1064 87.4492 99.8089 88.7222 100.609 89.9425" fill="#98876C"/>
<path d="M113.702 83.4783C115.12 83.109 116.584 82.9309 118.047 82.9507C118.086 83.1617 118.19 83.4322 118.001 83.5905C117.462 83.8675 116.941 84.1973 116.382 84.4084C113.553 85.5231 110.482 85.8859 107.621 86.9148C106.014 87.4887 104.206 88.3 104.544 90.3777C104.785 91.8882 105.819 92.2971 107.139 92.3433C109.787 92.3565 112.427 92.0201 114.99 91.3539C115.738 91.123 116.518 91.0241 117.292 91.0505C116.603 93.2931 113.507 93.7812 111.523 94.1176C109.65 94.2891 107.816 94.7442 106.079 95.4764C105.539 95.7798 105.09 96.2217 104.785 96.756C104.154 97.9169 104.479 99.368 105.546 100.14C106.307 100.509 107.152 100.674 107.991 100.608C110.157 100.549 112.245 99.8429 114.398 99.612C114.606 99.5856 114.814 99.5725 115.022 99.579C114.853 100.225 114.483 100.793 113.962 101.202C111.595 102.026 109.045 102.316 106.756 103.378C105.767 103.748 104.947 104.467 104.44 105.403C104.219 105.858 104.199 106.386 104.388 106.861C104.57 107.336 104.941 107.705 105.409 107.89C106.931 108.338 108.544 108.378 110.079 107.995C111.374 107.791 112.681 107.494 113.995 107.389C114.587 107.29 115.198 107.362 115.751 107.606C116.642 108.437 115.062 108.945 114.476 109.097C113.279 109.381 112.063 109.565 110.84 109.644C109.65 109.737 108.44 109.796 107.243 109.796C106.333 109.809 105.429 109.664 104.577 109.361C102.736 108.794 101.702 106.821 102.261 104.955C102.398 104.5 102.625 104.077 102.925 103.715C103.516 103.062 104.212 102.527 104.993 102.112C103.874 101.604 102.762 101.208 102.417 99.8495C102.287 99.269 102.222 98.6754 102.216 98.0752C102.118 97.1385 102.378 96.2019 102.938 95.4566C103.516 94.8563 104.173 94.3419 104.902 93.9263C103.738 93.4646 102.846 93.115 102.554 91.6903C102.216 90.0413 102.209 87.957 103.64 86.8093C104.206 86.4003 104.798 86.031 105.422 85.7144C104.525 85.5231 103.699 85.0878 103.042 84.4545C102.482 83.5971 102.229 82.5681 102.313 81.5457C102.268 80.6685 102.476 79.7978 102.912 79.0393C103.633 77.9905 104.668 77.2056 105.871 76.8098C106.58 76.6911 107.295 76.6186 108.017 76.579C111.634 76.4405 115.224 75.86 118.697 74.8376C118.964 74.93 119.133 75.1872 119.114 75.4709C118.86 76.5526 117.923 76.9945 116.941 77.2979C115.823 77.6079 114.684 77.819 113.533 77.9246C112.466 78.0499 111.387 78.162 110.32 78.2939C108.655 78.3929 107.042 78.8744 105.591 79.7055C104.336 80.8136 104.447 81.8425 104.967 83.3134C105.591 83.8477 106.385 84.1181 107.198 84.0852C109.39 84.1115 111.575 83.9137 113.722 83.4915" fill="#98876C"/>
<path d="M99.204 78.3929C99.139 79.3163 98.6967 80.1672 97.9747 80.7345C96.4657 81.6513 94.8656 82.3966 93.194 82.9507C91.7436 83.6433 90.3387 84.4414 89.0053 85.3516C85.6036 87.5019 82.7547 90.4503 80.7123 93.9396C80.8034 94.4343 81.044 94.797 80.5627 95.1796C79.8993 95.5358 79.0993 95.5028 78.4684 95.0872C78.0065 94.3947 78.0456 93.4844 78.5594 92.838C78.9302 92.185 79.3464 91.5584 79.8017 90.9582C83.0474 86.8357 87.4117 83.7686 92.3615 82.1328C94.3843 81.3875 97.1422 80.2793 97.5129 77.7861C97.5389 77.6212 97.5519 77.4497 97.5714 77.2848C96.6478 76.6977 95.6201 76.2954 94.5534 76.0777C90.5143 75.0817 86.4556 74.1253 82.3059 74.9366C78.4163 75.6886 74.3511 78.1093 73.2584 82.1988C72.8552 83.9137 72.9592 85.7078 73.5576 87.3568C74.3381 89.639 74.852 92.0069 75.1121 94.4079C75.2227 95.6215 74.7804 96.822 73.9219 97.6729C72.2503 99.2691 69.6225 99.1965 67.5607 98.6161V96.9275C67.5997 96.9275 67.6843 96.9275 67.7103 96.8879C69.551 97.3826 72.0486 97.9829 72.4909 95.3973C72.6015 93.9 72.4129 92.3961 71.938 90.978C71.3006 88.4847 70.1494 85.9519 70.4681 83.3135C71.3201 76.2294 79.0537 73.1096 85.2133 72.9512C87.8475 72.9315 90.4818 73.2745 93.0314 73.967C94.6575 74.3496 96.2316 74.9102 97.734 75.6424C98.2023 75.8864 98.6316 76.1833 99.0154 76.5394C99.3601 77.0869 99.4382 77.7663 99.23 78.3797" fill="#98876C"/>
<path d="M126.607 79.8968C125.605 80.8598 124.408 81.6513 124.46 83.1816C125.189 83.7224 125.742 84.4678 126.067 85.3252C126.392 86.7368 125.963 88.2209 124.942 89.2432C123.992 90.2458 122.75 90.7801 123.582 92.4159C124.102 93.1744 124.512 94.0055 124.805 94.8762C125.189 96.8154 122.919 98.4644 121.735 99.5593C121.384 100.285 121.735 101.136 121.65 101.921C121.468 103.84 120.389 105.535 118.262 105.469C117.91 105.522 117.585 105.271 117.527 104.922C117.318 104.157 117.826 103.979 118.405 103.702C118.548 103.523 118.671 103.339 118.788 103.147C119.621 101.406 118.268 99.9287 119.901 98.3522C120.772 97.5079 121.852 96.9473 122.19 95.7468C122.502 94.6189 121.683 93.867 121.137 92.9567C119.582 90.3909 122.34 89.3224 123.367 87.4689C123.621 86.6906 123.608 85.8463 123.328 85.0746C122.548 84.3952 121.735 83.8477 121.871 82.6737C122.099 80.7608 123.784 79.9825 124.811 78.6172C126.652 76.1832 123.81 73.6306 121.501 73.3404C118.867 73.1029 116.219 73.1755 113.598 73.5515C112.213 73.657 110.821 73.5976 109.455 73.3734C109.071 73.347 108.752 73.0634 108.694 72.6742C108.629 72.285 108.843 71.9091 109.208 71.7706C109.669 71.6518 110.157 71.6782 110.606 71.8431C112.85 72.2191 115.114 71.5133 117.358 71.4803C119.218 71.454 121.071 71.5991 122.906 71.9157C124.102 72.2916 125.228 72.8787 126.223 73.6702C128.005 74.9102 128.46 77.3837 127.238 79.191C127.062 79.4548 126.854 79.6923 126.62 79.9034" fill="#98876C"/>
<path d="M106.664 64.9503C106.125 66.0386 105.676 67.1731 105.305 68.334C105.012 69.3102 104.499 70.8668 105.858 71.2626C106.521 71.4605 106.879 71.3813 107.178 72.1135C107.139 72.5884 107.1 72.905 106.606 73.0633C105.695 73.0699 104.791 72.8456 103.985 72.4103C102.775 71.876 102.118 70.5304 102.443 69.231C102.521 68.9276 102.625 68.6242 102.703 68.3274C103.393 65.656 105.194 63.2551 105.149 60.3991C105.318 57.6815 104.329 55.0168 102.437 53.0842C102.157 52.8599 101.819 52.7148 101.468 52.6686C100.947 55.993 100.576 59.9044 98.5211 62.7274C96.5503 65.755 93.9225 68.2878 90.8395 70.1281C88.6736 71.1834 86.3255 71.7969 83.932 71.9156C79.8473 72.3245 75.7236 71.7111 71.9185 70.1413C71.1771 69.8115 70.7738 69.5608 71.1771 68.7627C71.5868 68.235 71.795 68.4593 72.3673 68.3934C74.13 69.2244 76.0032 69.7983 77.9285 70.1017C81.018 70.5964 84.1791 70.4447 87.2101 69.6466C88.5825 69.2508 89.8769 68.5978 91.0086 67.714C93.4217 65.8341 95.4315 63.4728 96.9015 60.7684C97.8641 58.6643 98.4495 56.4019 98.6316 54.0867C98.8073 53.0578 98.9373 51.323 100.258 51.0856C102.281 50.7162 104.329 51.5407 105.552 53.2095C107.907 56.4943 108.401 60.775 106.873 64.5281C106.808 64.6666 106.736 64.8052 106.671 64.9437" fill="#98876C"/>
</g>
<defs>
<clipPath id="clip0_32_131">
<rect width="145" height="97" fill="white" transform="translate(27 51)"/>
</clipPath>
</defs>
</svg>
