<?xml version="1.0" encoding="utf-8"?>
<!-- Generator: Adobe Illustrator 28.1.0, SVG Export Plug-In . SVG Version: 6.00 Build 0)  -->
<svg version="1.1" id="Layer_1" xmlns="http://www.w3.org/2000/svg" xmlns:xlink="http://www.w3.org/1999/xlink" x="0px" y="0px"
	 viewBox="0 0 96 128" style="enable-background:new 0 0 96 128;" xml:space="preserve">
<style type="text/css">
	.st0{clip-path:url(#SVGID_00000173159980463900735130000006497531970254282637_);}
	.st1{fill:#98876C;}
</style>
<g>
	<defs>
		<rect id="SVGID_1_" width="96" height="128"/>
	</defs>
	<clipPath id="SVGID_00000154422244052246605550000013948521427005316770_">
		<use xlink:href="#SVGID_1_"  style="overflow:visible;"/>
	</clipPath>
	<g style="clip-path:url(#SVGID_00000154422244052246605550000013948521427005316770_);">
		<path class="st1" d="M67.2,61.7L48.6,72.4v21l18.6-10.7V61.7z"/>
		<path class="st1" d="M47.4,93.3L28.8,82.6v-21l18.6,10.7"/>
		<path class="st1" d="M58.6,53.5l-10,5.8v11.3l10-5.8V53.5z"/>
		<path class="st1" d="M47.4,70.6l-10-5.8V53.5l10,5.8"/>
		<path class="st1" d="M24.2,78.9V49.8v-0.4h47.3v29.6c0,16.2-15.7,23.3-23.7,23.3C39.9,102.3,24.2,94.7,24.2,78.9L24.2,78.9z
			 M25.1,78.9c0,15.1,15.3,22.4,22.8,22.4c7.6,0,22.7-6.9,22.8-22.4v-22v-6.7H25.1V78.9z"/>
		<path class="st1" d="M71.5,49.7l-0.2-0.4l3.2-1.9l3.3,5.5l-3.2,1.9L71.5,49.7z M74.9,53.6l1.6-1l-2.4-4l-1.6,1L74.9,53.6
			L74.9,53.6z M67.3,42.7L70,41l0.4-0.2l3.2,5.3l-3.1,1.8L67.3,42.7z M68.6,43l2.2,3.7l1.6-0.9L70.1,42L68.6,43L68.6,43z M84.1,41.6
			l2.5-1.5l0.4-0.2l3.3,5.5l-2.9,1.7L84.1,41.6L84.1,41.6z M85.3,41.9l2.4,4L89,45l-2.4-4L85.3,41.9z M80.2,34.9l2.4-1.5l0.4-0.2
			l3.1,5.2l-3,1.8L80.2,34.9z M81.4,35.2l2.1,3.7l1.4-0.8l-2.2-3.7L81.4,35.2L81.4,35.2z"/>
		<path class="st1" d="M66.8,36.5l11.3-6.6l12.9,21.6l-2.6,1.6l-1.5-2.5l-0.6,0.4l1.5,2.5l-2.3,1.3L84,52.2l-0.6,0.4l1.5,2.5
			l-2.4,1.4L81,54.1l-0.6,0.4l1.5,2.5l-2.1,1.2L66.8,36.5L66.8,36.5z M68.1,36.8l12,20.1l0.5-0.3l-1.3-2.1l-0.2-0.4l2.2-1.3l1.5,2.5
			l0.9-0.5l-1.5-2.5l2.2-1.3l1.5,2.5l0.7-0.4L85,50.6l2.2-1.3l1.5,2.5l1.1-0.6l-12-20.1L68.1,36.8L68.1,36.8z"/>
		<path class="st1" d="M18.9,53.2L18.5,53l3.3-5.5l3.2,1.9l-3.3,5.5L18.9,53.2L18.9,53.2z M21.4,53.6l2.4-4l-1.6-1l-2.4,4L21.4,53.6
			L21.4,53.6z M22.6,46.1l2.9-4.9l0.2-0.4l3.1,1.9l-3.2,5.3L22.6,46.1L22.6,46.1L22.6,46.1z M23.9,45.8l1.6,0.9l2.2-3.7L26.1,42
			L23.9,45.8z M6.3,45.6L6,45.3l3.3-5.5l2.9,1.7l-3.3,5.5L6.3,45.6L6.3,45.6z M8.5,45.8l2.4-4l-1.3-0.8l-2.4,4L8.5,45.8L8.5,45.8z
			 M10.4,38.7L10,38.4l3.1-5.2l2.8,1.7l-3,5.3L10.4,38.7L10.4,38.7L10.4,38.7z M12.7,38.9l2.1-3.7l-1.3-0.8l-2.2,3.7L12.7,38.9
			L12.7,38.9z"/>
		<path class="st1" d="M14.4,56.9l1.5-2.5L15.3,54l-1.5,2.5l-2.4-1.4l1.5-2.5l-0.6-0.4l-1.5,2.5l-2.3-1.3l1.5-2.5l-0.6-0.4L7.8,53
			l-2.6-1.6l12.7-21.2l0.2-0.4l11.3,6.6L16.5,58.1L14.4,56.9L14.4,56.9L14.4,56.9z M17.1,54.1l-1.5,2.5l0.5,0.3l12-20.1l-9.8-5.7
			l-12,20.1l1.1,0.6L9,49.3l2.2,1.3l-1.5,2.5l0.7,0.4l1.5-2.5l2.2,1.3l-1.5,2.5l0.9,0.5l1.5-2.5L17.1,54.1L17.1,54.1L17.1,54.1z"/>
		<path class="st1" d="M12.3,49.2l2.8-4.8l-2-1.2l1.7-3l1.9,1.2l1.2-2.2l3,1.6l-1.3,2.4l2.2,1.2l-1.8,3l-1.9-1.1l-2.5,4.4L15.3,51
			L12.3,49.2L12.3,49.2z M14.3,42.9l2,1.2l-2.8,4.8l1.5,0.9l2.8-4.8l2,1.1l0.9-1.4l-2.1-1.1l1.3-2.4l-1.5-0.8L17,42.6l-1.9-1.2
			L14.3,42.9L14.3,42.9L14.3,42.9z"/>
		<path class="st1" d="M26.6,45.3l0.7-0.6c1.2,1.4,2.3,3,4.7,4.7l-0.5,0.7C28.9,48.4,27.8,46.6,26.6,45.3z"/>
		<path class="st1" d="M78.1,46.2l-1.9,1.1l-1.8-3l2.2-1.2l-1.3-2.4l3-1.7l1.2,2.2l1.9-1.1l1.7,3l-2,1.2l2.8,4.8l-2.7,1.6L80.9,51
			L78.1,46.2L78.1,46.2z M81.2,49.8l1.5-0.9L80,44.1l2-1.2l-0.8-1.5l-1.9,1.2l-1.3-2.2l-1.5,0.8l1.3,2.4l-2.1,1.1l0.9,1.4l2-1.1
			L81.2,49.8L81.2,49.8z"/>
		<path class="st1" d="M64.2,49.4c2.4-1.6,3.5-3.3,4.7-4.7l0.7,0.6c-1.2,1.3-2.3,3.1-4.9,4.8L64.2,49.4z"/>
		<path class="st1" d="M45.4,12.5V8.7H42V3.8h3.4V0h4.7v3.8h3.2h0.4v4.9h-3.7v3.8H45.4z M42.9,7.8h3.4v3.8h2.9V7.8h3.7V4.7h-3.7V0.9
			h-2.9v3.8h-3.4V7.8z"/>
		<path class="st1" d="M29.1,39.2l0.1-0.5c1.1-10.2,9.1-23.3,16.5-27l0.1,0h4.1l0.1,0.1c6.8,4.8,15,13.8,16.6,27l0.1,0.5H29.1
			L29.1,39.2z M65.6,38.3c-1.6-12.5-9.5-21.1-16-25.8H46c-6.8,3.4-14.7,16-15.9,25.8H65.6z"/>
		<path class="st1" d="M36.3,22v-0.9h23V22H36.3z"/>
		<path class="st1" d="M31.8,30.8v-0.9H64v0.9H31.8z"/>
		<path class="st1" d="M43.9,20.3c-2.2,0-4.4-1.2-5-2.6l0.8-0.4c0.3,0.9,2.3,2.1,4.2,2c1.4,0,2.7-0.5,3.6-2l0.4-0.6l0.4,0.6
			c1,1.5,2.4,2,3.8,2c1.9,0,3.9-1.2,4-1.6l0.8,0.3c-0.5,1.2-2.5,2.2-4.8,2.2c-1.4,0-3-0.5-4.1-1.9C46.8,19.8,45.3,20.3,43.9,20.3
			L43.9,20.3z"/>
		<path class="st1" d="M47.9,26.4c-1.6,1.4-4.4,1.9-7.2,1.9c-3,0-5.9-0.6-7.3-2l0.6-0.6c1,1,3.8,1.7,6.7,1.7c2.8,0,5.6-0.7,6.9-1.9
			l0.3-0.3l0.3,0.3c1.8,1.5,4.4,2,6.8,2c2.7,0,5.4-0.7,6.8-1.3l0.4,0.8c-1.6,0.7-4.3,1.4-7.2,1.4C52.5,28.4,49.9,27.9,47.9,26.4
			L47.9,26.4z"/>
		<path class="st1" d="M47.9,34.3c-1.9,1.6-5.1,2.2-8.4,2.2c-3.8,0-7.5-0.8-9.2-2.5l0.6-0.6c1.3,1.3,5,2.3,8.6,2.2
			c3.3,0,6.5-0.7,8-2.2l0.3-0.3l0.3,0.3c2.2,1.8,5.1,2.4,8,2.4c3.4,0,6.8-0.9,8.7-1.8l0.4,0.8c-2,0.9-5.5,1.8-9.1,1.8
			C53.3,36.7,50.3,36.1,47.9,34.3L47.9,34.3z"/>
		<path class="st1" d="M50.7,48.8c-1.1-1.6-3.1-5-3.1-10v-0.4h10.2v0.4c0,1.7,0.4,3.4,1.7,4.7l0.4,0.4l-8.9,5.3L50.7,48.8L50.7,48.8
			z M51.2,47.9l7.2-4.3c-1.1-1.3-1.5-2.9-1.5-4.5h-8.4C48.5,43.4,50.1,46.3,51.2,47.9L51.2,47.9z"/>
		<path class="st1" d="M36.1,43.8l0.4-0.4c1.3-1.2,1.7-3,1.7-4.7v-0.4H48h0.5v0.4c0,5-2,8.4-3.1,10l-0.2,0.3L36.1,43.8L36.1,43.8z
			 M44.8,47.9c1.1-1.6,2.6-4.5,2.7-8.7h-8.4c-0.1,1.5-0.5,3.2-1.5,4.5L44.8,47.9z"/>
		<path class="st1" d="M71.7,78.7c0-3.1,1.9-5.7,4.6-6.8l-5.8-4v-5.6l7.9,5.5c-0.1-0.4-0.1-0.9-0.1-1.3c0-4,3.3-7.3,7.4-7.3
			c4.1,0,7.4,3.3,7.4,7.3c0,1.2-0.3,2.3-0.8,3.3c2.2,1.3,3.7,3.6,3.7,6.3c0,4-3.3,7.3-7.4,7.3c-1.2,0-2.4-0.3-3.4-0.8
			c-1.3,2-3.6,3.4-6.2,3.4C75,86,71.7,82.8,71.7,78.7L71.7,78.7z M71.5,67.5l6.9,4.8l-0.9,0.2c-2.8,0.7-4.8,3.2-4.8,6.2
			c0,3.5,2.9,6.4,6.5,6.4c2.4,0,4.5-1.3,5.6-3.3l0.2-0.4l0.4,0.2c1,0.6,2.1,0.9,3.3,0.9c3.6,0,6.5-2.9,6.5-6.4
			c0-2.5-1.5-4.7-3.6-5.7L91,70.2l0.2-0.4c0.6-1,0.9-2,0.9-3.2c0-3.5-2.9-6.4-6.5-6.4c-3.6,0-6.5,2.9-6.5,6.4c0,0.8,0.2,1.5,0.4,2.3
			l0.5,1.4l-8.7-6.1V67.5L71.5,67.5z M10.7,82.7c-1,0.5-2.1,0.8-3.4,0.8c-4.1,0-7.4-3.3-7.4-7.3c0-2.7,1.5-5.1,3.7-6.3
			c-0.5-1-0.8-2.1-0.8-3.3c0-4,3.3-7.3,7.4-7.3c4.1,0,7.4,3.3,7.4,7.3c0,0.5,0,0.9-0.1,1.3l7.5-5.3v5.5L19.6,72
			c2.7,1.1,4.6,3.7,4.6,6.8c0,4-3.3,7.3-7.4,7.3C14.3,86.1,12,84.7,10.7,82.7z M11.3,81.8c1.1,2,3.2,3.3,5.6,3.3
			c3.6,0,6.5-2.9,6.5-6.4c0-3-2.1-5.5-4.8-6.2l-0.9-0.2l6.5-4.6v-3.4l-8.4,5.8l0.5-1.4c0.3-0.7,0.4-1.5,0.4-2.3
			c0-3.5-2.9-6.4-6.5-6.4c-3.6,0-6.5,2.9-6.5,6.4c0,1.2,0.3,2.3,0.9,3.2L5,70.2l-0.4,0.2c-2.1,1.1-3.6,3.2-3.6,5.7
			c0,3.5,2.9,6.4,6.5,6.4c1.2,0,2.3-0.3,3.3-0.9l0.4-0.2L11.3,81.8L11.3,81.8L11.3,81.8z"/>
		<path class="st1" d="M6.4,66.6c0-2.1,1.7-3.8,3.8-3.8c2.1,0,3.8,1.7,3.8,3.8c0,2.1-1.7,3.8-3.8,3.8C8.2,70.4,6.4,68.7,6.4,66.6z
			 M7.3,66.6c0,1.6,1.3,2.9,2.9,2.9c1.6,0,2.9-1.3,2.9-2.9c0-1.6-1.3-2.9-2.9-2.9C8.7,63.7,7.3,65,7.3,66.6z"/>
		<path class="st1" d="M3.5,76.2c0-2.1,1.7-3.8,3.8-3.8c2.1,0,3.8,1.7,3.8,3.8S9.5,80,7.4,80C5.2,80,3.5,78.3,3.5,76.2z M4.4,76.2
			c0,1.6,1.3,2.9,2.9,2.9c1.6,0,2.9-1.3,2.9-2.9c0-1.6-1.3-2.9-2.9-2.9C5.7,73.3,4.4,74.6,4.4,76.2z"/>
		<path class="st1" d="M13.1,78.7c0-2.1,1.7-3.8,3.8-3.8c2.1,0,3.8,1.7,3.8,3.8c0,2.1-1.7,3.8-3.8,3.8
			C14.8,82.6,13.1,80.9,13.1,78.7z M14,78.7c0,1.6,1.3,2.9,2.9,2.9c1.6,0,2.9-1.3,2.9-2.9c0-1.6-1.3-2.9-2.9-2.9
			C15.3,75.8,14,77.1,14,78.7z"/>
		<path class="st1" d="M75.3,78.7c0-2.1,1.7-3.8,3.8-3.8c2.1,0,3.8,1.7,3.8,3.8c0,2.1-1.7,3.8-3.8,3.8C77,82.5,75.3,80.8,75.3,78.7z
			 M76.2,78.7c0,1.6,1.3,2.9,2.9,2.9c1.6,0,2.9-1.3,2.9-2.9c0-1.6-1.3-2.9-2.9-2.9C77.5,75.8,76.2,77.1,76.2,78.7z"/>
		<path class="st1" d="M84.8,76.2c0-2.1,1.7-3.8,3.8-3.8c2.1,0,3.8,1.7,3.8,3.8c0,2.1-1.7,3.8-3.8,3.8C86.5,80,84.8,78.3,84.8,76.2z
			 M85.7,76.2c0,1.6,1.3,2.9,2.9,2.9c1.6,0,2.9-1.3,2.9-2.9c0-1.6-1.3-2.9-2.9-2.9S85.7,74.6,85.7,76.2z"/>
		<path class="st1" d="M81.9,66.6c0-2.1,1.7-3.8,3.8-3.8c2.1,0,3.8,1.7,3.8,3.8c0,2.1-1.7,3.8-3.8,3.8
			C83.6,70.4,81.9,68.7,81.9,66.6z M82.8,66.6c0,1.6,1.3,2.9,2.9,2.9c1.6,0,2.9-1.3,2.9-2.9c0-1.6-1.3-2.9-2.9-2.9
			C84.1,63.7,82.8,65,82.8,66.6z"/>
		<path class="st1" d="M48.8,50.2h-1.6l1.4-0.8c4.3-2.5,12.1-7.1,19.6-11.6l0.4-0.2l2.4,4l-0.4,0.2c-4.8,2.9-9.9,5.9-14,8.4
			l-0.1,0.1L48.8,50.2L48.8,50.2z M56.1,49.3c4-2.4,8.8-5.3,13.5-8.1l-1.4-2.4c-6.6,3.9-13.4,7.9-17.7,10.5H56.1L56.1,49.3z
			 M78.2,31.8l0.4-0.2c3.1-1.9,5.5-3.4,6.9-4.3c0.4-0.3,0.8-0.4,1.3-0.4c1.3,0,2.4,1.2,2.4,2.5c0,0.7-0.4,1.5-1.1,2
			c-0.7,0.5-3.4,2.1-7,4.3l-0.4,0.2L78.2,31.8L78.2,31.8L78.2,31.8z M80.9,34.5c3.4-2.1,6-3.6,6.6-4c0.6-0.4,0.7-0.8,0.7-1.2
			c0-0.8-0.7-1.6-1.5-1.6c-0.2,0-0.5,0.1-0.7,0.2l-0.3-0.4L86,28c-1.3,0.9-3.6,2.3-6.5,4.1L80.9,34.5L80.9,34.5z"/>
		<path class="st1" d="M6.1,109.6h8.1c1.6,0,2.9,0.4,3.9,1.3c1,0.9,1.5,2.2,1.5,3.8c0,1.4-0.4,2.6-1.3,3.7c-0.9,1-2.2,1.6-4,1.6H8.5
			v7.6H6.1V109.6L6.1,109.6z M15.6,112.1c-0.5-0.3-1.3-0.4-2.2-0.4H8.5v6.2h4.8c1.1,0,2-0.2,2.7-0.7c0.7-0.5,1-1.3,1-2.5
			C17,113.4,16.5,112.5,15.6,112.1z"/>
		<path class="st1" d="M25.3,109.6v11.1c0,1.3,0.2,2.4,0.7,3.2c0.7,1.3,2,2,3.7,2c2.1,0,3.5-0.7,4.3-2.1c0.4-0.8,0.6-1.8,0.6-3.1
			v-11.1h2.5v10.1c0,2.2-0.3,3.9-0.9,5.1c-1.1,2.2-3.2,3.2-6.2,3.2c-3.1,0-5.1-1.1-6.2-3.2c-0.6-1.2-0.9-2.9-0.9-5.1v-10.1
			L25.3,109.6L25.3,109.6z"/>
		<path class="st1" d="M53.6,110.9c1.2,1.2,1.9,2.5,2.1,4.1h-2.4c-0.3-1.2-0.8-2.1-1.6-2.7c-0.8-0.7-1.9-1-3.3-1
			c-1.7,0-3.2,0.6-4.2,1.9c-1.1,1.2-1.6,3.1-1.6,5.7c0,2.1,0.5,3.8,1.5,5.1c1,1.3,2.4,2,4.3,2c1.8,0,3.1-0.7,4-2.1
			c0.5-0.7,0.9-1.7,1.1-2.9h2.4c-0.2,1.9-0.9,3.5-2.1,4.7c-1.4,1.5-3.3,2.3-5.7,2.3c-2.1,0-3.8-0.6-5.2-1.9
			c-1.9-1.7-2.8-4.2-2.8-7.7c0-2.6,0.7-4.8,2.1-6.5c1.5-1.8,3.6-2.8,6.2-2.8C50.6,109.1,52.3,109.7,53.6,110.9z"/>
		<path class="st1" d="M59.2,109.6h8.1c1.6,0,2.9,0.4,3.9,1.3c1,0.9,1.5,2.2,1.5,3.8c0,1.4-0.4,2.6-1.3,3.7c-0.9,1-2.2,1.6-4,1.6
			h-5.6v7.6h-2.4L59.2,109.6L59.2,109.6z M68.7,112.1c-0.5-0.3-1.3-0.4-2.2-0.4h-4.8v6.2h4.8c1.1,0,2-0.2,2.7-0.7
			c0.7-0.5,1-1.3,1-2.5C70.1,113.4,69.6,112.5,68.7,112.1z"/>
		<path class="st1" d="M76,109.6h8.2c1.4,0,2.5,0.2,3.3,0.6c1.7,0.8,2.5,2.2,2.5,4.2c0,1.1-0.2,2-0.7,2.6c-0.4,0.7-1.1,1.2-1.9,1.6
			c0.7,0.3,1.2,0.7,1.6,1.1c0.4,0.5,0.6,1.2,0.6,2.3l0.1,2.4c0,0.7,0.1,1.2,0.2,1.5c0.1,0.6,0.4,0.9,0.8,1.1v0.4h-3
			c-0.1-0.2-0.2-0.4-0.2-0.6c-0.1-0.2-0.1-0.7-0.1-1.4l-0.1-3c-0.1-1.2-0.5-2-1.3-2.4c-0.5-0.2-1.2-0.3-2.1-0.3h-5.4v7.7H76
			L76,109.6L76,109.6z M84,117.8c1.1,0,2-0.2,2.6-0.7c0.6-0.5,1-1.3,1-2.5c0-1.3-0.5-2.1-1.4-2.6c-0.5-0.2-1.1-0.4-1.9-0.4h-5.8v6.1
			H84L84,117.8z"/>
		<path class="st1" d="M39.8,50.2l-0.1-0.1c-4.1-2.5-9.2-5.5-14-8.4l-0.4-0.2l2.1-3.6l0.2-0.4l0.4,0.2c7.4,4.4,15.3,9,19.6,11.6
			l1.4,0.8H39.8z M45.8,49.3c-4.4-2.6-11.2-6.6-17.7-10.5l-1.4,2.4c4.7,2.8,9.5,5.7,13.5,8.1H45.8L45.8,49.3z M15.2,35.5
			c-3.6-2.2-6.3-3.8-7-4.3l0.2-0.4l0.2-0.4c0.6,0.4,3.1,1.9,6.6,4l1.5-2.4c-2.9-1.8-5.2-3.2-6.5-4.1c-0.3-0.2-0.5-0.2-0.8-0.2
			c-0.8,0-1.5,0.8-1.5,1.6c0,0.4,0.2,0.8,0.7,1.2l-0.2,0.4l-0.2,0.4c-0.8-0.5-1.2-1.2-1.1-2c0-1.3,1.1-2.5,2.4-2.5
			c0.4,0,0.9,0.1,1.3,0.4c1.3,0.9,3.8,2.5,6.9,4.3l0.4,0.2l-2.4,4L15.2,35.5L15.2,35.5z"/>
	</g>
</g>
</svg>
