<svg width="199" height="199" viewBox="0 0 199 199" fill="none" xmlns="http://www.w3.org/2000/svg">
<g clip-path="url(#clip0_32_129)">
<path d="M67.0318 142.336C65.6164 142.336 65.4196 141.649 65.4196 140.344V132.771H68.5107V129.145H65.4196V124.315L60.5512 125.885V129.152H58.0567V132.777H60.4243V141.069C60.4243 144.234 61.9349 146 65.1911 146C66.2765 146 67.7237 145.804 68.7392 145.382L68.5425 142.021C68.0157 142.248 67.5904 142.349 67.0318 142.349V142.336ZM77.5239 128.817C72.6936 128.817 69.7992 132.702 69.7992 137.311C69.7992 142.21 72.3318 145.994 77.5239 145.994C82.716 145.994 85.2168 141.977 85.2168 137.311C85.2168 132.645 82.6843 128.817 77.5239 128.817ZM77.5239 142.469C75.3214 142.469 75.0231 139.039 75.0231 137.311C75.0231 135.709 75.3214 132.317 77.5239 132.317C79.7264 132.317 79.9867 135.646 79.9867 137.311C79.9867 138.976 79.7264 142.469 77.5239 142.469ZM37.7898 123.855L34.3051 139.852L30.6872 123.855H25L31.214 145.634H37.098L43.2739 123.855H37.7835H37.7898ZM49.8687 128.817C45.0384 128.817 42.1441 132.702 42.1441 137.311C42.1441 142.21 44.6766 145.994 49.8687 145.994C55.0608 145.994 57.5617 141.977 57.5617 137.311C57.5617 132.645 55.0291 128.817 49.8687 128.817ZM49.8687 142.469C47.6662 142.469 47.3679 139.039 47.3679 137.311C47.3679 135.709 47.6662 132.317 49.8687 132.317C52.0712 132.317 52.3315 135.646 52.3315 137.311C52.3315 138.976 52.0712 142.469 49.8687 142.469ZM138.947 142.336C137.531 142.336 137.335 141.649 137.335 140.344V132.771H140.426V129.145H137.335V124.315L132.472 125.885V129.152H129.972V132.777H132.339V141.069C132.339 144.234 133.85 146 137.106 146C138.191 146 139.639 145.804 140.654 145.382L140.457 142.021C139.931 142.248 139.505 142.349 138.947 142.349V142.336ZM142.838 127.09H147.833V122.909H142.838V127.09ZM168.259 128.817C166.285 128.817 164.837 129.795 163.854 131.63C163.232 129.902 161.753 128.817 159.645 128.817C157.538 128.817 156.065 129.833 155.145 131.63L154.98 129.145H150.442C150.505 130.287 150.543 131.459 150.543 132.607V145.634H155.507V135.35C155.507 134.108 156.065 132.475 157.513 132.475C159.061 132.475 159.322 133.843 159.322 135.085V145.634H164.222V135.35C164.222 134.108 164.844 132.475 166.259 132.475C167.802 132.475 168.068 133.843 168.068 135.085V145.634H173V134.663C173 131.428 171.686 128.817 168.265 128.817H168.259ZM142.838 145.634H147.833V129.145H142.838V145.634ZM123.631 128.817C121.492 128.817 119.949 129.833 119.061 131.63L118.927 129.145H114.389C114.453 130.318 114.491 131.428 114.491 132.607V145.634H119.486V135.35C119.486 134.045 120.044 132.475 121.619 132.475C123.098 132.475 123.529 133.78 123.529 135.085V145.634H128.524V134.726C128.524 131.428 127.211 128.817 123.631 128.817ZM111.501 134.795C111.501 131.138 109.921 128.817 104.893 128.817C102.824 128.817 100.933 129.253 99.3777 129.795V133.465C100.895 132.557 102.621 132.052 103.973 132.052C106.042 132.052 106.766 133.257 106.766 134.795V135.381H105.617C101.904 135.381 97.429 136.819 97.429 141.063C97.429 144.001 99.3713 145.994 102.393 145.994C104.462 145.994 105.744 145.212 106.798 143.415L106.899 145.634H111.634C111.603 144.657 111.501 143.642 111.501 142.009V134.795ZM106.766 138.875C106.766 140.609 106.239 142.759 104.17 142.759C102.888 142.759 102.132 141.946 102.132 140.64C102.132 138.484 104.202 137.897 106.207 137.897H106.766V138.875ZM91.7609 132.021L91.6593 129.145H87.1274C87.1908 130.318 87.2289 131.428 87.2289 132.607V145.634H92.2243V138.32C92.2243 136.163 92.6813 133.193 95.4741 133.193C95.9692 133.193 96.4262 133.288 96.8895 133.389V128.868C96.6991 128.849 96.4896 128.811 96.2992 128.811C94.065 128.811 92.6813 130.053 91.7673 132.014L91.7609 132.021Z" fill="#98876C"/>
<path d="M113.202 56.7833C114.287 54.5385 116.604 53 119.276 53H135.227L103.948 115.141C102.996 117.032 101.104 118.394 98.8318 118.394C96.5594 118.394 94.6235 116.906 93.6333 114.945L85.1406 98.034C85.6294 98.1285 86.1372 98.1727 86.6449 98.1727C87.9779 98.1727 89.241 97.8574 90.3454 97.2899C90.3708 97.2773 90.4025 97.271 90.4279 97.2584C92.5479 96.1675 94.268 94.4209 95.3217 92.2833L113.196 56.7833H113.202Z" fill="#98876C"/>
<path d="M86.9242 56.6951C87.9969 54.5575 90.1994 53.0694 92.7511 53.0063H108.08L89.8694 89.1874C88.9871 90.934 87.3622 92.2771 85.2803 92.2771C83.1984 92.2771 81.5798 90.9529 80.7102 89.2252L72.3 72.5471C72.7634 72.6417 73.2458 72.6922 73.7409 72.6922C74.8072 72.6922 75.8165 72.4715 76.7305 72.0553L76.813 72.0175C76.9145 71.967 77.0161 71.9166 77.1177 71.8661C79.0345 70.8825 80.5833 69.3061 81.5417 67.3766L81.5608 67.3451L81.5735 67.3136L86.9179 56.6951H86.9242Z" fill="#98876C"/>
<path d="M82.5699 53L76.5527 64.9489C75.81 66.4307 74.2867 67.4585 72.5158 67.4585C70.7449 67.4585 69.2152 66.4307 68.4726 64.9489L62.4617 53H82.5763H82.5699Z" fill="#98876C"/>
</g>
<defs>
<clipPath id="clip0_32_129">
<rect width="148" height="93" fill="white" transform="translate(25 53)"/>
</clipPath>
</defs>
</svg>
