<?xml version="1.0" encoding="UTF-8"?><svg id="Layer_1" xmlns="http://www.w3.org/2000/svg" viewBox="0 0 199 120"><defs><style>.cls-1{fill:none;}.cls-1,.cls-2{stroke-width:0px;}.cls-2{fill:#98876c;}</style></defs><rect class="cls-1" x="0" y="-39.5" width="199" height="199"/><path class="cls-2" d="M76.9,45.8c.05.18,0,.39-.11.53-.05.07-.14.15-.28.15h-4.69c-.17,0-.32-.09-.41-.24-.11-.18-.11-.42,0-.64.53-1,1.43-1.46,2.81-1.46.6,0,2.34.39,2.68,1.65ZM98.43,46.2c-.65-.41-1.29-.51-1.91-.51-1.98,0-3.95,1.46-3.95,3.92,0,1.72,1.21,2.75,2.78,2.75.67,0,1.41-.12,2.29-.66.15-.09.25-.24.28-.41l.8-4.44c.04-.25-.07-.5-.29-.64ZM131.27,41.47l-2.8,15.75c-.11.61-.64,1.05-1.25,1.05h-7.17l.18-.92c-1.57.99-3.04,1.46-4.76,1.46-2.98,0-5.16-1.29-5.86-3.81-1.25,3.46-3.03,6.63-5.22,9.52-.21.28-.66.09-.6-.26l4.17-23.2c.1-.58-.34-1.11-.93-1.11h-7.11l-.11.59c-1.17-.7-2.38-1.13-4.28-1.13-5.34,0-10.91,4.58-10.91,11.16,0,4.79,3.29,8.02,7.5,8.02,1.21,0,2.22-.18,3.15-.49.68-.23,1.36.35,1.23,1.06l-2.8,15.45c-.04.18-.27.41-.34.46-6.15,4.51-13.01,7.98-19.73,10.85-.8.34-1.71.39-2.53.12-17.49-5.79-36.55-23.35-38.77-38.27,0-.01,0-.02,0-.03-.85-10.86,2.15-21.43,13-27.38.01,0,.02-.01.03-.02,9.9-4.52,21.6-.65,26.88,8.89.15.26.31.52.35.59,1.62-1.94,3.04-4.09,4.88-5.78,9.82-9.04,26.07-6.29,32.26,5.41,1.5,2.83,2.28,6.71,2.43,10.6.15-.06.3-.09.47-.09h5.65c.79,0,1.39.72,1.25,1.5l-1.38,7.73c-.33,1.87.62,2.27,1.43,2.27.48,0,.88-.1,1.29-.33.32-.18.53-.51.59-.87l1.66-9.25c.11-.61.64-1.05,1.25-1.05h5.65c.79,0,1.39.72,1.25,1.5ZM81.29,42.14c-1.54-1.85-4.07-2.87-7.13-2.87-6.01,0-10.58,3.83-11.64,9.75-.49,2.75.03,5.14,1.5,6.89,1.6,1.91,4.16,2.91,7.4,2.91,4.63,0,8.44-2.05,10.18-5.49.12-.24.11-.51-.03-.74-.14-.23-.39-.37-.65-.37h-5.85c-.13,0-.26.04-.38.11-.57.33-1.35.51-2.2.51-1.59,0-2.55-.62-2.86-1.83-.03-.14,0-.28.08-.39s.22-.18.36-.18h11.62c.33,0,.63-.22.73-.54v-.04c.13-.37.23-.7.31-1.16.48-2.6-.02-4.87-1.44-6.57ZM142.26,39.97h-7c-.3,0-.55.21-.6.5l-3.01,17.08c-.07.37.22.72.6.72h7c.3,0,.55-.21.6-.5l3.01-17.08c.07-.37-.22-.72-.6-.72ZM166.82,47.44c0,6.59-5.56,11.16-10.91,11.16-1.54,0-2.6-.28-3.56-.74-.37-.18-.8.04-.87.44l-1.87,10.3c-.21,1.38-5.17-1.79-6.9-3.84-.32-.38-.43-.96-.37-1.37.82-5.82,4.04-22.91,4.04-22.91.05-.29.3-.5.6-.5h7.72l-.11.59c1.43-.7,2.78-1.13,4.72-1.13,4.21,0,7.5,3.22,7.5,8.02ZM158.87,48.43c0-1.72-1.21-2.75-2.75-2.75-.71,0-1.45.12-2.33.66-.15.09-.25.24-.28.41l-.8,4.42c-.04.25.07.49.28.63.65.44,1.3.54,1.93.54,2.01,0,3.95-1.46,3.95-3.92ZM107.4,89.71l6.42-5.97c.41-.38.14-1.06-.42-1.06h-7.29c-.15,0-.3.06-.41.16l-3.85,3.48c-.43.39-1.11.01-1.01-.56l3.18-17.63c.1-.56-.55-.94-.99-.58l-8.16,7.15c-.23.22-.42.75-.45.89l-4.38,24.67c-.07.37.22.72.6.72h6.99c.3,0,.55-.21.6-.51l.43-2.47c.02-.13.09-.25.19-.34l1.09-1.01c.31-.28.8-.18.97.2l1.72,3.78c.1.22.32.36.56.36h7.62c.44,0,.73-.45.56-.85l-4.12-9.74c-.1-.24-.04-.51.15-.68ZM123.76,82.68h-7c-.3,0-.55.21-.6.5l-3.01,17.08c-.07.37.22.72.6.72h7c.3,0,.55-.21.6-.5l3.01-17.08c.07-.37-.22-.72-.6-.72ZM147.04,71.32s-2.05-.99-3.92-2.53c-.65-.53-1.39-.3-1.6.75l-2.29,13.11c-.07.4-.5.62-.87.44-.97-.46-2.04-.74-3.55-.74-5.34,0-10.91,4.58-10.91,11.16,0,4.79,3.29,8.02,7.5,8.02,1.94,0,3.29-.44,4.72-1.13l-.11.59h7.72c.3,0,.55-.21.6-.51l4.5-27.43c.1-.95-.96-1.29-1.8-1.72ZM136.92,94.61c-.88.53-1.62.66-2.33.66-1.54,0-2.75-1.03-2.75-2.75,0-2.45,1.94-3.92,3.95-3.92.62,0,1.27.11,1.93.54.21.14.32.38.28.63l-.8,4.42c-.03.17-.13.32-.28.41ZM153.58,95.32c-.21-.29-.52-.49-.88-.49h-4.9c-.82,0-1.41.76-1.23,1.56.7,3.12,3.48,5.14,8.82,5.14s10.58-1.9,10.58-7.06c0-2.31-1.43-4.28-5.23-5.09l-3.51-.7c-.77-.15-1.13-.26-1.13-.62,0-.44.59-.73,1.61-.73s1.59.28,1.83.71.65.75,1.15.75h4.81c.71,0,1.29-.59,1.26-1.3-.15-3.29-3.29-5.36-8.36-5.36-5.93,0-10.1,2.75-10.1,7.43,0,2.23,1.1,4.17,4.43,4.72l3.11.51c.99.15,1.46.33,1.46.66,0,.4-.37.66-1.54.66-1.1,0-1.85-.33-2.18-.79ZM112.56,66.17c-2.98,0-4.97,2.03-4.97,4.73s1.99,4.73,4.97,4.73,4.97-2.03,4.97-4.73-1.99-4.73-4.97-4.73ZM112.56,72.71c-1.08,0-1.8-.85-1.8-1.81s.72-1.81,1.8-1.81,1.8.85,1.8,1.81-.72,1.81-1.8,1.81ZM127.45,66.98c0-.34-.27-.61-.61-.61h-1.95c-.34,0-.61.27-.61.61v4.05c0,1.08-.49,1.68-1.36,1.68s-1.36-.6-1.36-1.68v-4.05c0-.34-.27-.61-.61-.61h-1.95c-.34,0-.61.27-.61.61v3.92c0,3.12,1.63,4.73,4.53,4.73s4.53-1.61,4.53-4.73v-3.92ZM137.12,75.43c.2,0,.33-.22.23-.39l-1.22-2.17c-.18-.31-.13-.7.09-.98.47-.59.71-1.32.71-2.14,0-2.17-1.51-3.38-4.17-3.38h-3.97c-.15,0-.26.12-.26.26v8.53c0,.15.12.26.26.26h2.59c.15,0,.26-.12.26-.26v-1.61c0-.15.12-.26.26-.26h1.06l1.06,1.99c.05.09.14.14.23.14h2.87ZM131.64,69.22c0-.15.12-.26.26-.26h.86c.6,0,1,.31,1,.77,0,.51-.4.85-1,.85h-.86c-.15,0-.26-.12-.26-.26v-1.1Z"/></svg>