<?xml version="1.0" encoding="UTF-8"?><svg id="Layer_1" xmlns="http://www.w3.org/2000/svg" xmlns:xlink="http://www.w3.org/1999/xlink" viewBox="0 0 199 120"><defs><style>.cls-1{clip-path:url(#clippath);}.cls-2{fill:none;}.cls-2,.cls-3,.cls-4{stroke-width:0px;}.cls-3{fill-rule:evenodd;}.cls-3,.cls-4{fill:#98876c;}</style><clipPath id="clippath"><rect class="cls-2" x="21.5" y="13" width="156" height="94"/></clipPath></defs><g class="cls-1"><path class="cls-4" d="M152.94,79.97v-.76h.03c.31,0,.58-.05.81-.15.23-.1.41-.23.56-.4.15-.18.26-.37.35-.59.09-.23.15-.46.18-.71.04-.25.05-.51.05-.77,0-.24-.01-.49-.05-.74-.04-.25-.09-.49-.18-.71-.08-.23-.21-.43-.35-.62-.15-.18-.34-.32-.57-.43-.23-.11-.5-.16-.82-.16v-.74h.04c.96,0,1.68.29,2.16.87.48.58.72,1.42.72,2.54,0,.57-.08,1.06-.23,1.49-.15.42-.36.77-.63,1.06-.27.28-.59.49-.95.63-.35.13-.72.2-1.11.21h0s0-.01,0-.01h0ZM152.94,73.2v.74c-.31,0-.58.06-.8.16-.23.11-.42.25-.57.42-.15.18-.27.38-.36.61-.09.23-.15.47-.19.72-.04.25-.06.5-.06.75,0,.34.03.67.1.98.07.31.18.59.33.83.16.25.36.44.62.58.25.14.57.21.93.21v.76h-.06c-.59,0-1.1-.13-1.53-.38-.42-.26-.75-.63-.97-1.13-.23-.49-.34-1.09-.34-1.8,0-.56.08-1.06.22-1.48.15-.43.35-.79.62-1.09.26-.3.58-.52.93-.67.35-.15.73-.22,1.14-.23h0ZM133.64,79.92v-.82c.23.03.48.05.74.04.12,0,.25,0,.41-.02.16-.02.31-.03.46-.04.16-.02.3-.04.43-.06.13-.03.22-.04.28-.06l.16.76c-.05.02-.15.05-.3.07-.14.03-.31.05-.51.08-.19.03-.4.04-.62.06-.21.01-.42.03-.62.03-.16,0-.32,0-.47-.02h.02ZM133.64,76.76v-.7h1.66c0-.45-.06-.82-.17-1.15-.11-.32-.28-.57-.5-.74-.22-.18-.5-.26-.83-.26h-.16v-.7c.1,0,.2-.01.3-.01.79,0,1.38.27,1.76.81.38.53.57,1.34.57,2.42v.33h-2.63ZM143.23,79.83v-4.18c0-.22,0-.45-.03-.68-.03-.23-.06-.45-.14-.66-.07-.21-.18-.4-.33-.57-.15-.16-.35-.3-.59-.4-.25-.1-.57-.15-.94-.15-.29,0-.55.03-.77.09-.23.06-.43.13-.6.22-.18.1-.33.18-.48.28-.14.1-.28.19-.4.27v-.7h-.91v6.47h.91v-4.98c.08-.04.18-.12.33-.21.15-.09.32-.19.5-.29.19-.1.39-.19.59-.25.21-.07.41-.11.6-.11.3,0,.54.05.72.14.18.1.31.23.41.4.1.17.16.36.18.59.03.22.04.47.04.72v3.99h.9,0ZM149.07,79.76l-.16-.74s-.05.01-.15.04c-.09.02-.21.04-.36.07s-.31.04-.48.04c-.24,0-.45-.01-.61-.04-.16-.03-.29-.08-.38-.16-.09-.08-.16-.19-.19-.34-.04-.15-.06-.34-.06-.58v-3.92h2v-.77h-2v-1.33h-.9v1.33h-.94v.77h.94v3.93c0,.38.04.68.11.92.07.24.18.43.3.56.13.13.29.23.46.29.18.06.38.1.6.11.21.01.45.02.68.01.1,0,.21,0,.33-.03.11-.01.23-.03.33-.06.11-.02.21-.04.29-.06.08-.03.15-.04.19-.06h0ZM133.64,73.22v.7c-.26.02-.5.1-.71.23-.26.16-.47.4-.64.71-.16.32-.27.72-.31,1.21h1.66v.7h-1.67c.01.41.06.75.14,1.03.08.28.19.51.34.69.14.18.31.31.51.42.19.09.41.16.65.19h.02v.83c-.29-.02-.55-.07-.8-.14-.38-.11-.69-.28-.96-.53-.26-.24-.47-.58-.61-.99-.14-.42-.21-.93-.21-1.55,0-.65.07-1.2.22-1.65.14-.45.35-.81.61-1.08.26-.27.56-.47.91-.59.26-.1.54-.15.84-.17h0,0ZM101.92,92.14v-.75c.18-.03.34-.07.48-.13.23-.09.42-.23.56-.4.15-.18.26-.37.35-.59.09-.23.15-.46.18-.71.04-.25.05-.51.05-.77,0-.24-.02-.48-.05-.74-.04-.25-.1-.48-.18-.71-.08-.23-.21-.43-.35-.62-.15-.18-.34-.32-.57-.43-.14-.06-.3-.11-.48-.13v-.76c.81.06,1.42.34,1.85.86.48.58.72,1.42.72,2.53,0,.57-.08,1.06-.23,1.49-.15.42-.36.77-.64,1.06-.27.28-.59.49-.95.63-.24.09-.49.15-.76.18h0s0-.01,0-.01ZM101.92,79.98v-.76h.03c.32,0,.58-.05.81-.15.23-.1.42-.23.56-.4.15-.18.26-.36.35-.59.09-.23.15-.46.18-.71.04-.25.05-.51.05-.77,0-.24-.01-.48-.05-.74-.04-.24-.09-.48-.18-.71-.08-.23-.21-.43-.35-.62-.15-.18-.34-.32-.57-.43s-.5-.16-.82-.16v-.74h.04c.96,0,1.68.29,2.16.87.48.58.72,1.42.72,2.53,0,.57-.08,1.06-.23,1.49-.15.42-.36.77-.63,1.06-.27.28-.59.49-.95.63-.34.13-.72.2-1.11.21h0s0-.01,0-.01h0ZM107.66,79.84v-8.93h-.91v8.93h.91ZM114.78,73.37h-.94l-1.53,4.44-.46,1.37-.42-1.35-1.36-4.47h-.99l2.11,6.47h1.34l2.26-6.47ZM117.75,71.36l-.78-.77-.77.77.77.78.78-.78ZM117.43,79.84v-6.47h-.91v6.47h.91ZM129.23,79.84v-4.18c0-.22,0-.45-.03-.68-.02-.23-.07-.45-.14-.66-.07-.21-.18-.4-.33-.57-.14-.16-.35-.29-.59-.4-.24-.1-.56-.15-.94-.15-.28,0-.54.04-.78.1-.23.06-.44.14-.63.25-.19.1-.36.2-.5.3-.15.1-.28.19-.41.28-.08-.18-.19-.34-.35-.48-.15-.14-.34-.25-.58-.33-.24-.08-.53-.12-.87-.12-.29,0-.53.03-.74.09-.21.06-.39.13-.54.22-.16.09-.29.18-.41.28-.13.1-.25.19-.37.27v-.7h-.91v6.47h.91v-4.97c.08-.04.18-.12.3-.21.13-.09.28-.19.45-.29.17-.1.35-.19.53-.25.19-.07.38-.11.57-.11.3,0,.53.05.72.15.18.09.32.23.41.4.09.17.16.36.18.59.03.22.04.47.04.72v3.99h.9v-4.18c0-.14,0-.28-.01-.42,0-.14-.02-.28-.04-.42.09-.06.2-.14.34-.23.14-.09.3-.18.47-.28.18-.1.36-.16.54-.23.18-.06.36-.09.55-.09.3,0,.54.05.71.15.18.09.31.23.4.4.09.17.15.36.18.59.03.22.04.47.04.72v3.99h.91ZM110.71,85.76c-.1-.06-.23-.12-.38-.18-.16-.06-.35-.1-.57-.14s-.48-.05-.77-.06c-.46,0-.88.08-1.25.23-.38.15-.7.36-.97.65-.27.28-.48.63-.62,1.04-.15.42-.22.88-.22,1.4,0,.61.06,1.13.18,1.56.12.43.31.79.57,1.06.26.28.6.47,1.02.6.42.13.93.19,1.53.19.22,0,.43-.02.62-.04.19-.03.37-.06.51-.1.14-.03.26-.06.33-.08l-.13-.72c-.08.01-.19.03-.31.06-.12.02-.27.04-.43.07-.16.02-.32.02-.49.03-.48,0-.88-.05-1.2-.16-.32-.1-.57-.26-.75-.47-.19-.21-.31-.48-.39-.8s-.11-.71-.11-1.15c0-.86.18-1.51.51-1.94.33-.44.82-.65,1.46-.65.21,0,.42.02.62.05.19.03.37.07.53.12.16.04.28.1.38.14l.36-.71h0s0,.01,0,.01ZM109.59,93.41c0-.14-.03-.27-.07-.41-.04-.13-.11-.26-.18-.38h-.87c.08.14.14.28.19.41.05.13.08.26.08.38,0,.16-.04.31-.15.45-.11.15-.28.3-.54.45l.3.52c.31-.13.56-.28.74-.43.18-.16.31-.32.4-.5.08-.18.11-.35.11-.52h0s0,.01,0,.01ZM101.92,73.21v.74c-.31,0-.58.06-.81.16-.23.11-.42.24-.57.42-.15.18-.27.38-.36.61-.09.23-.15.47-.19.72-.04.25-.06.5-.06.75,0,.34.03.67.1.98.07.31.18.59.33.83.16.24.36.44.62.58.25.14.57.21.93.21v.76h-.06c-.59,0-1.11-.13-1.53-.38-.42-.26-.75-.63-.97-1.13-.23-.49-.34-1.09-.34-1.8,0-.56.08-1.06.22-1.48.14-.43.35-.79.62-1.09.26-.29.58-.51.93-.67.35-.14.73-.22,1.14-.23h0ZM101.92,85.41v.76c-.11-.01-.23-.03-.35-.03-.31,0-.58.06-.81.16-.23.11-.42.25-.57.42-.15.18-.27.38-.36.61-.09.23-.15.46-.19.72-.04.25-.06.5-.06.75,0,.34.03.67.1.98.07.31.18.59.33.83.16.25.36.44.62.58.26.14.58.21.96.21.11,0,.22,0,.33-.02v.76c-.14.01-.28.02-.42.02-.59,0-1.11-.13-1.53-.38-.42-.26-.75-.63-.97-1.13-.23-.49-.34-1.09-.34-1.8,0-.56.08-1.06.22-1.48s.35-.79.62-1.09c.26-.3.58-.52.93-.67.36-.15.75-.23,1.18-.23.11,0,.21,0,.31.01h0ZM81.66,91.96v-.98c.09.08.19.15.3.21.26.14.58.21.96.21.31,0,.58-.05.81-.15.23-.1.41-.23.56-.4.15-.18.26-.37.35-.59.09-.23.15-.46.18-.71.04-.25.05-.51.05-.77,0-.24-.02-.48-.05-.74-.04-.25-.09-.48-.18-.71-.08-.23-.21-.43-.35-.62-.15-.18-.34-.32-.57-.43-.23-.11-.5-.16-.82-.16s-.58.06-.81.16c-.16.08-.31.18-.43.28v-.92s.06-.03.1-.04c.36-.15.75-.23,1.18-.23.96,0,1.68.29,2.16.87.48.58.72,1.42.72,2.53,0,.57-.08,1.06-.23,1.49-.15.42-.36.77-.63,1.06-.27.28-.59.49-.95.63-.36.14-.75.21-1.18.21s-.82-.07-1.17-.21h0s-.01-.01-.01-.01h0ZM81.66,79.93v-.82c.23.03.48.05.74.04.12,0,.25,0,.41-.02.16-.02.31-.03.47-.04.16-.02.3-.04.43-.06.13-.03.22-.04.28-.06l.16.76c-.05.02-.15.04-.3.07-.14.03-.31.05-.51.08-.19.03-.4.04-.62.06-.21.01-.42.03-.62.03-.16,0-.31,0-.47-.02h.02ZM81.66,76.78v-.7h1.66c0-.45-.06-.82-.17-1.15-.11-.32-.28-.57-.5-.74-.22-.18-.5-.26-.83-.26h-.16v-.7c.09,0,.19-.01.3-.01.79,0,1.38.27,1.76.81.38.53.57,1.34.57,2.42v.33h-2.63ZM91.24,79.85v-4.18c0-.22,0-.45-.03-.68-.03-.23-.06-.45-.14-.66-.07-.21-.18-.4-.33-.57-.15-.16-.35-.3-.59-.4-.25-.1-.57-.15-.94-.15-.29,0-.55.03-.77.1-.23.06-.43.13-.6.22-.18.09-.33.18-.48.28-.14.1-.28.19-.4.27v-.7h-.91v6.47h.91v-4.98c.08-.04.18-.12.33-.21.14-.09.31-.19.5-.29.19-.1.39-.19.59-.25.21-.07.41-.11.6-.11.3,0,.53.05.72.14.18.09.31.23.41.4.09.17.16.36.18.59.03.22.04.47.04.72v3.99h.91,0ZM98.18,73.38h-.94l-1.53,4.44-.47,1.37-.41-1.35-1.36-4.47h-.99l2.11,6.47h1.34l2.26-6.47ZM96.84,92.03v-4.18c0-.22,0-.45-.03-.68-.03-.23-.07-.45-.14-.66-.07-.21-.18-.4-.33-.57-.14-.16-.35-.3-.59-.4-.25-.1-.56-.15-.94-.15-.28,0-.54.04-.78.1-.23.06-.44.14-.63.24-.19.1-.36.2-.5.3-.15.1-.28.19-.41.28-.08-.18-.19-.34-.35-.48-.15-.14-.34-.24-.58-.33-.24-.07-.53-.12-.87-.12-.29,0-.53.03-.74.1-.21.06-.39.13-.54.22-.16.09-.3.18-.41.28-.13.1-.25.19-.37.27v-.7h-.91v6.47h.91v-4.98c.08-.04.18-.12.3-.21.13-.09.28-.19.45-.29.17-.1.35-.19.53-.25.19-.07.38-.11.57-.11.3,0,.53.05.72.14.18.09.31.23.41.4s.16.36.18.59c.03.22.04.47.04.72v3.99h.9v-4.18c0-.14,0-.28-.01-.42,0-.14-.02-.28-.04-.42.09-.06.2-.14.34-.23.14-.09.3-.18.47-.28s.36-.17.54-.23c.19-.06.37-.1.55-.1.3,0,.53.05.71.14.18.09.31.23.4.4.09.17.15.36.18.59.03.22.04.47.04.72v3.99h.91ZM81.66,73.24v.7c-.26.02-.5.09-.71.23-.26.16-.47.4-.63.71-.16.32-.27.72-.31,1.21h1.66v.7h-1.67c.01.41.06.75.14,1.03.08.28.19.51.34.68.14.18.31.32.51.42.19.1.41.16.65.19h.02v.83c-.29-.02-.55-.07-.8-.14-.38-.11-.69-.28-.96-.53-.26-.24-.47-.58-.61-.99-.14-.42-.21-.93-.21-1.55,0-.65.08-1.2.22-1.65.14-.45.35-.81.61-1.08.26-.27.57-.47.91-.59.26-.09.54-.15.84-.17h0ZM81.66,85.67v.92c-.05.04-.09.09-.14.14-.15.18-.27.38-.36.61-.09.23-.15.47-.19.72-.04.25-.06.5-.06.75,0,.34.03.67.1.98.07.31.18.59.33.83.09.14.19.26.32.36v.98c-.13-.05-.24-.11-.35-.18-.42-.26-.75-.63-.97-1.13-.23-.49-.34-1.09-.34-1.8,0-.56.08-1.06.22-1.48.14-.43.35-.79.62-1.09.24-.27.52-.47.83-.62h0ZM69.54,92.03v-8.37h2.32c.55,0,1.03.09,1.43.27.4.18.71.46.93.84.22.38.33.86.33,1.44,0,.38-.06.72-.19,1.04-.13.32-.33.6-.6.83-.27.24-.62.42-1.03.55-.41.13-.91.2-1.48.2h-.23v-.78h.3c.33-.02.63-.06.9-.12.27-.06.51-.16.71-.3.19-.13.35-.31.47-.54.11-.22.16-.5.16-.83,0-.43-.07-.78-.21-1.05-.14-.27-.36-.47-.65-.6-.29-.13-.65-.19-1.09-.19h-1.5v7.61h-.56s0-.01,0-.01ZM69.54,79.94v-.82c.23.03.48.05.74.04.12,0,.25,0,.41-.02.16-.02.31-.03.47-.04.16-.02.3-.04.43-.06.13-.02.22-.04.28-.06l.16.76c-.05.02-.15.04-.3.07-.14.03-.31.05-.51.07-.19.03-.4.04-.62.06-.21.01-.42.03-.62.03-.16,0-.31,0-.47-.02h.02ZM69.54,76.78v-.7h1.66c0-.45-.06-.82-.17-1.14-.11-.32-.28-.57-.5-.74-.22-.18-.5-.26-.83-.26h-.16v-.7c.09,0,.19-.01.3-.01.79,0,1.38.27,1.76.81.38.54.57,1.34.57,2.42v.33h-2.63ZM77.76,78.07c0-.3-.06-.55-.18-.75-.12-.2-.27-.38-.47-.52-.19-.14-.4-.26-.63-.36-.23-.1-.46-.19-.69-.28-.23-.09-.44-.19-.63-.3-.19-.11-.35-.24-.47-.39-.12-.15-.18-.34-.18-.56,0-.18.04-.34.13-.48.09-.14.21-.24.4-.32.18-.07.4-.11.67-.11.25,0,.47.01.65.04.19.03.35.06.49.1.14.04.25.07.34.09l.18-.74c-.06-.03-.17-.06-.32-.1-.15-.04-.33-.07-.55-.1-.21-.03-.45-.04-.69-.05-.31,0-.61.04-.87.11-.26.08-.5.19-.69.34s-.35.34-.46.57c-.11.23-.16.48-.16.79,0,.33.06.59.18.81.12.22.27.4.47.53.19.14.41.26.64.36.23.1.47.18.69.26.23.08.44.17.63.26.19.09.35.22.47.36.12.14.18.33.18.55,0,.21-.07.38-.19.53-.13.15-.32.26-.57.33-.25.08-.53.12-.87.12-.13,0-.27-.01-.43-.03-.16-.02-.31-.04-.47-.07-.16-.03-.31-.06-.45-.09-.14-.03-.25-.06-.34-.09l-.13.79c.05.02.14.04.27.08.13.03.28.06.47.1.18.03.38.05.6.07.21.02.43.03.65.03s.43-.02.65-.06c.22-.04.43-.1.63-.19.21-.09.38-.2.55-.35.16-.14.29-.33.38-.54.09-.21.14-.47.14-.77h-.02ZM79.49,85.53c-.05-.02-.14-.04-.27-.06-.13-.02-.28-.03-.48-.03-.27,0-.53.05-.77.14-.25.1-.46.21-.64.36-.19.15-.33.31-.43.48v-.87h-.91v6.47h.91v-4.72c.1-.16.24-.32.4-.47.16-.15.35-.27.57-.36.21-.09.45-.15.72-.15.19,0,.34,0,.47.03.12.01.22.04.3.07l.16-.89h-.01ZM65.6,75.64c0-.72-.12-1.35-.35-1.88-.23-.53-.55-.96-.97-1.29-.41-.34-.91-.59-1.47-.75-.21-.06-.43-.11-.66-.15v.83c.1.02.19.05.29.08.46.14.85.36,1.18.64.33.28.58.65.76,1.09.18.44.26.96.27,1.56,0,.73-.14,1.34-.42,1.83-.28.48-.68.85-1.2,1.1-.26.13-.55.22-.87.28v.79c.26-.04.52-.1.76-.17.56-.17,1.04-.42,1.45-.77.4-.35.7-.78.92-1.32.21-.53.32-1.16.33-1.88h-.02ZM69.54,73.24v.7c-.26.02-.5.09-.71.23-.26.16-.47.4-.63.71-.16.32-.27.72-.31,1.21h1.66v.7h-1.67c.01.41.06.75.14,1.03.08.28.19.51.34.68.14.18.31.32.51.42.19.09.41.16.65.19h.02v.83c-.29-.02-.55-.07-.8-.14-.38-.11-.69-.28-.96-.53-.26-.25-.47-.58-.61-.99-.14-.42-.21-.93-.21-1.55,0-.65.08-1.2.22-1.65.14-.45.35-.81.61-1.08.26-.27.57-.47.91-.59.26-.09.54-.15.84-.17h0ZM69.54,83.66v8.37h-.4v-8.37h.4ZM62.16,92.08v-.79h.06c.16-.03.3-.04.43-.07.13-.02.22-.04.28-.06l.16.76c-.05.02-.15.04-.3.07-.14.02-.31.05-.51.07h-.13ZM62.16,88.97v-.7h.09c0-.33-.03-.64-.09-.9v-1.63c.19.13.36.28.5.48.38.53.57,1.34.57,2.41v.33h-1.07ZM62.16,71.57c-.38-.06-.79-.09-1.21-.09h-2.23v8.37h2.29c.4,0,.78-.02,1.14-.08v-.79c-.31.06-.65.09-1.01.09h-1.49v-6.8h1.26c.45,0,.86.04,1.24.13v-.83h0ZM62.16,85.75v1.63c-.02-.09-.04-.17-.08-.25-.11-.32-.28-.57-.5-.74-.22-.18-.5-.26-.83-.26s-.61.08-.87.23c-.26.16-.47.4-.63.71-.16.32-.27.72-.31,1.21h3.22v.7h-3.23c.01.41.06.75.14,1.03.08.28.19.51.34.69.14.18.31.31.51.41.19.09.41.16.65.2.24.04.5.05.77.05.12,0,.25,0,.41-.02.13-.01.27-.02.41-.04v.79c-.16.02-.31.02-.48.04-.21.02-.42.03-.62.03-.47,0-.89-.05-1.26-.16-.38-.11-.69-.28-.96-.53-.26-.24-.47-.58-.61-.99-.14-.41-.21-.93-.21-1.55,0-.65.08-1.2.22-1.65.14-.45.35-.81.61-1.08.26-.27.57-.47.91-.59.35-.12.73-.18,1.13-.18.5,0,.93.11,1.27.33h0Z"/><path class="cls-4" d="M174.45,92.05v-.76l.07-.02c.18-.06.35-.13.53-.21.18-.09.34-.18.48-.26.15-.09.26-.16.36-.21.09-.06.14-.09.14-.09v-1.47l-1.54.08h-.04v-.74h.02l1.55-.04v-.9c0-.27-.03-.49-.09-.65-.07-.16-.17-.3-.3-.38-.14-.08-.31-.14-.52-.18-.19-.03-.41-.04-.66-.04v-.78h.18c.33,0,.63.03.9.08.28.06.51.15.72.28.21.13.36.31.48.53.11.22.17.5.18.84v3.61c0,.18.03.3.1.39.06.09.14.15.23.18.09.03.19.04.28.04l-.06.74c-.14.01-.28,0-.45-.01-.16-.02-.31-.06-.45-.11-.14-.06-.26-.14-.36-.26-.09-.11-.15-.26-.16-.45-.08.05-.17.12-.28.22-.11.09-.26.19-.43.28-.18.09-.38.18-.63.24-.07.02-.15.04-.23.05h0ZM174.45,85.39v.78h-.09c-.15,0-.3.01-.47.04-.16.03-.31.06-.45.1-.14.04-.28.07-.4.1-.12.03-.21.06-.28.08l-.19-.71c.09-.04.24-.09.44-.15.19-.06.44-.11.71-.16.23-.04.46-.06.72-.07ZM174.45,88.35v.75c-.36.02-.67.08-.89.17-.24.1-.42.22-.53.38-.11.16-.16.34-.16.55,0,.28.05.52.16.69s.24.29.41.37c.18.07.38.11.6.11.12,0,.26-.03.41-.07v.76c-.19.03-.4.05-.62.05-.38,0-.7-.07-.98-.21-.27-.14-.48-.35-.62-.62-.15-.27-.22-.6-.22-1,0-.31.06-.58.16-.8.1-.22.24-.41.42-.55.18-.15.37-.26.58-.34.21-.08.44-.14.67-.18.21-.04.43-.05.63-.06h0ZM121.59,92.15v-.76h.03c.31,0,.58-.05.81-.15.23-.09.42-.23.56-.4.15-.18.26-.37.35-.59.09-.23.15-.46.18-.71.04-.25.05-.51.05-.77,0-.24-.01-.48-.05-.74-.04-.25-.1-.48-.18-.71-.08-.23-.21-.43-.35-.62-.15-.18-.34-.32-.57-.43-.23-.11-.5-.16-.82-.16v-.74h.04c.96,0,1.68.29,2.16.87.48.58.72,1.42.72,2.53,0,.57-.08,1.06-.23,1.48-.15.42-.36.77-.63,1.06-.27.28-.59.49-.95.63-.35.13-.72.2-1.11.21h0s0-.01,0-.01h0ZM135.45,84.44v-.8h-6.68v.8h2.87v7.57h.94v-7.57h2.87ZM141.16,92v-6.47h-.87v4.91c-.06.04-.15.09-.26.16-.12.07-.25.15-.41.23-.16.08-.32.16-.49.24-.17.07-.34.14-.5.19-.16.05-.31.08-.44.08-.29,0-.53-.05-.71-.15-.18-.09-.31-.23-.39-.4-.09-.18-.14-.37-.16-.6-.02-.23-.04-.47-.04-.72v-3.94h-.9v4.13c0,.22,0,.45.03.68.03.23.07.45.14.67.07.21.18.41.33.58.14.17.33.3.58.4.25.1.54.15.9.15.26,0,.51-.03.74-.09.23-.06.44-.14.63-.23.2-.09.37-.2.53-.29.16-.1.3-.2.43-.28v.76h.88,0ZM147.03,85.5c-.05-.02-.15-.04-.27-.06-.12-.02-.28-.03-.48-.03-.27,0-.53.05-.77.14-.24.09-.46.21-.64.36-.19.15-.33.31-.43.48v-.87h-.91v6.47h.91v-4.72c.1-.16.24-.32.4-.47.16-.15.35-.27.57-.36.21-.1.45-.15.72-.15.19,0,.34,0,.47.03.12.01.22.04.29.07l.16-.89h-.01ZM150.88,83.24l-.5-.76-2.33,1.62.39.6,2.44-1.47h0ZM149.48,92v-6.47h-.91v6.47h.91ZM155.98,90.22c0-.29-.06-.55-.18-.75-.12-.21-.27-.38-.47-.52-.19-.14-.4-.26-.63-.36-.23-.09-.46-.2-.69-.28-.23-.09-.44-.19-.63-.3-.19-.11-.35-.24-.46-.39-.12-.15-.18-.34-.18-.56,0-.18.04-.34.13-.48.09-.14.22-.24.4-.32.18-.08.4-.11.67-.11.24,0,.46.01.65.04.19.03.35.06.49.1.14.04.25.07.34.09l.18-.74c-.06-.03-.17-.06-.32-.09s-.33-.07-.55-.1c-.21-.03-.45-.04-.69-.05-.31,0-.61.04-.87.11-.26.08-.5.19-.69.34-.19.15-.35.34-.46.57-.11.23-.16.48-.16.79,0,.33.06.59.18.81.12.22.27.4.47.53.19.14.41.26.64.36.23.09.46.18.69.26.23.08.44.17.63.26.19.1.35.21.47.36.12.15.18.33.18.55,0,.21-.07.38-.19.53-.13.14-.32.26-.57.33-.24.07-.53.12-.87.12-.13,0-.27-.01-.43-.02-.16-.02-.31-.04-.47-.07-.16-.02-.31-.06-.45-.09-.14-.03-.25-.06-.34-.09l-.13.79c.05.02.14.04.27.08.13.03.28.06.47.09.18.03.38.05.6.08.21.02.43.03.65.03s.43-.02.65-.06c.22-.04.43-.1.63-.19.21-.09.38-.2.55-.35.16-.15.29-.33.38-.54.09-.21.14-.47.15-.77h-.02ZM161.32,91.93l-.16-.74s-.05.01-.14.04c-.09.02-.22.04-.36.07-.15.02-.31.04-.48.04-.24,0-.45-.01-.61-.04-.16-.03-.29-.08-.38-.16-.09-.08-.16-.19-.19-.34-.04-.15-.06-.34-.06-.58v-3.92h2v-.77h-2v-1.33h-.9v1.33h-.94v.77h.94v3.93c0,.38.04.68.11.92.07.24.18.43.3.56.13.13.29.23.47.29.18.06.38.1.6.11.22.01.45.02.69.01.1,0,.21,0,.33-.02.11-.01.23-.03.33-.06.11-.02.21-.04.29-.06.08-.03.15-.04.19-.06h0ZM164.32,83.52l-.78-.77-.77.77.77.78.78-.78ZM164,92v-6.47h-.91v6.47h.91ZM171.01,85.73c-.1-.06-.23-.12-.38-.18s-.35-.1-.57-.14c-.22-.04-.48-.05-.77-.06-.46,0-.88.08-1.25.23-.38.15-.7.37-.97.65-.27.28-.48.63-.62,1.04-.14.42-.22.88-.22,1.4,0,.61.06,1.13.18,1.56.12.43.31.79.57,1.06.26.27.6.47,1.02.6.42.13.93.19,1.53.19.22,0,.43-.02.62-.04.19-.03.36-.06.51-.09.15-.03.26-.06.33-.08l-.13-.72c-.08.01-.19.03-.31.06-.13.03-.27.04-.43.07-.16.03-.32.03-.49.03-.48,0-.88-.05-1.2-.16-.32-.1-.57-.26-.76-.47-.18-.21-.31-.48-.39-.81-.08-.33-.11-.71-.11-1.15,0-.85.18-1.51.51-1.94.33-.44.82-.65,1.46-.65.21,0,.42.02.62.05.2.03.37.07.53.12.16.04.28.09.38.14l.36-.71h0s0,.01,0,.01ZM116.48,83.9l-.33-.58s-.02.02-.06.06c-.04.04-.11.08-.18.13-.07.04-.18.09-.28.13-.11.04-.23.06-.36.06-.11,0-.23-.03-.33-.08-.11-.05-.22-.11-.33-.18s-.23-.13-.36-.18c-.02,0-.04-.01-.06-.02v.91c.09.04.19.09.28.15.12.06.24.13.36.18.13.05.26.08.4.08.15,0,.29-.03.42-.07.13-.04.24-.1.35-.16.11-.06.19-.13.27-.19.08-.06.13-.12.18-.16.04-.04.06-.06.06-.06h-.01ZM121.59,85.37v.74c-.31,0-.58.06-.81.16-.23.11-.42.25-.57.42-.15.18-.27.38-.36.61-.09.23-.15.47-.19.72-.04.25-.06.5-.06.75,0,.34.03.67.1.98.07.31.18.59.33.83.16.25.36.44.62.58.25.14.57.21.93.21v.76h-.06c-.59,0-1.11-.13-1.53-.38-.42-.26-.75-.63-.97-1.13-.23-.49-.34-1.09-.34-1.8,0-.56.08-1.06.22-1.49.14-.43.35-.79.62-1.09.26-.29.58-.52.93-.67.35-.14.73-.22,1.14-.23h0ZM114.16,92.04v-.76l.07-.02c.18-.06.35-.13.53-.21.18-.09.34-.18.48-.26.15-.09.26-.16.36-.21.09-.06.14-.09.14-.09v-1.47l-1.54.08h-.04v-.74h.03l1.55-.04v-.9c0-.27-.03-.49-.09-.65-.07-.16-.17-.29-.3-.38-.14-.08-.31-.14-.52-.18-.19-.03-.41-.04-.66-.04v-.78h.18c.33,0,.63.03.91.08.28.06.51.15.72.28.21.13.36.31.48.53s.17.5.18.84v3.61c0,.18.03.3.1.39.06.09.14.15.23.18.09.03.19.04.28.04l-.06.74c-.14.01-.28,0-.45-.01-.16-.02-.31-.06-.45-.11-.14-.06-.26-.15-.36-.26-.09-.11-.15-.26-.16-.45-.08.05-.17.13-.28.22-.11.1-.26.19-.43.28-.18.1-.38.18-.63.25-.07.02-.15.04-.23.05h0ZM114.16,83.23c-.11-.04-.23-.06-.36-.06-.19,0-.37.03-.53.09-.16.06-.3.13-.41.21-.11.08-.2.15-.26.21-.06.06-.09.09-.09.09l.29.63c.1-.09.2-.16.3-.21.09-.05.19-.09.3-.11.11-.03.22-.03.35-.03s.23.03.35.07l.06.03v-.91h0s0-.01,0-.01ZM114.16,85.38v.78h-.09c-.15,0-.3.01-.46.04-.16.03-.31.06-.45.09-.14.04-.28.07-.4.1-.12.03-.21.06-.28.08l-.19-.71c.09-.04.24-.09.44-.15.19-.06.44-.11.71-.16.23-.04.47-.06.72-.07ZM114.16,88.34v.75c-.37.02-.67.07-.89.17-.24.09-.42.22-.53.38-.11.16-.16.34-.16.55,0,.28.05.51.16.68.11.17.24.3.42.37.18.08.38.11.6.11.13,0,.26-.02.41-.07v.76c-.19.03-.4.05-.62.05-.38,0-.7-.07-.98-.21-.27-.14-.48-.35-.62-.62-.14-.27-.22-.6-.22-1,0-.31.06-.58.16-.8.1-.22.24-.41.42-.55.18-.14.37-.26.58-.34.21-.08.44-.14.67-.18.21-.04.43-.05.63-.06h0ZM97.06,104.22v-.76l.07-.02c.18-.06.35-.13.53-.22s.34-.18.48-.26c.14-.09.26-.16.36-.21.09-.06.14-.09.14-.1v-1.47l-1.54.08h-.04v-.74h.03l1.55-.04v-.9c0-.27-.03-.49-.09-.65-.07-.16-.17-.3-.3-.38-.14-.08-.31-.14-.52-.18-.19-.02-.41-.04-.66-.04v-.78h.18c.33,0,.63.02.91.08.28.06.52.15.72.28.21.13.36.31.48.53.11.22.17.5.18.84v3.61c0,.18.03.3.09.39s.14.15.23.18c.09.03.19.04.28.04l-.06.74c-.14.01-.28,0-.45-.01-.16-.02-.31-.06-.45-.11-.14-.06-.26-.15-.36-.26-.09-.11-.15-.26-.16-.45-.08.05-.17.13-.28.22-.11.09-.26.19-.43.28-.18.09-.38.18-.63.24-.08.02-.15.04-.23.05h0s0,.01,0,.01ZM106.37,97.91c-.1-.06-.23-.12-.38-.18-.16-.06-.35-.1-.57-.14-.22-.04-.48-.05-.77-.06-.46,0-.88.08-1.25.23-.38.15-.7.36-.97.65-.27.28-.48.63-.62,1.04-.14.42-.22.88-.22,1.4,0,.61.06,1.13.18,1.56.12.43.31.79.57,1.06.26.28.6.47,1.03.6.42.12.93.19,1.53.19.22,0,.43-.02.62-.04.19-.02.36-.06.51-.09.14-.04.26-.06.33-.08l-.13-.72c-.08.01-.19.03-.31.06-.13.03-.27.04-.43.07-.16.02-.32.02-.49.03-.48,0-.88-.05-1.2-.16-.32-.1-.57-.26-.75-.47-.19-.21-.31-.48-.39-.8-.08-.33-.11-.71-.11-1.15,0-.86.18-1.51.51-1.94.33-.44.82-.65,1.46-.65.21,0,.42.02.62.05.19.03.37.07.53.12.16.04.28.09.38.14l.36-.71h0s0,.01,0,.01ZM105.25,105.57c0-.14-.02-.27-.07-.41-.04-.13-.11-.26-.18-.38h-.87c.07.14.14.28.19.41.05.13.07.26.07.38,0,.16-.04.31-.15.45-.11.15-.28.3-.53.45l.29.52c.31-.13.56-.28.74-.43.18-.16.31-.32.4-.5.08-.18.11-.35.11-.52h0s0,.01,0,.01ZM113.14,104.18v-6.47h-.87v4.91c-.06.04-.15.1-.26.16-.12.07-.25.15-.41.23-.16.08-.32.16-.49.24-.17.07-.34.14-.5.19-.16.05-.31.08-.44.08-.29,0-.53-.05-.71-.15-.18-.1-.31-.23-.39-.4-.09-.18-.14-.37-.17-.6-.02-.23-.04-.47-.04-.72v-3.94h-.9v4.13c0,.22,0,.45.03.68.03.23.07.45.14.67.08.21.18.41.33.58.14.17.33.3.58.4.24.1.54.15.91.15.26,0,.51-.03.74-.09.23-.06.44-.14.63-.23.19-.09.36-.19.53-.29.16-.1.3-.2.43-.28v.76h.88,0ZM97.06,97.57v.78h-.09c-.15,0-.3.01-.47.04-.16.03-.31.06-.45.09-.14.04-.28.07-.4.1-.12.03-.21.06-.28.07l-.19-.71c.09-.04.24-.09.44-.15.19-.06.44-.11.71-.16.23-.04.47-.06.72-.07ZM97.06,100.52v.75c-.36.02-.67.07-.89.17-.24.09-.41.22-.53.38-.11.16-.16.34-.16.55,0,.28.05.51.16.68.1.17.24.3.41.37.18.08.38.11.6.11.13,0,.26-.02.41-.07v.76c-.19.03-.4.05-.62.05-.38,0-.7-.07-.98-.21-.27-.14-.48-.35-.62-.62-.14-.27-.22-.6-.22-1,0-.31.06-.59.16-.8.1-.22.24-.41.41-.55.18-.14.37-.26.58-.34.21-.08.44-.14.67-.18.21-.04.43-.05.63-.06h0ZM82.77,106.92v-.8c.18,0,.35-.03.51-.06.25-.04.47-.13.65-.25.18-.12.33-.3.43-.52.1-.23.16-.52.16-.89v-.69c-.13.1-.28.19-.43.28-.16.08-.33.15-.51.2-.18.05-.38.08-.6.08h-.21v-.78c.08,0,.18.01.26.01.17,0,.33-.03.48-.07.15-.04.28-.11.41-.18.13-.07.24-.14.33-.21.1-.08.18-.14.25-.19v-4.3c-.11-.02-.22-.03-.35-.04-.13-.01-.27-.02-.43-.04-.16-.01-.35-.01-.55-.01-.14,0-.28.01-.41.03v-.79c.14-.02.28-.03.42-.03.36,0,.74.03,1.11.07.38.04.75.1,1.11.16v6.69c0,.33-.05.63-.16.89-.1.26-.24.48-.41.65-.18.18-.38.33-.61.45-.23.12-.47.19-.73.25-.25.05-.49.07-.74.08ZM92.9,104.18v-6.47h-.87v4.91c-.06.04-.15.1-.26.16-.12.07-.25.15-.41.23-.16.08-.32.16-.49.24-.17.07-.34.14-.5.19-.16.05-.31.08-.44.08-.3,0-.53-.05-.71-.15-.18-.1-.31-.23-.39-.4-.09-.18-.14-.37-.17-.6-.03-.23-.04-.47-.04-.72v-3.94h-.9v4.13c0,.22,0,.45.03.68.03.23.07.45.14.67.08.21.18.41.33.58s.33.3.58.4c.24.1.54.15.91.15.26,0,.51-.03.74-.09.23-.06.44-.14.63-.23.19-.09.36-.19.53-.29.16-.1.3-.2.43-.28v.76h.88,0ZM82.77,97.7v.79c-.22.03-.41.09-.59.18-.28.14-.5.32-.67.56-.17.24-.3.51-.37.81-.08.31-.11.63-.11.97,0,.59.08,1.06.24,1.43.16.37.38.64.68.81.23.13.5.22.81.25v.78c-.2,0-.4-.03-.61-.06-.27-.04-.53-.13-.77-.26-.25-.13-.46-.31-.65-.56-.19-.24-.34-.57-.45-.96-.11-.4-.16-.88-.16-1.46,0-.54.08-1.02.25-1.43.16-.41.38-.75.66-1.03.28-.28.6-.48.97-.62.25-.1.5-.15.76-.18h.01ZM82.77,106.12v.8h-.04c-.24,0-.47-.01-.69-.03-.22-.02-.42-.04-.61-.08-.19-.03-.35-.06-.48-.09-.13-.03-.23-.06-.3-.08l.13-.71c.07.01.17.04.3.06.13.02.28.04.45.06.16.02.33.04.5.05.16.01.31.02.44.02h.3,0ZM68.09,104.33v-.76h.03c.31,0,.58-.05.81-.15.23-.09.41-.23.56-.4.15-.18.26-.36.35-.59.09-.23.15-.46.18-.71.04-.25.05-.51.05-.77,0-.24-.02-.48-.05-.74-.04-.24-.09-.48-.18-.71-.08-.23-.21-.43-.35-.62-.15-.18-.34-.32-.57-.43-.23-.11-.5-.16-.82-.16h0v-.74h.04c.96,0,1.68.29,2.16.87.48.58.72,1.42.72,2.54,0,.57-.08,1.06-.23,1.48-.15.42-.36.77-.63,1.06-.27.28-.59.49-.95.63-.35.13-.72.2-1.11.21h0s0-.01,0-.01ZM78,104.19v-8.37h-.94v8.37h.94ZM68.09,97.56v.74c-.31,0-.58.06-.8.16-.23.11-.41.25-.57.42-.15.18-.27.38-.36.61-.09.23-.15.46-.19.72-.04.25-.06.5-.06.75,0,.34.03.67.1.98.07.31.18.59.33.83.16.25.36.44.62.58.25.14.57.21.93.22v.76h-.06c-.59,0-1.1-.13-1.53-.38-.42-.26-.75-.63-.97-1.13-.23-.49-.34-1.09-.34-1.8,0-.56.08-1.06.22-1.49.14-.43.35-.79.62-1.09.26-.3.58-.52.93-.67.35-.15.73-.22,1.14-.23h0ZM60.64,104.28v-.77h.13c.17,0,.33-.03.5-.09.16-.06.31-.13.46-.21.14-.08.27-.17.38-.25.11-.08.2-.15.27-.21v-4.16c-.15-.04-.33-.08-.55-.1-.22-.02-.48-.03-.8-.03-.13,0-.26.01-.38.03v-.81c.14-.02.28-.02.42-.02.18,0,.32,0,.44.01.12,0,.22.01.31.03.09.01.18.03.26.06.09.03.19.05.3.08v-2.58h.91v8.93h-.91v-.59c-.14.12-.31.24-.48.34-.18.1-.36.18-.56.25-.19.06-.41.09-.63.09h-.07v.02ZM60.64,97.68v.81c-.23.03-.43.09-.61.18-.27.14-.49.32-.65.56-.16.24-.28.51-.36.81-.08.31-.11.63-.11.98,0,.58.08,1.06.24,1.43.16.37.38.64.65.81.25.16.53.24.84.25v.77c-.21,0-.43-.02-.66-.06-.25-.04-.49-.13-.73-.26-.23-.13-.45-.31-.63-.56-.19-.24-.33-.57-.45-.96-.11-.4-.17-.88-.17-1.46,0-.54.08-1.02.25-1.43.16-.42.38-.76.66-1.04.28-.28.6-.48.97-.63.25-.09.5-.16.76-.19h0Z"/><path class="cls-4" d="M37.21,30.73h-15.71v16.34h15.71v-16.34Z"/><path class="cls-4" d="M37.21,48.38h-15.71v16.34h15.71v-16.34Z"/><path class="cls-4" d="M37.21,13h-15.71v16.34h15.71V13Z"/><path class="cls-4" d="M54.29,30.73h-15.71v16.34h15.71v-16.34Z"/><path class="cls-4" d="M54.29,13h-15.71v16.34h15.71V13Z"/><path class="cls-3" d="M120.82,49.98h5.82v7.55c0,2.07.45,2.74,2.29,2.74s2.35-.67,2.35-2.74v-7.55h3.92v7.61c0,4.7-3.19,5.88-6.26,5.88s-6.2-1.18-6.2-5.88v-4.76h-1.9v-2.86ZM100.5,60.27v-2.97h1.59l-1.56-4.81-.03.08v-2.6h2.55l5.04,13.15h-4.03l-1.06-2.86h-2.49ZM116.51,64.02c0-.22-.06-.45-.06-.67,1.12-.06,1.96-.28,3.19-.79l-.67-2.86c-1.06.22-1.85.39-3.07.39-2.24,0-3.8-.84-3.8-3.69,0-2.69,1.68-3.64,3.41-3.64,1.28,0,2.24.22,3.19.5l.67-2.91c-1.12-.39-2.29-.62-3.97-.62-4.98,0-7.27,2.52-7.27,6.88,0,3.69,1.79,6.21,5.64,6.6v.28c0,1.06-1.57,1.62-2.29,1.85l2.01,2.46c1.34-.62,3.02-1.96,3.02-3.81v.02h0ZM100.5,49.98v2.6l-1.6,4.73h1.6v2.97h-2.49l-1.01,2.86h-4.03l5.04-13.15h2.49ZM86.32,60.27c1.85,0,2.29-.67,2.29-2.74v-7.55h3.92v7.61c0,4.7-3.19,5.88-6.2,5.88s-6.26-1.18-6.26-5.88v-7.61h3.92v7.55c0,2.07.45,2.74,2.34,2.74h0ZM63.4,63.13v-13.15h-5.81v2.86h1.95v10.29h3.86ZM77.88,55.29h-5.31v2.74h1.85v2.13h-.95c-2.29,0-3.92-1.18-3.92-3.64,0-2.63,1.51-3.75,3.8-3.75,1.12,0,2.12.16,3.46.5h.06l.62-2.86c-1.18-.45-2.4-.73-4.14-.73-4.98,0-7.61,2.18-7.61,6.99,0,4.47,2.85,6.71,7.49,6.71,1.68,0,2.97-.28,4.64-.89v-7.22Z"/><path class="cls-4" d="M128.12,46.17v-3.01c.86-.01,1.56-.19,2.08-.51.54-.33.94-.79,1.18-1.38.24-.59.36-1.28.36-2.06s-.13-1.45-.38-2.03c-.25-.58-.64-1.04-1.16-1.36-.53-.33-1.2-.5-2.03-.5h-.05v-3.01h.22c1.26,0,2.35.17,3.27.5.91.33,1.67.79,2.26,1.4.59.61,1.02,1.33,1.31,2.19.28.85.43,1.8.43,2.84,0,1.49-.3,2.75-.88,3.78-.58,1.03-1.45,1.81-2.58,2.34-1.1.52-2.44.79-4.02.81h0ZM128.12,32.32v3.01c-.85,0-1.54.18-2.07.5-.54.33-.94.78-1.18,1.36s-.36,1.25-.36,2.01c0,.57.07,1.1.2,1.58.13.48.35.9.63,1.26.28.36.65.64,1.09.83.45.19.98.3,1.6.3h.1v3.01h-.15c-1.63,0-2.98-.29-4.07-.86-1.08-.56-1.89-1.36-2.44-2.4-.55-1.03-.82-2.26-.81-3.7,0-1.13.18-2.13.53-2.99.36-.86.86-1.59,1.53-2.16.67-.58,1.48-1.02,2.42-1.31.89-.28,1.87-.42,2.97-.44h0ZM111.71,45.89v-3c.45-.07.83-.18,1.16-.33.59-.27,1.01-.67,1.28-1.21.26-.53.38-1.2.38-1.99,0-.86-.15-1.59-.45-2.16-.3-.58-.78-1.01-1.42-1.3-.28-.13-.59-.22-.94-.3v-3.05c.62.06,1.21.17,1.76.31.99.26,1.85.66,2.57,1.2.73.54,1.29,1.24,1.69,2.09.4.85.6,1.86.6,3.03s-.19,2.17-.56,3.02-.91,1.55-1.6,2.11c-.7.56-1.54.96-2.53,1.23-.6.16-1.24.28-1.94.34h0ZM68.7,35.47v-2.98h-9.95v13.45h3.82v-4.29h5.71v-2.81h-5.71v-3.38h6.14ZM111.71,32.57v3.05c-.46-.09-.97-.14-1.55-.14h-1.26v7.49h1.63c.43,0,.82-.03,1.18-.08v3c-.45.04-.92.06-1.4.06h-5.2v-13.45h5.1c.52,0,1.02.03,1.5.08h0ZM84.5,40.36v-7.86h-3.77v7.81c0,.71-.09,1.26-.28,1.66-.19.4-.48.68-.88.84-.4.16-.91.24-1.53.23-.63,0-1.16-.07-1.55-.21-.4-.14-.68-.39-.86-.73-.18-.35-.28-.81-.27-1.4v-8.21h-3.84v8.31c0,.88.13,1.63.38,2.26.25.62.58,1.14,1.02,1.55.43.41.93.73,1.48.96.56.23,1.14.4,1.77.48.62.1,1.25.14,1.88.14.62,0,1.24-.05,1.85-.15.61-.11,1.19-.28,1.74-.54.55-.25,1.04-.6,1.47-1.05.43-.45.76-1,1.01-1.68.25-.67.37-1.48.38-2.42h0ZM101.42,45.95v-13.45h-3.82v6.83l.1,1.43-5.54-8.26h-4.21v13.45h3.82v-6.36l-.19-1.68,5.54,8.04h4.31,0Z"/></g><rect class="cls-2" x="0" y="-39.5" width="199" height="199"/></svg>