<?xml version="1.0" encoding="UTF-8"?><svg id="Layer_1" xmlns="http://www.w3.org/2000/svg" xmlns:xlink="http://www.w3.org/1999/xlink" viewBox="0 0 199 120"><defs><style>.cls-1{clip-path:url(#clippath);}.cls-2{fill:none;}.cls-2,.cls-3,.cls-4{stroke-width:0px;}.cls-3{fill-rule:evenodd;}.cls-3,.cls-4{fill:#98876c;}</style><clipPath id="clippath"><rect class="cls-2" x="39" y="11.5" width="122" height="97"/></clipPath></defs><g class="cls-1"><path class="cls-4" d="M149.77,88.73c7.9,0,11.23-2.87,11.23-11.18v-13.95h-8.05v15.87c0,1.96-.84,3.53-3.18,3.53s-3.19-1.57-3.19-3.53v-15.87h-8.04v13.95c0,8.3,3.34,11.18,11.23,11.18ZM88.11,82.61h-8.85l-2.02,5.57h-8.29l8-21.44c.86-2.33,2.2-3.22,4.79-3.22h3.89c2.59,0,3.94.89,4.79,3.22l8,21.44h-8.29l-2.02-5.57h0ZM80.5,77.58h6.39l-2.44-8.13c-.11-.33-.25-.5-.75-.5s-.64.17-.74.5l-2.45,8.13ZM71.78,63.6v5.52h-6.87v19.06h-8.07v-19.06h-6.87v-5.52h21.81ZM39,63.6h8.07v24.59h-8.07v-24.59ZM127.6,72.29c0,1.68-.59,3.35-4.1,3.35h-2.53v-6.83h2.53c3.51,0,4.1,1.66,4.1,3.35v.13ZM121.01,81.04h4.29c7.07,0,10.22-2.89,10.22-8.67s-3.16-8.76-10.22-8.76h-12.36v24.59h8.07v-7.16ZM100.48,63.61h8.07v24.59h-8.07v-24.59Z"/><path class="cls-4" d="M122.94,11.5h-19.85v18.45h19.85V11.5Z"/><path class="cls-3" d="M103,34.56h21.47l22.9,23.06h-30.53l-13.84-23.06Z"/><path class="cls-4" d="M96.94,11.5h-19.85v18.45h19.85V11.5Z"/><path class="cls-3" d="M97.03,34.56h-21.47l-22.9,23.06h30.53l13.84-23.06Z"/><path class="cls-4" d="M56.42,104.14c0,2.71-1.65,4.06-4.96,4.06h-4.79v-13.69h4.78c2.88,0,4.31,1.18,4.31,3.53,0,1.3-.52,2.21-1.55,2.73-.12.06-.28.11-.51.12.19,0,.36.02.51.07,1.45.51,2.18,1.57,2.18,3.17M54.26,98.03c0-.86-.27-1.47-.8-1.8-.43-.27-1.09-.4-2-.4h-3.3v4.48h3.51c1.74,0,2.61-.76,2.61-2.28h0ZM54.92,104.13c0-1.64-1.09-2.48-3.27-2.48h-3.51v5.21h3.3c1.28,0,2.18-.2,2.69-.61.52-.41.77-1.12.77-2.12h0ZM60.52,108.19h-1.47v-13.69h1.47v13.69ZM74.56,108.19h-1.4l-8.18-11.38c.09.3.14.58.14.83v10.54h-1.47v-13.69h1.4l8.15,11.33c-.07-.34-.11-.59-.11-.74v-10.6h1.47v13.71h0ZM88.36,108.19h-1.57l-1.57-4.26h-5.6l-1.57,4.26h-1.51l5.04-13.69h1.74l5.02,13.69h0ZM84.72,102.55l-1.89-5.18c-.15-.42-.28-.87-.39-1.37-.12.51-.25.97-.39,1.37l-1.9,5.18h4.59,0ZM100.01,105.74c-.79,1.84-2.34,2.75-4.64,2.75-2.1,0-3.61-.7-4.5-2.07-.73-1.14-1.1-2.82-1.1-5.08,0-2.38.39-4.13,1.17-5.26.87-1.25,2.31-1.88,4.3-1.88,1.53,0,2.71.4,3.53,1.19.68.65,1.05,1.47,1.13,2.46h-1.36c-.21-1.53-1.31-2.3-3.32-2.3-1.63,0-2.72.55-3.29,1.63-.43.81-.63,2.2-.63,4.16,0,1.84.22,3.19.67,4.04.62,1.17,1.75,1.76,3.4,1.76s2.88-.7,3.49-2.1l1.15.71ZM104.23,108.19h-1.47v-13.69h1.47v13.69ZM118.19,101.18c0,2.36-.38,4.13-1.13,5.28-.89,1.36-2.39,2.04-4.51,2.04s-3.59-.68-4.47-2.04c-.74-1.14-1.1-2.89-1.1-5.28,0-2.18.37-3.83,1.1-4.94.89-1.36,2.38-2.04,4.47-2.04s3.6.68,4.51,2.04c.75,1.12,1.13,2.76,1.13,4.94ZM116.68,101.18c0-1.91-.28-3.3-.85-4.16-.64-.99-1.73-1.48-3.29-1.48s-2.63.49-3.26,1.48c-.54.85-.81,2.23-.81,4.15,0,2.09.27,3.58.82,4.47.61,1,1.69,1.5,3.25,1.5s2.66-.5,3.28-1.5c.57-.9.85-2.39.85-4.47h0ZM131.85,108.19h-1.4l-8.19-11.38c.09.3.14.58.14.83v10.54h-1.47v-13.69h1.4l8.15,11.33c-.07-.34-.11-.59-.11-.74v-10.6h1.47v13.71h0ZM145.65,108.19h-1.57l-1.57-4.26h-5.6l-1.57,4.26h-1.51l5.04-13.69h1.74l5.02,13.69h0ZM142.02,102.55l-1.89-5.18c-.15-.42-.28-.87-.39-1.37-.12.51-.25.97-.39,1.37l-1.9,5.18h4.59,0ZM155.36,108.19h-7.69v-13.69h1.47v12.36h6.23v1.33h0Z"/></g><rect class="cls-2" y="-39.5" width="199" height="199"/></svg>