<?xml version="1.0" encoding="UTF-8"?><svg id="Layer_1" xmlns="http://www.w3.org/2000/svg" viewBox="0 0 199 120"><defs><style>.cls-1{fill:none;}.cls-1,.cls-2{stroke-width:0px;}.cls-2{fill:#98876c;}</style></defs><rect class="cls-1" x="0" y="-39.5" width="199" height="199"/><polygon class="cls-2" points="48.94 106.5 53.32 106.5 53.32 107.44 49.97 107.44 49.97 109.05 52.94 109.05 52.94 109.99 49.97 109.99 49.97 112.38 48.94 112.38 48.94 106.5"/><path class="cls-2" d="M54.1,109.46v-.02c0-1.65,1.28-3.04,3.08-3.04s3.06,1.37,3.06,3.02v.02c0,1.65-1.28,3.04-3.08,3.04s-3.06-1.37-3.06-3.02M59.16,109.46v-.02c0-1.14-.83-2.09-2-2.09s-1.98.93-1.98,2.07v.02c0,1.14.83,2.08,2,2.08s1.98-.92,1.98-2.07"/><path class="cls-2" d="M61.4,109.89v-3.38h1.03v3.34c0,1.09.56,1.67,1.49,1.67s1.48-.55,1.48-1.63v-3.38h1.03v3.33c0,1.76-.99,2.64-2.53,2.64s-2.5-.88-2.5-2.58"/><polygon class="cls-2" points="67.85 106.5 68.81 106.5 71.96 110.57 71.96 106.5 72.97 106.5 72.97 112.38 72.11 112.38 68.87 108.2 68.87 112.38 67.85 112.38 67.85 106.5"/><path class="cls-2" d="M74.48,106.5h2.19c1.85,0,3.12,1.27,3.12,2.92v.02c0,1.65-1.28,2.94-3.12,2.94h-2.19v-5.88ZM75.52,107.44v4h1.16c1.23,0,2.04-.83,2.04-1.98v-.02c0-1.15-.81-2-2.04-2h-1.16Z"/><path class="cls-2" d="M83.09,106.46h.96l2.59,5.92h-1.09l-.59-1.42h-2.78l-.6,1.42h-1.06l2.59-5.92ZM84.57,110.05l-1.02-2.35-1.01,2.35h2.02Z"/><polygon class="cls-2" points="88.89 107.46 87.03 107.46 87.03 106.5 91.8 106.5 91.8 107.46 89.93 107.46 89.93 112.38 88.89 112.38 88.89 107.46"/><rect class="cls-2" x="92.95" y="106.5" width="1.03" height="5.88"/><path class="cls-2" d="M95.29,109.46v-.02c0-1.65,1.28-3.04,3.08-3.04s3.06,1.37,3.06,3.02v.02c0,1.65-1.28,3.04-3.08,3.04s-3.06-1.37-3.06-3.02M100.35,109.46v-.02c0-1.14-.83-2.09-2-2.09s-1.98.93-1.98,2.07v.02c0,1.14.83,2.08,2,2.08s1.98-.92,1.98-2.07"/><polygon class="cls-2" points="102.69 106.5 103.64 106.5 106.79 110.57 106.79 106.5 107.81 106.5 107.81 112.38 106.94 112.38 103.7 108.2 103.7 112.38 102.69 112.38 102.69 106.5"/><polygon class="cls-2" points="50.08 92.04 52.11 92.04 54.7 97.87 57.3 92.04 59.34 92.04 61.22 100.39 59.17 100.39 57.99 95.12 55.63 100.39 53.76 100.39 51.42 95.12 50.19 100.39 48.14 100.39 50.08 92.04"/><polygon class="cls-2" points="94.79 92.04 96.82 92.04 99.41 97.87 102 92.04 104.05 92.04 105.92 100.39 103.88 100.39 102.69 95.12 100.34 100.39 98.46 100.39 96.12 95.12 94.89 100.39 92.85 100.39 94.79 92.04"/><path class="cls-2" d="M114.81,96.93h-6.03c.26,1.16,1.14,1.86,2.34,1.86.84,0,1.62-.32,2.2-.92l1.07,1.11c-.81.89-2,1.4-3.43,1.4-2.54,0-4.2-1.68-4.2-4.14s1.71-4.17,4.15-4.17c2.87,0,4.11,1.88,3.91,4.84M113.01,95.6c-.05-1.21-.86-1.97-2.09-1.97s-2,.76-2.18,1.97h4.27Z"/><path class="cls-2" d="M130.21,95.22v5.1h-2v-4.52c0-1.16-.69-1.86-1.79-1.86-1.28.05-2.06,1.02-2.06,2.35v4.03h-2v-4.52c0-1.16-.67-1.86-1.77-1.86-1.3.05-2.08,1.02-2.08,2.35v4.03h-1.98v-8.17h1.98v1.51c.57-1.08,1.57-1.57,2.87-1.59,1.44,0,2.43.72,2.81,1.95.53-1.33,1.6-1.94,3.04-1.95,1.85,0,2.98,1.21,2.98,3.15"/><path class="cls-2" d="M140.3,96.23c0,2.49-1.76,4.17-4.32,4.17s-4.31-1.68-4.31-4.17,1.76-4.14,4.31-4.14,4.32,1.66,4.32,4.14M133.69,96.25c0,1.47.95,2.47,2.29,2.47s2.3-1.01,2.3-2.47-.95-2.46-2.3-2.46-2.29.99-2.29,2.46"/><path class="cls-2" d="M146.79,92.07v1.92c-1.72-.11-2.78.9-2.78,2.38v3.94h-1.99v-8.17h1.99v1.57c.55-1.07,1.51-1.63,2.78-1.65"/><path class="cls-2" d="M150.29,89.81c0,.67-.46,1.17-1.11,1.17s-1.11-.5-1.11-1.17.46-1.18,1.11-1.18,1.11.49,1.11,1.18M150.17,100.32h-1.98v-8.17h1.98v8.17Z"/><path class="cls-2" d="M159.94,96.93h-6.03c.26,1.16,1.14,1.86,2.34,1.86.84,0,1.62-.32,2.2-.92l1.07,1.11c-.81.89-2,1.4-3.43,1.4-2.54,0-4.2-1.68-4.2-4.14s1.71-4.17,4.15-4.17c2.87,0,4.11,1.88,3.91,4.84M158.13,95.6c-.05-1.21-.86-1.97-2.09-1.97s-2,.76-2.18,1.97h4.27Z"/><path class="cls-2" d="M164.1,93.61c-.64,0-1.1.21-1.1.72,0,1.37,4.32.65,4.32,3.59,0,1.66-1.48,2.47-3.22,2.47-1.24,0-2.52-.4-3.37-1.15l.69-1.39c.75.64,1.88,1.01,2.76,1.01.69,0,1.21-.23,1.21-.76,0-1.51-4.26-.69-4.24-3.59,0-1.68,1.44-2.46,3.08-2.46,1.07,0,2.18.32,2.99.87l-.72,1.43c-.79-.47-1.69-.75-2.4-.75"/><path class="cls-2" d="M70.98,96.23c0,2.49-1.76,4.17-4.32,4.17s-4.31-1.68-4.31-4.17,1.76-4.14,4.31-4.14,4.32,1.66,4.32,4.14M64.37,96.25c0,1.47.95,2.47,2.29,2.47s2.3-1.01,2.3-2.47-.95-2.46-2.3-2.46-2.29.99-2.29,2.46"/><path class="cls-2" d="M77.47,92.07v1.92c-1.73-.11-2.78.9-2.78,2.38v3.94h-1.98v-8.17h1.98v1.57c.55-1.07,1.51-1.63,2.78-1.65"/><path class="cls-2" d="M85.91,96.93h-6.03c.26,1.16,1.14,1.86,2.34,1.86.84,0,1.62-.32,2.2-.92l1.07,1.11c-.81.89-2,1.4-3.44,1.4-2.53,0-4.2-1.68-4.2-4.14s1.71-4.17,4.15-4.17c2.87,0,4.11,1.88,3.91,4.84M84.11,95.6c-.05-1.21-.85-1.97-2.09-1.97s-2,.76-2.18,1.97h4.27Z"/><polygon class="cls-2" points="50.08 77.85 52.11 77.85 54.7 83.67 57.3 77.85 59.34 77.85 61.22 86.2 59.17 86.2 57.99 80.92 55.63 86.2 53.76 86.2 51.42 80.92 50.19 86.2 48.14 86.2 50.08 77.85"/><polygon class="cls-2" points="94.79 77.85 96.82 77.85 99.41 83.67 102 77.85 104.05 77.85 105.92 86.2 103.88 86.2 102.69 80.92 100.34 86.2 98.46 86.2 96.12 80.92 94.89 86.2 92.85 86.2 94.79 77.85"/><path class="cls-2" d="M70.98,82.03c0,2.49-1.76,4.17-4.32,4.17s-4.31-1.68-4.31-4.17,1.76-4.14,4.31-4.14,4.32,1.66,4.32,4.14M64.37,82.06c0,1.47.95,2.47,2.29,2.47s2.3-1.01,2.3-2.47-.95-2.46-2.3-2.46-2.29.99-2.29,2.46"/><path class="cls-2" d="M77.47,77.88v1.92c-1.73-.11-2.78.9-2.78,2.38v3.94h-1.98v-8.17h1.98v1.57c.55-1.07,1.51-1.63,2.78-1.65"/><path class="cls-2" d="M85.91,82.73h-6.03c.26,1.16,1.14,1.86,2.34,1.86.84,0,1.62-.32,2.2-.92l1.07,1.11c-.81.89-2,1.4-3.44,1.4-2.53,0-4.2-1.68-4.2-4.14s1.71-4.17,4.15-4.17c2.87,0,4.11,1.88,3.91,4.84M84.11,81.4c-.05-1.21-.85-1.97-2.09-1.97s-2,.76-2.18,1.97h4.27Z"/><path class="cls-2" d="M115.57,82.01c0,2.49-1.75,4.17-4.32,4.17s-4.3-1.68-4.3-4.17,1.75-4.14,4.3-4.14,4.32,1.66,4.32,4.14M108.96,82.05c0,1.47.95,2.47,2.29,2.47s2.3-1.01,2.3-2.47-.95-2.46-2.3-2.46-2.29.99-2.29,2.46"/><path class="cls-2" d="M131.56,81.01v5.1h-2v-4.52c0-1.16-.69-1.86-1.79-1.86-1.28.05-2.06,1.02-2.06,2.35v4.03h-2v-4.52c0-1.16-.67-1.86-1.77-1.86-1.3.05-2.08,1.02-2.08,2.35v4.03h-1.98v-8.17h1.98v1.51c.57-1.08,1.57-1.57,2.87-1.59,1.44,0,2.43.72,2.81,1.95.53-1.33,1.6-1.94,3.04-1.95,1.85,0,2.98,1.21,2.98,3.14"/><path class="cls-2" d="M141.67,82.72h-6.03c.26,1.16,1.14,1.86,2.34,1.86.84,0,1.62-.32,2.2-.92l1.07,1.11c-.81.89-2,1.41-3.44,1.41-2.53,0-4.2-1.68-4.2-4.14s1.71-4.17,4.15-4.17c2.87,0,4.11,1.88,3.91,4.84M139.87,81.39c-.05-1.21-.85-1.97-2.09-1.97s-2,.76-2.18,1.97h4.27Z"/><path class="cls-2" d="M151.92,81.01v5.1h-2v-4.52c0-1.14-.69-1.85-1.82-1.85-1.34.02-2.14,1.01-2.14,2.35v4.01h-1.98v-8.17h1.98v1.53c.58-1.08,1.6-1.59,2.93-1.6,1.88,0,3.02,1.21,3.02,3.14"/><path class="cls-2" d="M131.33,67.14l1.57-4.96-4.63-14.6h0s-.01-.06-.03-.09c-.2-.59-1.25-3.52-2.93-3.52h0c-1.68,0-2.74,2.92-2.93,3.51l-1.38,4.34,4.88,15.39c.18.54,1.08,3.04,2.54,3.44,1.67-.03,2.71-2.92,2.9-3.51Z"/><path class="cls-2" d="M77.82,47.58h0s-.03-.1-.03-.1c-.19-.59-1.24-3.51-2.93-3.51h0c-1.68,0-2.74,2.92-2.93,3.51l-1.37,4.32,4.88,15.41c.19.57,1.21,3.41,2.86,3.5,1.64-.08,2.67-2.92,2.86-3.5l1.45-4.56-4.78-15.07Z"/><path class="cls-2" d="M39.29,17.96c-2.25,2.34-2.64,5.54-2.7,6.8l5.72,18.25,4.12-12.26-4.8-14.49c-.89.43-1.67,1-2.34,1.69Z"/><path class="cls-2" d="M47,58l2.89,9.21c.19.58,1.25,3.5,2.93,3.5h.24c1.69,0,2.74-2.92,2.93-3.51l1.23-3.87-6.09-18.4-4.12,13.06Z"/><path class="cls-2" d="M106.45,67.21l1.37-4.33-4.88-15.39c-.19-.59-1.25-3.51-2.93-3.51h0c-1.68,0-2.74,2.92-2.93,3.51l-1.37,4.33,4.88,15.4c.19.58,1.24,3.5,2.93,3.5s2.74-2.92,2.93-3.51Z"/><path class="cls-2" d="M157.09,67.15l1.14-3.61-5.06-15.97s-.02-.08-.05-.15c-.19-.58-1.26-3.51-2.93-3.51h0c-1.68,0-2.73,2.92-2.93,3.51l-1.37,4.33,4.88,15.4c.19.58,1.25,3.51,2.93,3.51h.46c1.69,0,2.74-2.92,2.93-3.51Z"/><path class="cls-2" d="M91.78,43.97h-.91c-1.69,0-2.74,2.93-2.93,3.51l-.06.19-4.75,14.97-.13.42-.13.43-1.23,3.87c-.22.67-.9,2.46-2.04,3.35h7.77s.05,0,.07,0c1.65-.08,2.67-2.92,2.86-3.5l4.88-15.39.13-.42.13-.42,1.16-3.64c.22-.67.9-2.47,2.04-3.35h-6.86Z"/><path class="cls-2" d="M117.55,43.97h-1.38c-1.68,0-2.74,2.93-2.93,3.51-.03.07-.04.12-.04.13l-4.84,15.26-.13.42-.13.42-1.16,3.65c-.22.67-.9,2.46-2.04,3.35h7.77c1.69,0,2.74-2.92,2.93-3.51l4.88-15.39.13-.42.13-.42,1.16-3.65c.22-.67.9-2.47,2.04-3.35h-6.4Z"/><polygon class="cls-2" points="128.4 70.91 128.4 70.91 128.4 70.91 128.4 70.91"/><path class="cls-2" d="M141.05,43.91c-1.74,0-2.81,3.15-2.93,3.51-.03.08-.04.13-.04.14l-4.63,14.62-.13.42-.13.43-1.36,4.28c-.22.67-.9,2.47-2.04,3.35h7.77s.02,0,.03,0c1.68-.03,2.71-2.92,2.9-3.5l4.88-15.4.13-.42.13-.42,1.16-3.65c.22-.67.9-2.46,2.04-3.35,0,0,0,0,0,0h-7.77Z"/><path class="cls-2" d="M165.19,57.66l-.17.06-3.23-3.72-3.02,9.54-.13.42-.13.42-.92,2.92c-.22.67-.9,2.47-2.04,3.35h7.77c1.68,0,2.74-2.92,2.93-3.51l3.59-11.34c-1.61.7-4.5,1.8-4.64,1.86Z"/><path class="cls-2" d="M54.3,17.95c-.69-.73-1.51-1.31-2.45-1.75l-4.89,14.56-.14.4-.14.4-4.13,12.28-.14.41-.14.41-13.12,39.05,5.02-1.54,3.13,4.83,9.15-29,.13-.43.13-.43,4.11-13.04.13-.42.13-.42,5.77-18.28c0-1.03-.21-4.54-2.58-7.05Z"/><path class="cls-2" d="M66.63,43.97h-.92c-1.69,0-2.74,2.93-2.93,3.51l-.06.19-4.96,15.66-.13.42-.13.41-1.01,3.2c-.22.67-.9,2.46-2.04,3.35h7.77c1.69,0,2.74-2.92,2.93-3.51l4.88-15.41.13-.42.13-.42,1.15-3.63c.22-.67.9-2.47,2.05-3.35h-6.85Z"/><path class="cls-2" d="M36.22,23.3c.08-.51.21-1.08.4-1.69.14-.45.31-.91.53-1.37.41-.9.98-1.81,1.77-2.63.73-.76,1.58-1.36,2.54-1.83.08-.04.16-.07.24-.1.08-.03.16-.07.24-.1,1.41-.59,3.04-.89,4.89-.89s3.36.28,4.72.83c.08.03.16.07.24.1.08.03.16.07.23.1,1.02.47,1.91,1.1,2.66,1.89.86.91,1.44,1.92,1.84,2.91.29.72.49,1.43.62,2.07.05.25.09.48.12.71.01.1.03.2.04.3,0,0,0-.02,0-.02.05-.21.09-.45.14-.7.55-2.98,1.01-8.19-1.48-11.68-1.74-2.43-4.65-3.67-8.65-3.67s-6.97,1.23-8.87,3.65c-2.68,3.42-2.63,8.51-2.29,11.54.02.21.05.4.07.59Z"/><path class="cls-2" d="M159.51,85.6c-.63.38-1.33.6-2.05.6-1.33,0-2.4-.76-2.4-2.44v-4.03h-1.14l-.02-1.45h1.16v-2.24h1.97v2.24h2.34v1.45h-2.34v3.68c0,.78.32,1.04.85,1.04.34,0,.72-.12,1.16-.34l.46,1.5Z"/><path class="cls-2" d="M164.1,79.4c-.64,0-1.1.21-1.1.72,0,1.37,4.32.66,4.32,3.59,0,1.66-1.48,2.47-3.22,2.47-1.24,0-2.52-.4-3.37-1.15l.69-1.39c.75.64,1.88,1.01,2.76,1.01.69,0,1.21-.23,1.21-.76,0-1.51-4.26-.69-4.24-3.59,0-1.68,1.44-2.46,3.08-2.46,1.07,0,2.18.32,2.99.87l-.72,1.44c-.79-.47-1.69-.75-2.4-.75"/></svg>