<?xml version="1.0" encoding="UTF-8"?><svg id="Layer_1" xmlns="http://www.w3.org/2000/svg" viewBox="0 0 199 120"><defs><style>.cls-1{fill:none;}.cls-1,.cls-2{stroke-width:0px;}.cls-2{fill:#98876c;}</style></defs><rect class="cls-1" x="0" y="-39.5" width="199" height="199"/><path class="cls-2" d="M65.24,43.16h2.46v1.81h.6v-4.16h-.6v1.79h-2.46v-1.79h-.6v4.16h.6v-1.81Z"/><path class="cls-2" d="M52.19,71.73v-25.98l3.24.02v-2.16l-10.25.02-8.47,21.44-7.04-21.57-7.74-.02v28.16h-3.58c0,.87,0,1.74-.02,2.61h6.24v-27.24l9.79,27.39h1.12l10.57-27.61v27.47h9.38v-2.5l-3.25-.02Z"/><path class="cls-2" d="M59.87,43.13c.31.19.5.34.59.44.08.1.11.23.11.35,0,.16-.07.29-.18.39-.11.1-.52.15-.73.15-.2,0-.39-.05-.55-.15l-.02.63c.18.06.39.1.62.1.37,0,.89-.1,1.14-.31.23-.21.36-.47.36-.79,0-.27-.07-.52-.19-.71-.13-.19-.39-.4-.8-.66-.02-.02-.05-.03-.1-.05-.5-.31-.75-.56-.75-.77,0-.15.08-.29.21-.39.07-.05.24-.11.37-.13.13-.02.49.08.59.08l.03-.53c-.18,0-.62-.08-.8-.03-.21.05-.44.13-.55.24-.23.21-.42.5-.42.82,0,.23.07.42.18.6.13.19.42.42.89.73Z"/><path class="cls-2" d="M80.91,51.61l-8.29.06v1.47l3.24.02v12.51c0,8.61-11.12,10.11-11.12.95v-15.01l-7.87.02v1.45l2.99.08v15.43c0,4.88,4.37,5.88,7.79,5.88s6.47-1.27,8.21-3.76l-.02,3.61h8.96v-2.34l-3.89-.03v-20.34Z"/><path class="cls-2" d="M96.51,41.73l2.78,3.24h.54v-4.16h-.6v3.22l-2.8-3.22h-.52v4.16h.6v-3.24Z"/><path class="cls-2" d="M92.28,40.81h-.6v4.16h.6v-4.16Z"/><path class="cls-2" d="M103.91,44.68c.2.11.39.21.62.27.23.06.46.1.72.1.23,0,.47-.03.72-.1.24-.06.52-.15.8-.26v-1.76h-1.41v.55h.8v.81c-.15.06-.31.11-.46.15-.15.03-.29.05-.44.05-.49,0-.88-.15-1.2-.45-.32-.31-.47-.68-.47-1.13s.16-.84.49-1.14c.33-.31.73-.45,1.22-.45.23,0,.46.03.68.1.23.06.49.18.76.32v-.64c-.24-.11-.49-.19-.73-.24-.24-.05-.47-.08-.72-.08-.34,0-.67.05-.94.16-.28.1-.54.26-.76.47-.21.19-.37.44-.49.69-.11.26-.18.53-.18.81,0,.37.08.73.26,1.03.2.29.44.55.75.76Z"/><path class="cls-2" d="M79.84,43.18h.72c.44,0,.8-.1,1.04-.31.24-.21.37-.5.37-.87s-.13-.66-.37-.87c-.24-.21-.59-.32-1.04-.32h-1.32v4.16h.6v-1.79ZM79.84,41.34h.65c.29,0,.5.05.63.16.13.1.2.27.2.5s-.07.39-.2.5c-.13.1-.34.16-.63.16h-.65v-1.32Z"/><path class="cls-2" d="M72.2,44.42c.21.19.46.35.73.47.28.11.57.16.86.16.31,0,.6-.05.88-.16.28-.11.52-.26.73-.47.21-.19.37-.44.49-.69.11-.26.16-.53.16-.82,0-.31-.05-.58-.16-.84-.11-.26-.28-.5-.49-.71-.21-.19-.46-.35-.73-.47-.28-.11-.57-.16-.88-.16s-.59.05-.86.16c-.28.11-.52.26-.73.47-.21.19-.37.44-.49.69-.11.26-.18.53-.18.81,0,.31.05.58.16.84.11.27.29.52.5.73ZM72.29,42.28c.08-.19.19-.37.34-.52.16-.15.34-.27.54-.35.2-.08.41-.11.6-.11.21,0,.42.03.62.11.2.08.37.19.52.35.16.16.28.32.36.52.08.19.11.39.11.6s-.03.42-.11.61c-.08.19-.19.37-.34.52-.16.15-.33.27-.52.34-.19.08-.41.11-.63.11-.21,0-.42-.03-.62-.11-.2-.08-.37-.19-.52-.34-.15-.15-.28-.32-.34-.52-.08-.19-.11-.39-.11-.61,0-.19.03-.4.11-.6Z"/><path class="cls-2" d="M86.02,43.18h.72c.44,0,.78-.1,1.04-.31.24-.21.37-.5.37-.87s-.13-.66-.37-.87c-.24-.21-.6-.32-1.04-.32h-1.32v4.16h.6v-1.79ZM86.02,41.34h.65c.29,0,.5.05.63.16.13.1.2.27.2.5s-.07.39-.2.5c-.13.1-.34.16-.63.16h-.65v-1.32Z"/><path class="cls-2" d="M14.76,35.97v14.43h2.33v-12.22h12.93v-2.21h-15.25Z"/><path class="cls-2" d="M150.08,79.58l.03,4.14,2.67-.02v-.5l-2.1.02-.03-3.64h-.57Z"/><path class="cls-2" d="M155.33,79.54l.03,4.14,3.19-.03v-.48l-2.63.02v-1.4l2.36-.02v-.5l-2.37.03v-1.27l2.52-.02v-.5l-3.09.03Z"/><path class="cls-2" d="M144.48,79.62l.03,4.13,2.67-.02v-.48l-2.1.02-.03-3.66-.57.02Z"/><path class="cls-2" d="M140.43,79.64l.03,4.14h.55l-.03-4.14h-.55Z"/><path class="cls-2" d="M181.87,69.79c-1.32,0-2.37,1.05-2.37,2.34s1.07,2.34,2.37,2.34,2.37-1.05,2.37-2.34c.02-1.29-1.06-2.34-2.37-2.34Z"/><path class="cls-2" d="M177.38,51.67c-1.37-.15-2.73.03-4.08,1-.88.64-2.78,2.31-3.48,4.29v-5.3l-8.25.02v1.97l3.76.05-.02,19h-3.74v1.76h12.36v-1.76h-3.95v-11.61c0-2.66,1.56-4.77,2.21-5.67.52-.73,1.56-1.71,2.67-1.9-.68,1.98.57,3.59,2.31,3.64,1.17.03,2.65-1.13,2.67-2.39.05-1.37-.86-2.92-2.45-3.09Z"/><path class="cls-2" d="M107.73,61.57c.08-3.3-.75-6.21-4.29-8.7-4.85-3.42-12.03-2.19-15.45,2.26-1.79,2.32-2.68,4.98-2.68,7.96,0,4.05,1.77,8.06,5.59,10.24,1.85,1.05,3.84,1.52,5.97,1.58,5.98.19,9.27-3.06,10.86-8.04l-1.63.03c-.85,1.71-1.92,4.21-3.37,4.9-1.56.74-3.09,1.29-4.93,1.35-2.7.08-4.54-1.19-5.3-3.01-.78-1.87-1.35-5.95-1.12-8.54h16.34v-.02ZM92.7,55.04c1.71-2.53,6.07-3.55,8.15-.34.67,1.03.89,3.68.73,4.93h-9.82c-.1-.95.08-3.3.94-4.59Z"/><path class="cls-2" d="M160.14,61.57c.06-3.3-.75-6.21-4.29-8.7-4.85-3.42-12.03-2.19-15.45,2.26-1.79,2.32-2.68,4.98-2.68,7.96,0,4.05,1.77,8.06,5.59,10.24,1.85,1.05,3.84,1.52,5.97,1.58,5.98.19,9.27-3.06,10.86-8.04l-1.64.03c-.84,1.71-1.92,4.21-3.37,4.9-1.56.74-3.09,1.29-4.93,1.35-2.7.08-4.54-1.19-5.3-3.01-.78-1.87-1.35-5.95-1.12-8.54h16.36v-.02ZM145.1,55.04c1.71-2.53,6.07-3.55,8.13-.34.67,1.03.89,3.68.73,4.93h-9.82c-.07-.95.1-3.3.96-4.59Z"/><path class="cls-2" d="M110.23,79.82l.02,2.85c0,.24-.02.4-.05.52-.03.11-.11.19-.21.26-.1.06-.23.1-.37.1-.2,0-.34-.05-.46-.18-.11-.11-.18-.34-.19-.64l-.5.06c0,.4.1.73.29.93.2.21.49.31.86.31.26,0,.47-.05.67-.16.18-.1.33-.24.41-.44.08-.19.13-.45.13-.81l-.02-2.82-.57.02Z"/><path class="cls-2" d="M123.76,38.52l3.42-.03v33.91h-5.12v.02h-4.54v-35.61l-8.94-.02v1.72l3.42-.03v33.91h-4.15v2.1h27.55v-2.1h-2.68v-35.59l-8.94-.02v1.72Z"/><path class="cls-2" d="M117.06,79.98c-.33-.18-.68-.27-1.07-.26-.6,0-1.09.21-1.48.6-.37.39-.57.93-.55,1.61,0,.37.08.71.26,1.03.16.32.41.58.73.76.31.19.68.27,1.07.27s.72-.1,1.04-.26c.32-.18.57-.44.73-.76.18-.34.26-.71.26-1.13s-.08-.79-.26-1.11c-.16-.32-.41-.58-.73-.76ZM117.06,83.09c-.28.29-.62.44-1.04.45-.42,0-.76-.13-1.04-.42-.28-.29-.42-.68-.42-1.18,0-.63.13-1.06.42-1.34.28-.27.63-.4,1.02-.4.28,0,.54.06.76.19.23.15.41.34.52.58.11.26.18.55.18.89.02.52-.13.94-.41,1.23Z"/><path class="cls-2" d="M135.57,82.69c-.08.23-.16.45-.23.68-.07-.21-.13-.44-.23-.68l-1.14-3h-.62l1.69,4.13h.59l1.64-4.16h-.59l-1.12,3.03Z"/><path class="cls-2" d="M121.76,79.75l.03,4.14h.57l-.03-4.14h-.57Z"/><path class="cls-2" d="M129.11,79.71l.02,3.26-2.28-3.24h-.57l.03,4.14h.54l-.03-3.26,2.28,3.24h.59l-.03-4.14h-.54Z"/></svg>