<?xml version="1.0" encoding="UTF-8"?><svg id="Layer_1" xmlns="http://www.w3.org/2000/svg" viewBox="0 0 199 120"><defs><style>.cls-1{fill:none;}.cls-1,.cls-2,.cls-3{stroke-width:0px;}.cls-2{fill-rule:evenodd;}.cls-2,.cls-3{fill:#98876c;}</style></defs><rect class="cls-1" x="0" y="-39.5" width="199" height="199"/><path class="cls-3" d="M51.7,83.48c-.89-.84-2.51-1.27-4.82-1.27h-6.63v18.88h4.5v-7.47h2.4c1.36,0,2.32-.09,2.92-.28.6-.19,1.14-.52,1.59-.97.46-.45.81-1.07,1.05-1.83.24-.75.35-1.63.35-2.6,0-2.11-.45-3.6-1.34-4.45M44.7,85.42h1.54c.94,0,1.59.17,1.92.51s.51.98.51,1.91c0,.98-.18,1.65-.54,1.99s-1.11.53-2.24.53h-1.19v-4.94Z"/><path class="cls-3" d="M68.16,82.21h-5.36l-5.47,18.71-.05.18h4.36l1.02-4.13h5.37l1.03,4.13h4.54l-5.44-18.88h0ZM67.23,93.82h-3.75l1.93-7.34s1.82,7.34,1.82,7.34Z"/><path class="cls-3" d="M92.86,100.91c-.17-.48-.3-1.03-.38-1.63h0c-.08-.6-.12-1.33-.12-2.17,0-.1,0-.25.02-.46.01-.21.02-.37.02-.48,0-1.64-.21-2.73-.66-3.32-.37-.5-1.02-.87-1.93-1.12.78-.28,1.37-.73,1.75-1.34.44-.73.66-1.83.66-3.28,0-1.84-.44-3.14-1.32-3.85-.87-.71-2.52-1.07-4.91-1.07h-5.88v18.88h4.34v-7.67h1.54c.73,0,1.25.17,1.55.52.31.35.48.98.51,1.87,0,.35.02.83.03,1.46.02,1.88.12,3.1.3,3.72l.03.1h4.51l-.06-.19h0ZM84.45,85.39h.93c1.07,0,1.79.17,2.14.48.35.32.53.94.53,1.85s-.2,1.6-.59,1.97c-.39.37-1.12.55-2.16.55h-.85v-4.85h0Z"/><path class="cls-3" d="M109.4,82.21h-5.36l-5.47,18.71-.05.18h4.36l1.02-4.13h5.37l1.03,4.13h4.54l-5.44-18.88h0ZM108.46,93.82h-3.75l1.93-7.34,1.82,7.34Z"/><path class="cls-3" d="M131.93,82.21l.24,10.86c0,1.02.03,1.99.08,2.87.01.22.03.44.04.66-.12-.44-.26-.89-.39-1.34-.33-1.07-.73-2.18-1.16-3.3l-3.73-9.75h-5.67v18.88h4l-.23-11.23c0-.62-.04-1.39-.09-2.28-.03-.49-.06-1.04-.11-1.63.21.74.42,1.45.62,2.11.33,1.07.64,1.99.93,2.76l3.95,10.27h5.53v-18.88h-4.02.01Z"/><path class="cls-3" d="M153.31,82.21h-5.36l-5.47,18.71-.05.18h4.36l1.02-4.13h5.37l1.03,4.13h4.54l-5.44-18.88h0ZM152.38,93.82h-3.75l1.93-7.34,1.82,7.34Z"/><polygon class="cls-3" points="154.76 75.94 150.98 75.94 148.25 80.87 150.42 80.87 154.76 75.94"/><polygon class="cls-2" points="80.09 74.21 103.51 18.9 126.92 74.21 80.09 74.21"/><path class="cls-2" d="M129.19,19.04v55.18h26.15c14.65-3.97,20.04-23.56.46-31.53,9.46-11.16-2.56-23.64-8.02-23.64h-18.59Z"/><path class="cls-2" d="M61.24,37.37c10.01,3.04,20.1,9.51,24.23,12.36.12-1.04.19-2.1.19-3.17,0-15.24-12.34-27.58-27.57-27.58s-27.58,12.35-27.58,27.58,12.35,27.58,27.58,27.58c12.6,0,23.23-8.46,26.52-20.01-2.09-1.51-13.61-9.52-24.54-12.85h0c-10.64-3.24-25.58-2.65-28.43-2.49.42-1.44.96-2.83,1.6-4.16,4.08-.22,17.33-.53,28.01,2.72ZM66.5,36.68l.44-.95.46.93,1.03.12-.75.73.21,1.02-.92-.48-.91.51.18-1.03-.77-.7,1.03-.15ZM58.78,69.15l-.45-.16-.37.3v-.48s-.39-.26-.39-.26l.46-.14.13-.46.27.39.47-.02-.28.38.17.44ZM58.98,60.98l-.92-.53-.94.5.21-1.05-.76-.74,1.06-.12.47-.96.44.97,1.05.15-.79.72.18,1.05ZM72.55,68.91l-.62-.33-.61.34.12-.69-.51-.48.69-.09.29-.64.3.63.69.08-.51.48.14.69ZM81.06,56.34l.27-.58.28.57.64.08-.46.44.12.62-.56-.3-.56.31.11-.63-.46-.44.63-.08ZM79.62,58.95l-.61.58.17.82-.74-.39-.74.41.15-.83-.62-.57.83-.11.35-.76.37.75.84.1ZM76.91,55.82l.42-.91.44.91,1,.12-.73.69.19.99-.89-.48-.89.49.18-.99-.73-.69,1-.14ZM76.64,60.97l.35-.76.37.75.84.1-.61.58.16.83-.74-.4-.73.41.15-.82-.62-.57.83-.11ZM74.14,62.13l.26-.63.33.6.68.05-.46.49.17.66-.62-.28-.57.36.08-.67-.52-.44.66-.13ZM71.46,62.06l.29-.66.33.64.72.08-.52.51.15.7-.64-.33-.62.36.11-.71-.53-.48.71-.1ZM71.53,64.75l.39-.84.4.83.91.11-.66.64.17.91-.81-.44-.8.45.16-.91-.67-.63.91-.12ZM68.17,62.78l.3-.66.32.64.72.08-.51.51.15.71-.64-.33-.62.37.12-.71-.53-.48.71-.11ZM66.05,64.67l.35.7.77.08-.55.55.16.75-.69-.35-.67.39.12-.76-.58-.52.77-.12.32-.71ZM64.11,44.56l.33-.66.3.68.73.11-.55.49.12.73-.64-.37-.65.34.15-.73-.53-.51.73-.08ZM63.44,62.04l.33-.67.31.68.74.1-.55.51.12.73-.64-.37-.66.35.15-.73-.53-.52.74-.08ZM60.29,53.5l.4-.76.33.79.85.15-.65.57.12.85-.73-.44-.78.38.19-.84-.6-.62.86-.08ZM57.86,51.18l.38-.78.36.78.85.12-.63.58.15.84-.75-.42-.76.4.17-.84-.62-.6.85-.1ZM56.11,55.48l.26-.51.24.52.56.08-.42.38.1.56-.49-.28-.51.26.12-.55-.41-.4.56-.06ZM54.09,53.97l.32-.65.3.66.72.1-.54.49.12.72-.63-.36-.65.34.15-.71-.53-.51.73-.08ZM46.84,47.51l.38-.78.36.78.85.12-.63.58.15.84-.75-.42-.76.4.17-.84-.62-.6.85-.1ZM45.99,61.42l.42-.89.42.89.98.12-.72.68.18.97-.87-.48-.87.48.18-.97-.71-.68.98-.12ZM42.92,55.75l.39-.82.39.82.9.12-.66.62.17.89-.8-.44-.8.44.17-.89-.66-.62.91-.12ZM42.12,58.68l.3-.65.3.65.71.1-.52.49.13.71-.63-.35-.63.35.13-.71-.53-.5.72-.09ZM40.08,51.56l.2-.42.19.42.45.06-.34.31.08.46-.4-.23-.41.21.09-.45-.33-.33.46-.05ZM37.38,53.13l.45-.9.41.92,1,.15-.75.68.17.99-.87-.51-.9.46.21-.98-.72-.71,1-.1ZM35.11,41.62l.48-.95.43.97,1.05.16-.79.71.17,1.05-.92-.53-.94.48.22-1.04-.75-.74,1.05-.11ZM34.65,55.64l.39-.79.36.8.87.13-.65.59.14.87-.75-.44-.78.4.19-.86-.62-.62.87-.09Z"/><path class="cls-3" d="M33.44,36.67c.03-.19.09-.35.18-.48.06-.1.15-.19.24-.26.1-.08.19-.15.3-.19.14-.06.29-.09.46-.1.3-.02.53.05.69.21.15.16.2.39.15.69s-.19.53-.4.71c-.21.18-.47.28-.77.3-.3.02-.53-.04-.69-.19-.15-.15-.2-.37-.15-.66M33.87,36.63c-.03.21-.01.36.08.46s.21.15.38.13c.17-.01.31-.08.44-.19.12-.11.21-.28.25-.49.04-.21.01-.36-.07-.46s-.21-.14-.39-.12-.32.08-.44.19-.21.28-.24.48"/><path class="cls-3" d="M35.6,37.42c.14-.73.2-1.1.34-1.84.35-.02.53-.03.88-.04.22,0,.38,0,.47.03.1.03.17.08.21.17.04.08.06.18.03.28-.03.14-.1.25-.2.35-.11.09-.26.15-.44.18.08.04.15.09.19.15s.11.15.18.29c.08.14.11.21.18.35-.2,0-.3,0-.5.01-.09-.15-.13-.24-.22-.39-.08-.14-.14-.23-.17-.26-.03-.03-.07-.06-.11-.07-.04-.01-.11-.01-.21-.01h-.08c-.06.3-.08.46-.15.77-.17,0-.25.01-.42.02M36.21,36.34c.12,0,.19,0,.31-.01.2,0,.33-.02.38-.03.06-.01.1-.04.13-.08.03-.03.06-.08.07-.14.01-.06,0-.11-.03-.15s-.08-.06-.15-.07h-.3c-.13,0-.19,0-.33.01-.03.19-.06.28-.09.46"/><path class="cls-3" d="M38.03,35.51c.3,0,.46,0,.76-.01.17,0,.3,0,.39.03.12.03.21.09.28.17.07.08.12.18.14.3s.01.26-.02.44c-.03.15-.08.28-.14.39-.08.13-.17.24-.28.33-.08.06-.19.11-.32.15-.1.03-.22.04-.37.04-.31,0-.47,0-.78.01.15-.73.21-1.1.35-1.84M38.38,35.82c-.1.48-.15.73-.24,1.21h.31c.12,0,.2,0,.26-.02.07-.01.13-.04.18-.08.05-.03.1-.1.15-.18.04-.08.08-.19.11-.34.03-.14.03-.25.02-.33-.01-.08-.04-.13-.08-.18-.04-.04-.1-.07-.17-.08-.06-.01-.17-.01-.34-.01h-.19"/><path class="cls-3" d="M39.75,37.33c.15-.73.22-1.1.37-1.84.61,0,.92,0,1.53.02-.03.12-.04.19-.06.31-.44-.01-.66-.01-1.11-.02-.03.16-.05.24-.08.41.42,0,.62,0,1.03.02-.03.12-.04.19-.06.31-.42,0-.62-.01-1.03-.02-.04.2-.06.3-.1.5.46,0,.69,0,1.14.02-.03.12-.04.19-.06.31-.62-.01-.93-.02-1.56-.03"/><path class="cls-3" d="M41.64,37.36c.15-.73.23-1.1.39-1.84.25,0,.37.01.62.02.04.51.06.76.1,1.27.26-.49.38-.74.64-1.23.25.01.37.02.62.03-.16.73-.24,1.1-.4,1.84-.15,0-.23-.01-.38-.02.12-.57.19-.87.31-1.44-.29.57-.43.85-.72,1.42-.16,0-.24-.01-.39-.02-.04-.58-.06-.87-.1-1.46-.12.57-.18.87-.3,1.44-.15,0-.23,0-.38-.01"/><path class="cls-3" d="M45.22,35.7c.3.02.46.03.75.06.17.01.3.03.38.07.11.04.2.11.27.19.07.09.11.19.12.32.02.12,0,.27-.03.44-.03.15-.08.28-.15.38-.08.13-.18.23-.29.3-.08.06-.19.1-.32.12-.1.02-.22.02-.37,0-.31-.03-.46-.04-.78-.06.17-.73.24-1.1.41-1.84M45.57,36.04c-.11.48-.17.73-.27,1.21.12,0,.19.01.3.03.12,0,.2.01.25,0,.07,0,.13-.03.18-.06s.1-.09.15-.17c.05-.08.08-.19.12-.33.03-.14.04-.25.03-.33,0-.08-.03-.14-.08-.19-.04-.05-.1-.08-.17-.1-.06-.01-.17-.03-.33-.05-.08,0-.11,0-.19-.01"/><path class="cls-3" d="M47,36.8c.04-.19.11-.34.2-.46.07-.09.15-.17.25-.23.1-.06.2-.11.3-.14.14-.03.29-.04.46-.02.3.03.52.15.66.34.14.19.17.44.1.73s-.21.51-.43.66c-.21.15-.47.2-.77.17-.3-.03-.52-.15-.66-.33-.14-.19-.17-.42-.11-.71M47.42,36.83c-.05.21-.03.37.05.49.08.12.2.19.37.21.17.02.31-.02.44-.11.13-.1.22-.25.27-.46s.03-.37-.04-.48c-.08-.12-.2-.18-.37-.2-.17-.02-.32.02-.44.11-.13.09-.21.24-.26.46"/><path class="cls-3" d="M49.11,37.36c.16,0,.24.01.41.02,0,.12.02.22.08.28.06.07.15.11.28.12.13.02.24,0,.31-.03s.12-.1.15-.16c.01-.04,0-.08-.01-.12-.02-.03-.06-.07-.12-.1-.04-.02-.15-.06-.3-.12-.21-.08-.35-.16-.42-.24-.1-.12-.13-.25-.1-.39.02-.09.08-.17.15-.25.08-.08.18-.12.3-.15.12-.03.26-.03.42,0,.26.03.44.12.54.24.1.12.14.26.1.44-.17-.02-.25-.03-.42-.05,0-.1-.01-.17-.06-.22-.05-.05-.13-.08-.24-.1-.12-.01-.21,0-.3.03-.05.02-.08.06-.09.1,0,.04,0,.08.03.12.04.05.16.1.35.17s.33.14.41.19c.08.06.15.13.18.22.03.09.03.19,0,.3-.03.1-.08.2-.17.28-.09.08-.19.14-.33.16-.12.03-.28.03-.46,0-.26-.03-.44-.12-.55-.24-.11-.12-.15-.29-.13-.5"/><path class="cls-3" d="M53.42,38.68c-.17-.03-.26-.05-.44-.08-.03-.18-.04-.27-.07-.45-.32-.06-.48-.09-.8-.15-.11.15-.16.23-.27.39-.17-.03-.26-.04-.43-.07.5-.68.74-1.02,1.25-1.69.17.03.26.05.43.08.14.79.2,1.18.33,1.97M52.86,37.82c-.04-.29-.06-.44-.1-.73-.18.25-.27.37-.44.63.22.04.33.06.55.1"/><path class="cls-3" d="M54.11,36.9c.3.06.44.09.74.15.17.03.29.08.37.12.11.06.19.13.26.24.06.1.1.21.11.34.01.12,0,.28-.05.44-.04.15-.1.28-.17.37-.08.12-.19.21-.3.28-.08.05-.19.08-.32.08-.1,0-.21,0-.37-.03-.3-.06-.46-.1-.75-.15.19-.73.28-1.09.47-1.82M54.43,37.29c-.12.48-.19.73-.32,1.21.12.03.18.03.3.06.11.02.19.03.25.03.07,0,.13-.01.18-.04.06-.03.1-.08.15-.15.05-.08.09-.19.13-.33.03-.14.06-.25.05-.33,0-.08-.03-.15-.07-.2-.03-.06-.09-.1-.17-.12-.06-.02-.16-.06-.33-.08-.07-.01-.11-.02-.18-.03"/><path class="cls-3" d="M56.14,39.26c-.08-.8-.13-1.19-.22-1.98.17.04.26.06.44.1.06.59.08.88.14,1.46.34-.49.51-.74.85-1.23.17.04.26.06.42.1-.48.66-.73.98-1.21,1.64-.17-.04-.26-.06-.43-.1"/><path class="cls-3" d="M57.65,38.67c.05-.19.12-.33.22-.44.07-.08.15-.15.26-.2.1-.06.2-.08.3-.1.14-.01.28,0,.44.04.29.08.5.22.63.44.12.21.15.47.06.76s-.24.5-.45.62c-.22.12-.47.14-.76.06s-.5-.22-.63-.43c-.12-.21-.15-.46-.07-.75M58.06,38.77c-.06.21-.05.37.02.51.08.13.19.22.35.26s.3.03.44-.06c.13-.08.23-.22.28-.43.06-.21.06-.37-.01-.51-.07-.13-.19-.21-.35-.26-.17-.04-.31-.03-.44.05s-.22.22-.28.43"/><path class="cls-3" d="M60.72,39.76c.03-.12.06-.18.09-.3.34.1.51.15.85.26-.08.29-.12.43-.21.72-.1.05-.24.08-.42.08s-.34-.01-.5-.06c-.2-.06-.37-.15-.5-.28-.13-.12-.21-.27-.24-.44-.03-.17-.03-.34.02-.51.06-.19.15-.35.27-.46.12-.12.28-.2.47-.23.15-.02.31,0,.5.05.24.08.42.18.53.31.11.14.16.29.15.47-.17-.02-.25-.03-.41-.06,0-.1-.03-.18-.1-.26s-.15-.13-.26-.17c-.17-.05-.33-.04-.46.03s-.23.21-.28.41c-.06.21-.06.39.01.53.07.14.19.23.36.28.08.03.17.03.26.03.09,0,.17-.02.24-.04.03-.09.04-.14.07-.23-.18-.06-.27-.08-.45-.14"/><path class="cls-3" d="M63.47,41.38c-.17-.06-.26-.09-.42-.15-.02-.19-.03-.28-.04-.46-.31-.1-.46-.15-.78-.26-.11.15-.17.21-.28.36-.17-.06-.25-.08-.42-.13.51-.63.78-.94,1.3-1.57.17.06.25.08.42.14.1.82.14,1.24.23,2.07M62.97,40.42c-.03-.3-.04-.46-.07-.76-.19.24-.28.35-.46.58.21.07.32.1.53.17"/><path class="cls-3" d="M64.21,39.65c.28.1.43.15.71.25.16.06.28.11.35.17.1.07.18.17.24.27.06.11.08.23.09.36,0,.13-.01.28-.07.45-.05.15-.1.27-.18.36-.09.11-.19.19-.3.24-.08.03-.19.05-.32.04-.09,0-.21-.03-.35-.08-.29-.1-.44-.16-.73-.26.22-.72.33-1.08.55-1.8M64.51,40.09c-.15.48-.22.71-.37,1.19.12.04.17.06.29.1.11.04.19.06.24.07.07,0,.12,0,.18-.02.06-.02.1-.06.15-.14.05-.07.1-.17.14-.32.04-.14.06-.25.06-.33s-.02-.15-.06-.21c-.03-.06-.08-.11-.15-.15-.05-.03-.15-.08-.31-.13-.07-.03-.1-.03-.17-.06"/><path class="cls-3" d="M65.79,41.24c.06-.18.13-.33.23-.43.07-.08.16-.13.26-.18.1-.04.19-.07.3-.07.13,0,.28.03.44.09.28.11.48.28.6.51.12.23.12.49.03.79-.09.29-.25.48-.46.57-.21.1-.46.09-.74-.02-.28-.11-.48-.28-.6-.51-.12-.23-.13-.48-.04-.77M66.19,41.38c-.06.2-.06.37,0,.52.07.15.17.24.33.3s.29.06.42,0c.13-.06.23-.2.3-.41.06-.21.07-.38,0-.52-.06-.14-.17-.24-.33-.3s-.3-.06-.43,0c-.13.06-.23.2-.29.41"/><path class="cls-3" d="M67.74,42.35c.15.05.23.07.38.12-.01.12,0,.24.05.32s.13.15.25.2c.12.06.22.07.3.04.08-.02.12-.07.15-.13.01-.04.01-.08,0-.12s-.06-.09-.11-.14c-.04-.03-.13-.1-.28-.21-.19-.13-.31-.26-.37-.36-.08-.15-.1-.29-.06-.44.03-.09.08-.17.17-.22.08-.06.18-.08.3-.08s.25.03.39.1c.24.1.39.23.48.38s.1.31.06.48c-.15-.06-.23-.09-.38-.15.01-.1,0-.18-.04-.24s-.11-.12-.22-.17c-.11-.05-.2-.06-.28-.05-.05.01-.08.04-.1.08-.01.04,0,.09.02.13.03.06.14.15.31.27.17.12.29.22.37.3s.12.17.15.27c.03.1.02.21-.02.32-.03.1-.1.19-.19.25s-.19.09-.32.09-.26-.04-.43-.11c-.24-.1-.4-.23-.49-.39-.1-.16-.12-.34-.08-.55"/><path class="cls-3" d="M70.7,42.26c.28.12.42.19.69.32.15.08.27.14.34.2.1.08.17.18.22.3.05.12.08.24.08.37s-.03.28-.08.45c-.05.15-.11.26-.19.35-.09.1-.19.18-.3.22-.08.03-.19.03-.31.01-.09-.01-.2-.06-.34-.12-.28-.13-.42-.2-.7-.33.24-.71.36-1.07.6-1.79M70.98,42.74c-.16.47-.24.71-.39,1.18.11.06.17.08.28.13.1.05.18.08.23.09.06.01.12.01.17,0s.1-.06.15-.12c.06-.07.1-.17.15-.3.05-.14.07-.25.07-.33s-.01-.16-.05-.22-.08-.12-.15-.17c-.05-.03-.15-.09-.3-.16-.07-.03-.1-.05-.17-.08"/><path class="cls-3" d="M72.19,44.02c.06-.18.15-.32.24-.42.07-.07.16-.12.26-.16s.19-.05.29-.04c.13.01.27.06.42.13.27.14.46.33.56.57.1.25.1.51,0,.8-.1.28-.26.46-.47.55s-.46.05-.72-.08c-.27-.14-.46-.33-.56-.57s-.11-.51-.01-.78M72.58,44.2c-.07.2-.08.38-.01.53.06.15.16.26.31.34.15.08.28.08.42.03.13-.06.23-.19.3-.39.07-.2.08-.38.02-.53s-.16-.26-.31-.34-.29-.09-.42-.03c-.13.06-.23.19-.3.39"/><path class="cls-3" d="M75.27,44.56c.29.16.44.24.72.39.15.08.25.15.31.19s.12.11.16.18c.04.07.07.15.08.23.01.08,0,.16-.02.24-.03.08-.08.15-.15.19s-.15.06-.24.05c.1.09.16.19.19.3.03.11.03.21,0,.32-.03.08-.08.15-.14.2s-.14.08-.22.09c-.08,0-.17,0-.27-.06-.06-.03-.21-.1-.44-.23-.24-.14-.37-.2-.61-.34.25-.71.38-1.06.63-1.77M75.53,45.05l-.15.41c.1.06.15.08.24.13.14.08.23.12.26.14.06.03.12.03.17.02s.08-.05.1-.11c.02-.06.02-.11,0-.16s-.06-.1-.11-.14c-.03-.02-.14-.08-.3-.18-.08-.05-.12-.07-.21-.12M75.27,45.75c-.07.19-.1.28-.17.47.13.08.2.11.33.19s.21.12.25.12c.06.02.11.02.16,0s.08-.06.1-.12c.02-.06.02-.1,0-.16-.01-.05-.04-.1-.08-.15-.04-.04-.15-.11-.31-.21-.12-.06-.17-.1-.29-.16"/><path class="cls-3" d="M76.44,47.33c.26-.71.39-1.05.64-1.76.3.17.45.26.75.44.19.11.32.21.39.3s.12.18.15.29c.02.11.01.22-.03.33-.05.13-.13.21-.24.26-.11.04-.24.02-.41-.05.06.09.1.18.14.26.03.08.06.22.1.41s.05.28.08.47c-.17-.1-.25-.15-.42-.26-.05-.21-.07-.33-.12-.54-.04-.19-.07-.31-.09-.37-.02-.06-.05-.1-.08-.14s-.09-.08-.17-.12c-.03-.01-.04-.03-.07-.04-.11.29-.16.44-.27.73-.15-.08-.21-.12-.35-.21M77.16,46.53c.1.06.16.1.26.16.17.1.28.16.33.17s.09,0,.12-.01c.03-.02.06-.06.08-.11.02-.06.02-.12,0-.17s-.06-.1-.11-.15c-.03-.02-.11-.08-.26-.16-.11-.07-.17-.1-.28-.17-.06.18-.1.27-.17.44"/><path class="cls-3" d="M79.77,49.39c-.15-.1-.23-.15-.38-.25v-.49c-.28-.18-.42-.26-.69-.44-.12.12-.17.19-.29.3-.15-.09-.22-.14-.37-.23.53-.53.8-.8,1.34-1.33.15.1.22.14.37.24.01.88.02,1.32.03,2.2M79.39,48.28v-.8c-.19.2-.29.3-.48.5.19.12.28.18.47.3"/><path class="cls-3" d="M80.08,48.88c.14.08.21.11.35.19-.02.13-.01.24.03.33.04.1.11.18.22.25.11.08.2.11.28.1.08,0,.12-.05.15-.11.01-.04.02-.08,0-.13-.01-.05-.04-.1-.1-.16-.03-.04-.12-.13-.25-.26-.17-.17-.28-.32-.33-.44-.07-.17-.08-.32-.02-.46.03-.09.09-.15.17-.2.08-.04.17-.06.28-.03.11.02.23.08.36.17.21.15.36.3.43.47.07.17.08.34.02.5-.14-.09-.21-.13-.35-.22.02-.1.01-.19-.02-.26-.03-.07-.1-.14-.19-.21-.1-.07-.19-.1-.26-.1-.05,0-.08.03-.1.07-.01.04-.01.09.01.14.03.07.12.17.27.33.15.15.26.28.33.38.06.1.1.2.12.3.01.1,0,.21-.04.33-.04.1-.1.17-.19.22-.09.05-.19.06-.3.03-.12-.03-.25-.09-.39-.19-.21-.15-.36-.3-.44-.48-.08-.18-.09-.37-.03-.58"/><path class="cls-3" d="M81.52,50.58c.27-.69.41-1.04.68-1.74.14.1.21.15.34.24-.28.69-.41,1.04-.69,1.73-.14-.1-.2-.15-.34-.24"/><path class="cls-3" d="M82.2,51.06c.27-.69.41-1.03.68-1.72.14.1.2.15.34.24-.23.57-.34.85-.57,1.43.34.24.51.37.84.62-.05.12-.07.17-.12.29-.46-.35-.7-.52-1.17-.86"/></svg>