<?xml version="1.0" encoding="UTF-8"?><svg id="Layer_1" xmlns="http://www.w3.org/2000/svg" xmlns:xlink="http://www.w3.org/1999/xlink" viewBox="0 0 199 120"><defs><style>.cls-1{clip-path:url(#clippath);}.cls-2{fill:none;}.cls-2,.cls-3,.cls-4{stroke-width:0px;}.cls-3{fill-rule:evenodd;}.cls-3,.cls-4{fill:#98876c;}</style><clipPath id="clippath"><rect class="cls-2" x="27" y="11.5" width="145" height="97"/></clipPath></defs><rect class="cls-2" x="0" y="-39.5" width="199" height="199"/><g class="cls-1"><path class="cls-3" d="M97.26,85.93h-7.03v22.05h7.03v-22.05ZM118.19,85.92h-18.64v5.35h5.81v16.71h7.03v-16.71h5.81v-5.35s0,0,0,0ZM66.4,88.13c-1.34-1.58-3.24-1.75-5.5-1.99-.92-.1-1.85-.16-2.74-.2-.89.03-1.82.1-2.74.2-2.26.24-4.15.42-5.5,1.99-2.9,3.4-2.7,16.07.79,18.71,1.45,1.09,4.47,1.65,7.45,1.66,2.98-.02,6-.57,7.45-1.66,3.49-2.63,3.68-15.31.79-18.71M60.5,102.76c-.6.65-1.46,1-2.35.96-.88.05-1.74-.3-2.35-.96-1.09-1.51-1.16-8.81-.25-10.76.31-.69.98-1.13,1.73-1.14.29-.06.57-.1.87-.11.29.02.58.06.87.11.75.01,1.42.46,1.73,1.14.92,1.95.85,9.25-.25,10.76ZM169.99,88.13c-1.34-1.58-3.24-1.75-5.5-1.99-.92-.1-1.85-.16-2.75-.2-.9.03-1.82.1-2.74.2-2.26.24-4.15.42-5.5,1.99-2.9,3.4-2.7,16.07.79,18.71,1.45,1.09,4.47,1.65,7.45,1.66,2.98-.02,6-.57,7.45-1.66,3.48-2.63,3.69-15.31.79-18.71M164.09,102.75c-.61.65-1.46,1-2.35.96-.88.05-1.74-.3-2.35-.96-1.09-1.51-1.16-8.81-.25-10.76.31-.69.99-1.13,1.74-1.14.29-.06.57-.1.86-.11.29.02.58.06.87.11.75.01,1.42.46,1.73,1.14.91,1.95.85,9.25-.25,10.76M46.6,93.18c.09-2.21-.77-4.35-2.34-5.88-1.53-1.05-3.36-1.54-5.2-1.37h-12.06v22.05h7.03v-7.19h.02s4.98-.01,4.98-.01c1.55.05,3.08-.32,4.43-1.07,1.85-.93,3.11-3.75,3.13-6.52M39.14,94.62c-.79.18-1.59.26-2.39.26h-2.73v-3.96h2.73c.94-.05,1.89.08,2.78.36.69.32,1.09,1.05,1,1.81-.09.76-.66,1.38-1.4,1.52M86.66,86.33s-8.03-1.06-11.69.03c-3.66,1.08-5.09,3.02-5.09,6.16s.74,4.2,2.32,5.34c1.64.94,3.45,1.54,5.31,1.78.94.15,4.14.23,4.09,2.24-.05,2.01-5.21,1.52-5.21,1.52l-5.94-.3v4.92s9,1.06,12.66-.03c3.66-1.08,5.09-3.09,5.09-6.16v-.09c0-3.15-.74-4.2-2.32-5.34-1.64-.94-3.45-1.54-5.31-1.77-.94-.15-4.14-.23-4.09-2.24.05-2.01,5.21-1.52,5.21-1.52l4.8.25.18-4.79h0ZM129.18,85.93h7.06c1.19,6.13,2.97,11.63,3.72,18.2,1.08-6.3,2.52-12.24,3.93-18.2h7.06c-1.94,7.37-3.93,14.69-5.89,22.05h-10c-1.96-7.35-4.02-14.6-5.89-22.05ZM127.48,107.98h-7.03v-22.05h7.03v22.05Z"/><path class="cls-4" d="M90.48,65.57c3.28-.06,6.54-.4,9.81-.42-.18.54-.25,1.11-.22,1.68-1.63-.01-3.25.09-4.85.32-5.67.68-13.92,2.35-17.53-3.39-.62-.63-.62-1.65,0-2.28.07-.07.14-.12.21-.18,1.61.98,3,2.59,4.79,3.22,2.52.79,5.14,1.14,7.78,1.04"/><path class="cls-4" d="M100.6,50.43c.25.44.5.9.71,1.36-.3.44-.7.8-1.17,1.06-.2.15-.36.34-.47.57.45.56,1.07,1.21.53,1.93-.55.73-1.34.85-1.52,1.84.48.75.79,1.6.89,2.47.1,2.45-3.3,2.86-5.05,2.94-2.35.1-4.7-.15-6.97-.73-1.4-.39-2.73-1.02-3.93-1.85-1.04-.69-2.67-1.88-1.91-3.34.53-.47.87-.59,1.47-.14.94.72,1.64,1.75,2.53,2.52.59.43,1.23.77,1.92.99,1.74.66,3.56,1.06,5.4,1.19,1.63.11,4.98,0,4.62-2.47-.12-.75-.6-1.29-.74-1.99-.1-.41.1-.82.49-.98.51-.32,1.05-.57,1.54-.93.18-.13.35-.28.53-.41-.21-.26-.44-.49-.67-.73-.49-.46-1.17-.86-1.2-1.62l2.19-.87c-.83-1.37-1.59-2.77-2.28-4.21-1.24.68-2.54,1.27-3.87,1.75-1.41.39-1.87-.69-2.11-1.92,1.21-.94,2.6-1.62,4.08-1.99.83-.2,2.21-.24,2.54.8.1.32.2.64.33.96.61,1.33,1.31,2.6,2.11,3.82"/><path class="cls-4" d="M113.7,43.98c1.42-.37,2.88-.55,4.34-.53.04.21.14.48-.05.64-.54.28-1.06.61-1.62.82-2.83,1.11-5.9,1.48-8.76,2.51-1.61.57-3.42,1.39-3.08,3.46.24,1.51,1.28,1.92,2.6,1.97,2.65.01,5.29-.32,7.85-.99.75-.23,1.53-.33,2.3-.3-.69,2.24-3.78,2.73-5.77,3.07-1.87.17-3.71.63-5.44,1.36-.54.3-.99.75-1.29,1.28-.63,1.16-.31,2.61.76,3.38.76.37,1.61.53,2.44.47,2.17-.06,4.25-.77,6.41-1,.21-.03.42-.04.62-.03-.17.65-.54,1.21-1.06,1.62-2.37.82-4.92,1.11-7.21,2.18-.99.37-1.81,1.09-2.32,2.03-.22.46-.24.98-.05,1.46.18.47.55.84,1.02,1.03,1.52.45,3.14.49,4.67.11,1.29-.2,2.6-.5,3.92-.61.59-.1,1.2-.03,1.76.22.89.83-.69,1.34-1.28,1.49-1.2.28-2.41.47-3.64.55-1.19.09-2.4.15-3.6.15-.91.01-1.81-.13-2.67-.43-1.84-.57-2.88-2.54-2.32-4.41.14-.46.36-.88.66-1.24.59-.65,1.29-1.19,2.07-1.6-1.12-.51-2.23-.9-2.58-2.26-.13-.58-.19-1.17-.2-1.77-.1-.94.16-1.87.72-2.62.58-.6,1.23-1.11,1.96-1.53-1.16-.46-2.06-.81-2.35-2.24-.34-1.65-.35-3.73,1.09-4.88.57-.41,1.16-.78,1.78-1.09-.9-.19-1.72-.63-2.38-1.26-.56-.86-.81-1.89-.73-2.91-.05-.88.16-1.75.6-2.51.72-1.05,1.76-1.83,2.96-2.23.71-.12,1.42-.19,2.15-.23,3.62-.14,7.21-.72,10.68-1.74.27.09.44.35.42.63-.25,1.08-1.19,1.52-2.17,1.83-1.12.31-2.26.52-3.41.63-1.07.13-2.15.24-3.21.37-1.67.1-3.28.58-4.73,1.41-1.26,1.11-1.14,2.14-.62,3.61.62.53,1.42.8,2.23.77,2.19.03,4.38-.17,6.52-.59"/><path class="cls-4" d="M99.2,38.89c-.07.92-.51,1.77-1.23,2.34-1.51.92-3.11,1.66-4.78,2.22-1.45.69-2.86,1.49-4.19,2.4-3.4,2.15-6.25,5.1-8.29,8.59.09.49.33.86-.15,1.24-.66.36-1.46.32-2.09-.09-.46-.69-.42-1.6.09-2.25.37-.65.79-1.28,1.24-1.88,3.25-4.12,7.61-7.19,12.56-8.83,2.02-.75,4.78-1.85,5.15-4.35.03-.16.04-.34.06-.5-.92-.59-1.95-.99-3.02-1.21-4.04-1-8.1-1.95-12.25-1.14-3.89.75-7.95,3.17-9.05,7.26-.4,1.71-.3,3.51.3,5.16.78,2.28,1.29,4.65,1.55,7.05.11,1.21-.33,2.41-1.19,3.26-1.67,1.6-4.3,1.52-6.36.94v-1.69s.12,0,.15-.04c1.84.49,4.34,1.1,4.78-1.49.11-1.5-.08-3-.55-4.42-.64-2.49-1.79-5.03-1.47-7.66.85-7.08,8.59-10.2,14.75-10.36,2.63-.02,5.27.32,7.82,1.02,1.63.38,3.2.94,4.7,1.68.47.24.9.54,1.28.9.34.55.42,1.23.21,1.84"/><path class="cls-4" d="M126.61,40.4c-1,.96-2.2,1.75-2.15,3.28.73.54,1.28,1.29,1.61,2.14.32,1.41-.1,2.9-1.12,3.92-.95,1-2.19,1.54-1.36,3.17.52.76.93,1.59,1.22,2.46.38,1.94-1.89,3.59-3.07,4.68-.35.73,0,1.58-.08,2.36-.18,1.92-1.26,3.61-3.39,3.55-.35.05-.68-.2-.74-.55-.21-.76.3-.94.88-1.22.14-.18.27-.36.38-.56.83-1.74-.52-3.22,1.11-4.79.87-.84,1.95-1.4,2.29-2.61.31-1.13-.51-1.88-1.05-2.79-1.56-2.57,1.2-3.63,2.23-5.49.25-.78.24-1.62-.04-2.39-.78-.68-1.59-1.23-1.46-2.4.23-1.91,1.91-2.69,2.94-4.06,1.84-2.43-1-4.99-3.31-5.28-2.63-.24-5.28-.16-7.9.21-1.39.11-2.78.05-4.14-.18-.38-.03-.7-.31-.76-.7-.07-.39.15-.77.51-.9.46-.12.95-.09,1.4.07,2.24.38,4.51-.33,6.75-.36,1.86-.03,3.71.12,5.55.44,1.2.38,2.32.96,3.32,1.75,1.78,1.24,2.24,3.71,1.01,5.52-.18.26-.38.5-.62.71"/><path class="cls-4" d="M106.66,25.45c-.54,1.09-.99,2.22-1.36,3.38-.29.98-.81,2.53.55,2.93.66.2,1.02.12,1.32.85-.04.47-.08.79-.57.95-.91,0-1.82-.22-2.62-.65-1.21-.53-1.87-1.88-1.54-3.18.08-.3.18-.61.26-.9.69-2.67,2.49-5.07,2.45-7.93.17-2.72-.82-5.38-2.71-7.31-.28-.22-.62-.37-.97-.42-.52,3.32-.89,7.24-2.95,10.06-1.97,3.03-4.6,5.56-7.68,7.4-2.17,1.06-4.51,1.67-6.91,1.79-4.08.41-8.21-.2-12.01-1.77-.74-.33-1.14-.58-.74-1.38.41-.53.62-.3,1.19-.37,1.76.83,3.64,1.4,5.56,1.71,3.09.49,6.25.34,9.28-.46,1.37-.4,2.67-1.05,3.8-1.93,2.41-1.88,4.42-4.24,5.89-6.95.96-2.1,1.55-4.37,1.73-6.68.18-1.03.31-2.76,1.63-3,2.02-.37,4.07.46,5.29,2.12,2.35,3.28,2.85,7.57,1.32,11.32-.07.14-.14.28-.2.42"/></g></svg>