<?xml version="1.0" encoding="UTF-8"?><svg id="Layer_1" xmlns="http://www.w3.org/2000/svg" viewBox="0 0 199 120"><defs><style>.cls-1{fill:none;}.cls-1,.cls-2,.cls-3{stroke-width:0px;}.cls-2{fill-rule:evenodd;}.cls-2,.cls-3{fill:#98876c;}</style></defs><rect class="cls-1" x="0" y="-39.5" width="199" height="199"/><path class="cls-2" d="M25.84,80.53l.25.47c-.15.05-.25.15-.3.3-.05.15-.03.29.05.42.05.14.15.23.28.27.14.05.27.03.39-.04.64-.33-.03-1.69.93-2.19.11-.06.23-.1.36-.1.13,0,.25,0,.37.05.12.04.23.11.32.2.09.09.16.19.21.31.07.12.11.24.13.38.02.14,0,.27-.04.4-.04.13-.11.25-.2.35-.09.1-.2.18-.32.23l-.25-.47c.13-.05.22-.14.27-.27.05-.13.04-.26-.04-.38-.04-.12-.13-.2-.25-.25-.12-.04-.23-.03-.34.03-.63.33.07,1.67-.92,2.19-.26.12-.53.13-.8.03-.27-.1-.47-.28-.59-.53-.12-.26-.14-.52-.05-.79.09-.27.26-.47.52-.6h0ZM25.84,80.53"/><path class="cls-2" d="M27.18,82.86l1.23-.84c.11-.1.24-.17.38-.22.14-.04.29-.05.43-.03.15.02.28.07.41.16.12.08.22.19.3.31.09.12.16.25.19.39.03.14.04.29,0,.43-.03.15-.09.28-.18.4-.09.12-.2.22-.33.29l-.29-.43c.33-.26.38-.53.19-.81-.17-.25-.45-.3-.81-.06l-1.23.84c-.35.24-.41.52-.23.78.2.29.46.33.83.13l.29.42c-.12.1-.25.16-.39.2-.14.04-.29.04-.44.02-.15-.03-.28-.08-.4-.17-.12-.09-.22-.19-.3-.32-.09-.12-.15-.25-.18-.39-.03-.15-.03-.29,0-.44.03-.14.09-.28.19-.39.09-.12.2-.21.34-.28h0ZM27.18,82.86"/><path class="cls-2" d="M31.1,83.87l-2.76,2.33-.34-.4,2.76-2.33.34.4ZM31.1,83.87"/><path class="cls-2" d="M30.64,87.84l-.34.35-1.31-1.26,2.51-2.6,1.28,1.23-.34.35-.9-.87-.73.75.83.8-.33.34-.83-.8-.77.8.94.9ZM30.64,87.84"/><path class="cls-2" d="M34.85,87.06l-2.08,2.96-.43-.3.36-1.91c.07-.28.16-.68.22-.92h-.02c-.18.32-.47.78-.66,1.05l-.8,1.14-.42-.3,2.08-2.96.43.3-.38,1.99c-.05.26-.13.61-.19.84h.02c.17-.31.46-.78.64-1.04l.81-1.15.42.3ZM34.85,87.06"/><path class="cls-2" d="M36.68,88.55l-.67-.34-1.4,2.79-.48-.24,1.4-2.79-.67-.34.22-.44,1.82.91-.22.44ZM36.68,88.55"/><path class="cls-2" d="M37.69,88.39l-1.31,3.37-.49-.19,1.31-3.37.49.19ZM37.69,88.39"/><path class="cls-2" d="M38.77,91.75l-.92-.26-.36.66-.53-.15,1.86-3.23.54.15-.11,3.72-.52-.15.04-.75ZM38.8,91.26l.05-.99c.01-.24.05-.59.08-.78h-.01c-.08.17-.22.49-.34.7l-.48.87.71.2ZM38.8,91.26"/><path class="cls-2" d="M40.32,92.32l-.53,1.13-.3-.06.35-1.16.49.1ZM40.32,92.32"/><path class="cls-2" d="M42.1,89.49l.55.05.26,2.02c.04.33.07.68.1.97h.02c.08-.28.17-.63.26-.94l.61-1.95.54.05-1.2,3.52-.57-.05-.57-3.68ZM42.1,89.49"/><path class="cls-2" d="M45.26,89.69l-.02,3.61h-.52s.02-3.62.02-3.62h.52ZM45.26,89.69"/><path class="cls-2" d="M47.73,90.14l-.75.03.11,3.12-.53.02-.11-3.12-.75.03-.02-.49,2.04-.07.02.49ZM47.73,90.14"/><path class="cls-2" d="M49.56,92.33l-.95.12-.07.74-.54.07.46-3.7.56-.07,1.34,3.48-.54.07-.26-.7ZM49.39,91.86l-.34-.94c-.08-.23-.18-.57-.23-.75h-.01c0,.19-.01.54-.04.79l-.1.99.73-.09ZM49.39,91.86"/><path class="cls-2" d="M53.86,91.54l.14.47-1.74.53-1.06-3.45,1.7-.52.14.47-1.2.37.31,1,1.1-.34.14.46-1.1.34.32,1.06,1.25-.38ZM53.86,91.54"/><path class="cls-2" d="M55.13,88.11l-.69.31,1.3,2.83-.48.22-1.3-2.83-.68.31-.21-.45,1.85-.85.21.45ZM55.13,88.11"/><path class="cls-2" d="M56.75,87.05l.65.86.87-.65.29.38-.87.65.94,1.25-.42.31-2.17-2.89,1.36-1.02.29.39-.95.71ZM56.75,87.05"/><path class="cls-2" d="M58.03,85.33l2.48,2.63-.38.36-2.48-2.63.38-.36ZM58.03,85.33"/><path class="cls-2" d="M58.46,84.94l.58-.69c.09-.13.2-.23.33-.31.13-.08.28-.12.43-.13.15-.01.3,0,.44.06.14.05.27.14.38.25l1.04.87c.13.08.23.19.31.33.08.13.13.27.14.43.01.15,0,.3-.05.45-.05.14-.13.27-.24.38l-.58.69-2.77-2.32ZM61.43,86.24c.06-.06.1-.13.13-.21.02-.08.03-.16.02-.25-.01-.08-.04-.16-.09-.23-.05-.07-.11-.13-.18-.17l-1.02-.85c-.06-.06-.12-.11-.2-.15-.08-.03-.16-.05-.24-.05-.08,0-.16.03-.24.07-.07.04-.14.1-.19.16l-.25.29,2.01,1.68.25-.29ZM61.43,86.24"/><path class="cls-2" d="M63.62,83.11l.42.26-.96,1.55-3.07-1.9.93-1.51.42.26-.66,1.06.89.55.61-.98.41.25-.61.98.94.58.69-1.1ZM63.62,83.11"/><path class="cls-2" d="M63.43,82.4l.22-.48c.13.08.27.1.42.05.15-.05.25-.15.3-.29.08-.12.09-.25.04-.39-.05-.14-.14-.23-.28-.28-.65-.3-1.33,1.05-2.3.6-.12-.05-.22-.13-.3-.22-.09-.1-.15-.2-.19-.33-.04-.12-.05-.25-.04-.37.01-.13.05-.25.12-.36.05-.13.12-.24.22-.33.1-.1.21-.17.34-.21.13-.05.26-.06.4-.05.14.01.26.05.38.11l-.22.48c-.12-.08-.25-.09-.38-.05-.13.04-.23.13-.28.26-.07.11-.08.22-.05.34.04.12.12.21.23.26.64.3,1.28-1.08,2.3-.6.25.13.42.34.51.61.09.27.07.54-.06.79-.13.26-.33.43-.6.52-.27.09-.54.08-.79-.04h0ZM63.43,82.4"/><path class="cls-2" d="M45.14,36.63c.3.21,2.62,1.72,4.47-.08.07-.07.07-.13,0-.2-1.05-.98-2.18-1.85-3.39-2.61-.02-.01-.03-.03-.03-.05v-2.42s.02-.06.06-.06h1.87c.09,0,.14-.05.14-.14v-1.88c0-.09-.05-.14-.14-.14h-1.87s-.06-.02-.06-.06v-2.32c0-.09-.05-.14-.14-.14h-1.88c-.09,0-.14.05-.14.14v2.32s-.02.06-.06.06h-1.87c-.09,0-.14.05-.14.14v1.88c0,.09.05.14.14.14h1.87s.06.02.06.06v2.42s0,.04-.03.05c-1.21.76-2.34,1.63-3.39,2.61-.07.07-.07.13,0,.2,1.85,1.79,4.17.28,4.47.08.02-.01.04-.01.06,0h0ZM45.14,36.63"/><path class="cls-2" d="M45.13,41.88c.38.21,4.5,2.39,7.58-.13.05-.04.07-.1.04-.16-.4-.87-.87-1.71-1.39-2.51-.03-.04-.07-.06-.12-.06h-12.27s-.09.02-.12.06c-.53.8-.99,1.64-1.39,2.51-.03.06-.02.12.04.16,3.07,2.51,7.2.33,7.58.13.02,0,.04,0,.06,0h0ZM45.13,41.88"/><path class="cls-2" d="M50.89,63.77l-5.02,2.93s-.09.03-.13,0c-.04-.02-.07-.06-.07-.11v-5.46s.02-.09.07-.11l5.02-2.93s.09-.03.13,0c.04.02.07.06.07.11v5.45c0,.05-.02.09-.07.11h0ZM50.89,63.77"/><path class="cls-2" d="M39.32,63.77l5.02,2.93s.09.03.13,0c.04-.02.07-.06.07-.11v-5.46s-.02-.09-.07-.11l-5.02-2.93s-.09-.03-.13,0c-.04.02-.07.06-.07.11v5.45c0,.05.02.09.07.11h0ZM39.32,63.77"/><path class="cls-2" d="M54.85,73.3l-8.99,5.24s-.09.03-.13,0c-.04-.02-.07-.06-.07-.11v-10.42c0-.05.02-.09.07-.11l8.99-5.24s.09-.03.13,0c.04.03.07.06.07.11v10.42c0,.05-.02.09-.07.11h0ZM54.85,73.3"/><path class="cls-2" d="M35.35,73.3l8.99,5.24s.09.03.13,0c.04-.02.07-.06.07-.11v-10.42c0-.05-.02-.09-.07-.11l-8.99-5.24s-.09-.03-.13,0c-.04.03-.07.06-.07.11v10.42c0,.05.02.09.07.11h0ZM35.35,73.3"/><path class="cls-2" d="M36.59,44.61c-.06,0-.09-.03-.11-.08-.21-.68-.6-1.22-1.18-1.62l-7.02-4.86c-.28-.19-.58-.32-.9-.39-.33-.07-.66-.08-.99-.02-.33.06-.63.18-.92.36-.28.18-.52.41-.71.68l-.66.94-2.75-1.75c-.06-.04-.12-.03-.16.04l-1.1,1.74c-.04.06-.03.12.04.16l2.68,1.7-5.99,8.63c-.04.06-.03.12.03.16l6.83,4.73c.06.04.12.03.16-.03l7.5-10.79c.18-.21.4-.37.65-.5.25-.13.51-.2.78-.23.28-.03.55,0,.81.08.27.08.51.2.73.37.41.28.7.66.87,1.13.16.47.18.95.03,1.43-.03.1-.09.12-.17.07l-2.52-1.6c-.06-.04-.11-.03-.16.03l-1.18,1.69c-.04.07-.03.12.03.16l9.36,5.93s.03.04.02.06c0,.03-.03.04-.06.04h-9.75c-.08,0-.11.04-.11.11v9.05s0,.04-.03.05l-6.52,4.13s-.05.01-.07,0c-.02-.02-.03-.04-.02-.06.13-.38.21-.77.25-1.17.03-.4.01-.8-.06-1.2-.07-.4-.19-.78-.36-1.14-.17-.37-.38-.7-.64-1.01-.26-.31-.55-.58-.88-.82-.33-.24-.68-.43-1.06-.57-.38-.15-.76-.24-1.17-.29-.4-.05-.8-.04-1.2.02-.4.06-.79.16-1.16.32-.37.16-.72.36-1.04.6-.32.25-.61.53-.85.84-.25.32-.45.66-.61,1.03-.16.37-.27.75-.33,1.15-.06.4-.07.8-.03,1.2.04.4.13.79.28,1.17.14.38.33.73.56,1.06.03.04.02.07-.03.09-.35.1-.68.24-.99.42-.31.18-.6.39-.87.64-.27.25-.5.52-.7.82-.2.3-.37.62-.5.96-.13.34-.22.69-.27,1.05-.05.36-.06.72-.02,1.08.03.36.11.71.22,1.05.12.34.27.67.46.98.19.31.42.59.67.85.26.25.54.48.85.67.31.19.63.34.98.46.34.12.69.19,1.06.23.36.04.72.03,1.08-.02.36-.05.71-.13,1.05-.26.34-.13.66-.29.96-.49.3-.2.57-.44.82-.7.04-.04.07-.04.09.01.19.35.42.68.7.97.27.29.58.55.92.77.34.22.7.39,1.08.51.38.12.78.2,1.18.22.4.02.8,0,1.2-.08.39-.08.77-.21,1.13-.38.36-.18.7-.4,1-.66.31-.26.57-.56.8-.89.23-.33.41-.68.55-1.06.14-.38.23-.77.27-1.17.04-.4.03-.8-.04-1.2-.06-.4-.18-.78-.34-1.15-.16-.37-.37-.71-.62-1.02-.25-.32-.54-.59-.86-.84-.32-.24-.67-.44-1.04-.59-.37-.15-.76-.26-1.16-.31-.03,0-.04-.02-.05-.04,0-.03,0-.05.02-.06l5.23-3.31s.04-.01.06,0c.02.01.03.03.03.05v5.93c-.01.95.07,1.89.25,2.82.18.93.44,1.84.8,2.72.36.88.79,1.72,1.32,2.51.52.79,1.11,1.53,1.78,2.21.67.68,1.39,1.28,2.18,1.82.79.53,1.62.99,2.49,1.35.87.37,1.78.65,2.71.84.93.19,1.87.29,2.82.29.95,0,1.89-.08,2.83-.26.93-.18,1.84-.45,2.72-.81.88-.36,1.72-.8,2.51-1.33.79-.53,1.53-1.12,2.2-1.79.67-.67,1.27-1.4,1.81-2.19.53-.79.98-1.62,1.34-2.5.37-.88.64-1.78.83-2.71.19-.93.28-1.87.28-2.82v-6.08s.01-.04.03-.05c.02-.01.04-.01.06,0l5.23,3.31s.03.04.03.06c0,.03-.02.04-.05.04-.4.05-.79.16-1.16.31-.37.15-.72.35-1.04.59-.32.24-.61.52-.86.84-.25.31-.46.66-.62,1.02-.16.37-.28.75-.34,1.15-.06.4-.08.8-.04,1.2.04.4.13.79.27,1.17.14.38.32.73.55,1.06.23.33.5.63.8.89.31.26.64.48,1,.66.36.18.74.3,1.14.38.4.08.79.11,1.2.09.4-.02.79-.1,1.18-.22.38-.12.74-.29,1.08-.51.34-.22.65-.47.92-.77.27-.29.51-.62.7-.97.02-.05.05-.05.09-.01.25.27.52.5.82.7.3.2.62.37.96.49.34.13.69.22,1.05.26.36.05.72.05,1.08.02.36-.03.71-.11,1.06-.23.34-.12.67-.27.98-.46.31-.19.59-.42.84-.67.26-.26.48-.54.67-.85.19-.31.34-.63.46-.98.12-.34.19-.69.22-1.05.03-.36.03-.72-.02-1.08-.05-.36-.14-.71-.27-1.04-.13-.34-.29-.66-.5-.96-.2-.3-.44-.57-.7-.82-.27-.25-.56-.46-.87-.64-.31-.18-.65-.32-.99-.42-.05-.01-.06-.04-.03-.09.57-.8.86-1.69.87-2.67,0-.34-.03-.68-.1-1.02-.07-.34-.18-.66-.32-.97-.14-.31-.32-.61-.52-.88-.21-.28-.44-.52-.7-.75-.26-.22-.54-.42-.84-.58-.3-.16-.62-.29-.95-.38-.33-.09-.67-.15-1.01-.17-.34-.02-.68,0-1.02.05-.34.05-.67.15-.99.27-.32.13-.62.29-.9.48-.28.19-.54.41-.78.66-.24.25-.44.52-.62.82-.18.29-.32.6-.43.93-.11.32-.18.66-.22,1-.04.34-.03.68,0,1.02.04.34.12.67.23,1,0,.03,0,.05-.02.06-.02.02-.04.02-.07,0l-6.52-4.13s-.03-.03-.03-.05v-9.05c0-.08-.04-.11-.11-.11h-9.75s-.05-.01-.06-.04c0-.03,0-.05.02-.06l9.36-5.93c.07-.04.08-.1.03-.16l-1.18-1.69c-.04-.06-.09-.07-.16-.03l-2.52,1.6c-.09.05-.14.03-.17-.07-.14-.48-.13-.96.03-1.43.17-.47.46-.85.87-1.13.22-.17.46-.29.73-.37.27-.08.54-.1.81-.08.28.03.54.1.78.23.25.13.46.29.65.5l7.5,10.79c.04.06.1.07.16.03l6.83-4.73c.06-.04.07-.1.03-.16l-5.95-8.58s-.02-.06.02-.08l2.63-1.66c.06-.04.08-.09.04-.16l-1.1-1.74c-.04-.06-.09-.08-.16-.04l-2.71,1.72s-.06.01-.08-.02l-.62-.9c-.19-.28-.43-.5-.71-.68-.28-.18-.59-.3-.92-.36-.33-.06-.66-.05-.98.02-.33.07-.63.2-.9.39l-7.02,4.86c-.58.4-.98.94-1.19,1.62-.02.05-.05.08-.11.08h-17.02ZM62.82,46.8l1.33-.92s.04-.05.02-.08l-1.07-1.55-.13-.18c-.04-.06-.03-.12.03-.16l1.18-.82c.06-.04.12-.03.16.03l.16.24,1.04,1.49s.05.04.08.01l1.33-.92c.06-.04.12-.03.16.03l.82,1.18c.04.06.03.12-.03.16l-1.33.92s-.04.05-.02.08l1.67,2.41c.04.06.03.12-.03.16l-1.18.82c-.06.04-.12.03-.16-.03l-1.67-2.41s-.05-.04-.08-.01l-1.33.92c-.06.04-.12.03-.16-.03l-.82-1.18c-.04-.06-.03-.12.03-.16h0ZM27.42,46.96l-.82,1.18c-.04.06-.1.07-.16.03l-1.33-.92s-.06-.02-.08.01l-1.67,2.41c-.04.06-.1.07-.16.03l-1.18-.82c-.06-.04-.07-.1-.03-.16l1.67-2.41s.02-.06-.01-.08l-1.33-.92c-.06-.04-.07-.1-.03-.16l.82-1.18c.04-.06.1-.07.16-.03l1.33.92s.06.02.08-.01l1.04-1.49.16-.24c.04-.06.1-.07.16-.03l1.18.82c.06.04.07.1.03.16l-.13.18-1.07,1.55s-.02.06.01.08l1.33.92c.06.04.07.1.03.16h0ZM17.28,74.74c-.39.03-.76-.01-1.13-.14-.37-.12-.69-.31-.98-.57-.29-.26-.51-.56-.67-.91-.16-.35-.25-.72-.26-1.1-.01-.39.06-.76.2-1.12.14-.36.35-.67.62-.95.27-.27.59-.48.95-.62.36-.14.73-.21,1.12-.2.39,0,.75.1,1.11.26.35.16.65.39.91.67.26.29.45.61.57.98.12.37.17.74.14,1.13-.03.33-.11.65-.25.95-.14.3-.33.57-.56.81-.24.24-.51.42-.81.56-.3.14-.62.22-.95.25h0ZM19.82,67.42c-.39.03-.76-.02-1.13-.14-.37-.12-.69-.31-.98-.57-.29-.26-.51-.56-.68-.91-.16-.35-.25-.72-.26-1.1-.01-.39.06-.76.2-1.12.14-.36.35-.67.63-.95.27-.27.59-.48.95-.62.36-.14.73-.21,1.12-.2.39.01.75.1,1.1.26.35.16.66.39.91.67.26.29.45.61.57.98.12.37.17.74.14,1.13-.03.33-.11.65-.25.95-.14.3-.33.57-.57.81-.24.24-.51.42-.81.56-.3.14-.62.22-.95.25h0ZM27.55,72.69c.03.38-.01.76-.14,1.13-.12.37-.31.69-.57.98-.26.29-.56.51-.91.67-.35.16-.72.25-1.11.26-.39.01-.76-.06-1.12-.2-.36-.14-.67-.35-.95-.62-.27-.27-.48-.59-.62-.95-.14-.36-.21-.73-.2-1.12.01-.39.1-.75.26-1.1.16-.35.39-.65.67-.91.29-.26.62-.45.98-.57.37-.12.74-.17,1.13-.14.33.03.65.11.95.25.3.14.57.33.81.56.24.24.42.5.56.81.14.3.22.62.25.95h0ZM38.23,48.45c1.16.36,2.33.45,3.53.28,1.2-.18,2.3-.6,3.3-1.28.02-.02.04-.02.07,0,1,.68,2.1,1.1,3.3,1.28,1.2.18,2.38.08,3.53-.28.03-.01.06,0,.07.03.01.03,0,.05-.02.07l-6.76,4.28s-.1.04-.16.04-.11-.01-.16-.04l-6.76-4.28s-.04-.04-.02-.07c.01-.03.04-.04.07-.03h0ZM57.82,70.97c0,.84-.08,1.66-.25,2.48-.16.82-.41,1.62-.73,2.39-.32.77-.72,1.51-1.18,2.2-.47.69-1,1.34-1.59,1.93-.59.59-1.24,1.12-1.94,1.58-.7.46-1.43.85-2.21,1.17-.78.32-1.57.55-2.4.71-.82.16-1.65.24-2.49.23-.84,0-1.67-.09-2.49-.26-.82-.17-1.62-.41-2.39-.74-.77-.33-1.5-.72-2.2-1.19-.69-.47-1.33-1-1.92-1.6-.59-.6-1.11-1.24-1.57-1.94-.46-.7-.84-1.44-1.16-2.21-.31-.78-.55-1.57-.7-2.4-.16-.82-.23-1.65-.22-2.49v-16.12c0-.08.04-.11.11-.11h25.19c.08,0,.11.04.11.11v16.26ZM65.69,75.72c-.39.03-.76-.01-1.13-.14-.37-.12-.69-.31-.98-.57-.29-.26-.51-.56-.67-.91-.16-.35-.25-.72-.26-1.1,0-.39.06-.76.2-1.12.14-.36.35-.67.63-.95.27-.27.59-.48.95-.62.36-.14.73-.21,1.12-.2.39,0,.75.1,1.1.26.35.16.66.39.91.67.26.29.45.61.57.98.12.37.17.74.14,1.13-.03.33-.11.65-.25.95-.14.3-.33.57-.56.81-.24.24-.51.42-.81.56-.3.14-.62.22-.95.25h0ZM67.81,64.85c-.03-.38.01-.76.14-1.13.12-.37.31-.69.57-.98.26-.29.56-.51.91-.67.35-.16.72-.25,1.11-.26.39-.01.76.06,1.12.2.36.14.68.35.95.62.27.27.48.59.62.95.14.36.21.73.2,1.12-.01.39-.1.75-.26,1.1-.16.35-.39.65-.68.91-.29.26-.61.45-.98.57-.37.12-.74.17-1.13.14-.33-.03-.65-.11-.95-.25-.3-.14-.57-.33-.81-.56-.24-.24-.43-.5-.57-.81-.14-.3-.22-.62-.25-.95h0ZM73.38,74.74c-.39.03-.76-.01-1.13-.14-.37-.12-.69-.31-.98-.57-.29-.26-.51-.56-.67-.91-.16-.35-.25-.72-.26-1.1-.01-.39.06-.76.2-1.12.14-.36.35-.67.63-.95.27-.27.59-.48.95-.62.36-.14.73-.21,1.12-.2.39,0,.75.1,1.1.26.35.16.66.39.91.67.26.29.45.61.57.98.12.37.17.74.14,1.13-.03.33-.11.65-.25.95-.14.3-.33.57-.56.81-.24.24-.51.42-.81.56-.3.14-.62.22-.95.25h0ZM73.38,74.74"/><path class="cls-2" d="M91.13,60.93v-20.58h7.74c4.36,0,7.6,3.01,7.6,7.07s-3.24,6.99-7.6,6.99h-2.44v6.53h-5.3ZM96.43,49.48h2.35c.29.03.58,0,.86-.1.28-.09.53-.24.74-.44.22-.2.38-.43.5-.71.12-.27.17-.55.17-.85,0-.3-.05-.58-.16-.85-.11-.27-.28-.51-.5-.71-.22-.2-.46-.35-.74-.45-.28-.1-.57-.13-.86-.11h-2.35v4.21ZM96.43,49.48"/><path class="cls-2" d="M108.3,51.54v-11.19h5.33v11.19c-.02.3,0,.59.04.89.04.3.12.58.22.86.1.28.23.55.39.8.16.25.34.49.54.71.21.22.43.41.67.58.25.17.5.32.78.43.28.12.56.21.85.27.29.06.59.09.89.09s.59-.03.89-.09c.29-.06.58-.15.85-.27.27-.12.53-.26.78-.43.25-.17.47-.37.67-.58.2-.22.39-.45.54-.71.16-.25.28-.52.39-.8.1-.28.17-.57.22-.86.04-.3.05-.59.04-.89v-11.19h5.3v11.19c0,.63-.07,1.26-.2,1.88-.13.62-.31,1.22-.56,1.81-.25.58-.55,1.14-.9,1.66-.35.52-.76,1.01-1.21,1.46-.45.45-.94.84-1.47,1.19-.53.35-1.08.65-1.67.89-.59.24-1.19.42-1.81.55-.62.12-1.25.19-1.88.19s-1.26-.06-1.88-.19c-.62-.12-1.22-.31-1.81-.55-.59-.24-1.14-.54-1.67-.89-.53-.35-1.02-.75-1.47-1.19-.45-.45-.85-.93-1.21-1.46-.35-.53-.65-1.08-.9-1.66-.25-.58-.43-1.19-.56-1.81-.13-.62-.19-1.25-.2-1.88h0ZM108.3,51.54"/><path class="cls-2" d="M129.86,50.62c0-.71.06-1.4.19-2.09.14-.69.34-1.36.61-2.01.27-.65.61-1.27,1-1.85.4-.58.85-1.12,1.36-1.61.51-.49,1.06-.93,1.65-1.31.6-.38,1.22-.69,1.88-.95.66-.25,1.34-.44,2.03-.55.7-.11,1.4-.16,2.1-.13.6-.02,1.2,0,1.8.1.6.09,1.18.23,1.75.43.57.19,1.12.44,1.65.74.53.3,1.02.64,1.48,1.03.46.39.89.82,1.27,1.28.38.47.72.96,1.01,1.49.29.53.53,1.08.72,1.65.19.57.32,1.16.4,1.76h-5.3c-.15-.51-.38-.99-.69-1.43-.31-.44-.68-.82-1.11-1.13-.43-.32-.9-.55-1.42-.71-.51-.16-1.04-.23-1.57-.22-.36,0-.72.03-1.07.1-.35.07-.69.17-1.03.31-.33.14-.65.31-.94.51-.3.2-.57.43-.82.69-.25.26-.47.54-.66.84-.19.31-.35.63-.47.96-.13.34-.21.68-.27,1.04-.05.36-.07.71-.05,1.07-.02.36,0,.72.05,1.07.05.36.14.7.27,1.04.12.34.28.66.47.96.19.31.41.59.66.85.25.26.52.49.82.7.3.2.61.38.94.52.33.14.67.25,1.03.31.35.07.71.1,1.07.1.54.02,1.06-.05,1.57-.21.51-.16.98-.39,1.42-.71.43-.32.8-.7,1.1-1.14.3-.44.53-.92.67-1.44h5.36c-.08.6-.22,1.18-.4,1.76-.19.58-.43,1.13-.72,1.66-.29.53-.63,1.03-1.01,1.49-.39.47-.81.89-1.27,1.28-.46.39-.96.73-1.49,1.03-.53.3-1.08.54-1.65.74-.57.19-1.16.34-1.76.42-.6.09-1.2.12-1.81.09-.71.02-1.41-.02-2.1-.14-.7-.12-1.37-.3-2.04-.56-.66-.25-1.29-.57-1.88-.95-.6-.38-1.15-.82-1.65-1.31-.51-.49-.96-1.03-1.36-1.61-.4-.58-.73-1.2-1-1.85-.27-.65-.48-1.32-.61-2.02-.13-.69-.2-1.39-.19-2.1h0ZM129.86,50.62"/><path class="cls-2" d="M153.4,60.93v-20.58h7.74c4.36,0,7.6,3.01,7.6,7.07s-3.24,6.99-7.6,6.99h-2.44v6.53h-5.3ZM158.7,49.48h2.35c.29.03.58,0,.86-.1.28-.09.53-.24.74-.44.22-.2.38-.43.5-.71.12-.27.17-.55.17-.85,0-.3-.05-.58-.16-.85-.11-.27-.28-.51-.5-.71-.22-.2-.46-.35-.74-.45-.28-.1-.57-.13-.86-.11h-2.35v4.21ZM158.7,49.48"/><path class="cls-2" d="M171.12,60.93v-20.58h7.63c4.3,0,7.57,3.03,7.57,6.9,0,.6-.09,1.19-.25,1.77-.16.58-.41,1.13-.72,1.64-.32.51-.7.97-1.14,1.38-.44.41-.93.75-1.47,1.02l3.84,7.87h-5.76l-3.07-6.87h-1.35v6.87h-5.28ZM176.39,49.65h2.09c.32.03.64,0,.95-.11.31-.1.58-.26.82-.49.24-.22.43-.48.56-.78.13-.3.19-.61.19-.94,0-.33-.07-.64-.2-.93-.13-.3-.32-.55-.57-.77-.24-.22-.52-.37-.83-.48-.31-.1-.63-.13-.95-.1h-2.06v4.58ZM176.39,49.65"/><path class="cls-2" d="M98.16,76.61l.06.87c.03.27.04.45.04.54l-.16.03c-.21-.52-.53-.95-.96-1.31-.42-.31-.88-.45-1.4-.43-.54-.02-1.07.06-1.57.25-.59.27-1.05.67-1.4,1.21-.41.64-.6,1.33-.58,2.09,0,.43.06.86.21,1.27.15.38.35.73.6,1.05.26.33.57.61.91.84.25.17.53.29.83.36.27.05.53.07.8.07.26,0,.51-.04.77-.1.23-.04.44-.13.63-.26.13-.09.23-.22.29-.37.06-.26.09-.53.08-.8.04-.4,0-.78-.13-1.15-.09-.11-.37-.18-.83-.22l-.23-.02h-.15s-.05,0-.09,0l-.09-.15s.02-.05.04-.07c.43-.04.86-.06,1.3-.05.15,0,.39,0,.73,0l.59.03h.54c.1,0,.23,0,.37,0,.03,0,.04,0,.05.02,0,.01.01.03.01.05,0,.06-.01.11-.03.16-.12.03-.25.05-.38.05h-.37c-.12-.01-.22.03-.31.13-.06.14-.08.28-.06.43v.75c.02.33,0,.66-.05.98-.03.09-.07.16-.15.23-.14.1-.29.18-.46.24-.29.12-.6.21-.91.27-.48.09-.97.13-1.46.13-.64.02-1.26-.07-1.87-.29-.47-.18-.89-.45-1.25-.8-.32-.3-.57-.65-.75-1.05-.23-.5-.34-1.03-.34-1.58,0-.7.18-1.36.53-1.97.41-.7.98-1.22,1.72-1.56.72-.31,1.48-.45,2.26-.42.55-.01,1.08.04,1.61.17.35.08.68.21,1,.39h0ZM99.9,83.39c.32-.03.63-.07.94-.14.07-.04.11-.09.14-.17v-.07c0-.09.02-.44.05-1.03,0-.17,0-.34,0-.49l-.02-.69v-.77s0-1.44,0-1.44v-1.03c.03-.27,0-.54-.1-.79-.16-.14-.34-.21-.55-.21-.17-.01-.33-.04-.49-.09-.03-.02-.05-.05-.05-.09,0-.04,0-.07.02-.11.08-.05.17-.06.27-.05.02,0,.07,0,.16-.01.08,0,.16-.01.24-.02h1.99c.61-.04,1.21.02,1.8.17.34.13.61.34.81.64.15.22.25.46.29.72.04.26.02.52-.06.78-.08.25-.21.48-.39.67-.18.2-.4.34-.64.44-.1.05-.2.11-.3.18.16.34.34.67.54.99l.73,1.25c.18.31.38.59.6.87.12.12.25.22.41.29.26.1.53.18.8.22,0,.04,0,.07,0,.09,0,.03,0,.05,0,.08-.53,0-1.14,0-1.85,0-.07,0-.14,0-.21,0-.27-.52-.59-1.09-.96-1.72l-.85-1.55c-.07-.12-.17-.22-.28-.3-.1-.04-.19-.06-.3-.06h-.49s-.16,0-.16,0c0,.12-.02.37-.02.75v1.96c0,.1.01.2.04.3.04.08.09.14.16.18.21.08.43.15.65.19l.23.06s.05.1.05.15c-.07.02-.14.03-.22.03-.34,0-.59,0-.72-.01-.08,0-.13,0-.18,0h-.78s-.76,0-.76,0c-.04,0-.21,0-.52.01l-.11-.02v-.06c0-.05.02-.09.07-.12h0ZM102.03,79.64c.1,0,.18,0,.23,0,.32,0,.64-.04.95-.1.22-.03.43-.11.61-.25.18-.13.31-.3.39-.5.11-.22.16-.44.16-.68,0-.3-.09-.58-.25-.83-.16-.25-.37-.43-.64-.55-.34-.16-.71-.23-1.08-.22-.13,0-.27,0-.4.02-.02.2-.03.35-.03.45l.03,1.07v.44c0,.3,0,.67.02,1.14h0ZM110.28,76.21s.03.1.03.15c0,.03,0,.07-.02.1-.08.03-.16.04-.24.04-.04,0-.09,0-.13,0-.06,0-.11,0-.15,0-.15,0-.29.03-.42.1-.07.04-.11.1-.13.17l-.06.65.02,2.84c-.02.65.01,1.3.1,1.94.06.24.17.45.33.63.2.19.43.33.69.41.29.11.59.16.9.16.52.03,1.02-.07,1.5-.28.34-.17.59-.43.75-.78.18-.49.25-.99.23-1.51,0-.02,0-.17-.02-.46v-.16c0-.06,0-.18,0-.36,0-.18.02-.28.02-.31l-.09-1.65c0-.33-.04-.66-.1-.98-.03-.09-.08-.17-.16-.22-.27-.15-.55-.25-.85-.29-.02-.05-.03-.11-.03-.17.15-.01.3-.02.45-.02.16,0,.32,0,.48.02.25.01.39.02.41.02l.91-.02h.18v.21c-.31,0-.59.08-.85.21-.11.13-.16.28-.14.46,0,.12,0,.38.02.77l.04,1.19v.47s.01.6.01.6c.01.51,0,1.02-.06,1.54-.04.31-.13.61-.26.9-.12.23-.28.43-.49.6-.26.21-.55.35-.86.44-.34.12-.7.18-1.06.18-.4.01-.8-.02-1.19-.11-.38-.11-.73-.28-1.05-.52-.23-.17-.41-.39-.54-.64-.16-.4-.22-.81-.2-1.24v-.4l-.02-1.6.02-1.3v-.88c.01-.16-.02-.32-.09-.47-.04-.07-.1-.1-.18-.09h-.34c-.17.02-.33,0-.48-.07-.01-.03-.02-.06-.02-.09,0-.04.01-.06.04-.09.05-.03.1-.04.16-.04h.53s.91,0,.91,0l1.51-.02ZM115.51,76.25s.09-.01.14-.01c.13,0,.34,0,.64.02.16,0,.27,0,.33,0,.08,0,.26,0,.53-.02l.98-.06c.26-.03.55-.04.89-.04.5-.02.98.07,1.44.26.36.17.64.44.82.8.19.34.28.7.29,1.09,0,.6-.2,1.12-.63,1.55-.47.47-1.04.69-1.7.66-.35.01-.67-.08-.96-.29-.07-.04-.11-.09-.13-.16.01-.03.04-.04.06-.06.06,0,.11.01.16.04.16.05.33.07.5.07.31,0,.59-.07.86-.22.27-.15.48-.36.61-.63.14-.27.21-.56.21-.87,0-.31-.07-.6-.22-.87-.14-.27-.33-.5-.58-.67-.19-.12-.39-.2-.61-.24-.21-.05-.42-.08-.64-.1-.29-.03-.57,0-.84.1v.08s.01.64.01.64v.12c-.01.1-.02.26-.02.47,0,.78.01,1.27.04,1.46v.32l.07,2.62s0,.11-.02.22c0,.1-.01.19-.01.27,0,.14,0,.28.04.42.09.03.36.09.81.19.2.05.32.08.34.09.04.01.06.04.08.07,0,.04-.03.08-.06.11-.05.02-.1.03-.15.03-.04,0-.16-.01-.32-.03-.26-.03-.52-.05-.78-.05l-1.01.04-.61-.02s-.15,0-.33,0v-.15s.74-.15.74-.15c.08-.01.16-.05.22-.1.05-.1.07-.2.06-.31,0-.04,0-.11,0-.23,0-.08,0-.19,0-.33,0-.45-.02-1.41-.06-2.88-.02-.69-.02-1.39-.02-2.1v-.1c.03-.19-.01-.36-.13-.52-.33-.19-.68-.3-1.06-.31-.01-.03-.02-.07-.03-.1,0-.04.01-.08.03-.11M122.41,79.9c0-.35.04-.7.14-1.04.12-.35.28-.68.48-.99.21-.34.48-.64.8-.89.4-.28.84-.49,1.31-.63.48-.14.98-.21,1.48-.19.4,0,.79.06,1.18.16.37.1.72.25,1.05.45.37.24.68.53.95.88.21.27.38.56.49.89.15.42.22.85.22,1.29,0,.43-.04.84-.14,1.26-.11.35-.28.68-.49.98-.27.34-.58.63-.93.87-.33.24-.69.42-1.09.54-.45.14-.92.21-1.4.21-.46,0-.92-.05-1.36-.18-.35-.1-.69-.24-1-.44-.31-.21-.59-.46-.82-.76-.28-.33-.5-.69-.64-1.1-.15-.43-.22-.86-.22-1.31h0ZM126.4,83.48c.34,0,.67-.05,1-.14.34-.08.65-.23.92-.45.26-.19.47-.43.63-.71.17-.32.29-.66.36-1.02.09-.41.14-.83.14-1.25,0-.53-.08-1.04-.23-1.54-.12-.39-.31-.73-.58-1.04-.27-.31-.59-.54-.97-.7-.39-.17-.79-.26-1.21-.25-.35,0-.69.06-1.02.17-.3.1-.57.25-.82.44-.25.22-.45.47-.6.75-.19.34-.33.71-.42,1.09-.09.34-.14.69-.14,1.04,0,.36.06.72.14,1.08.08.37.21.71.39,1.04.16.29.37.55.61.78.24.23.51.4.82.52.31.12.63.19.97.18h0ZM126.4,83.48"/><path class="cls-2" d="M134.14,83.53l.02-.39c.34,0,.64-.1.92-.29.13-.22.19-.46.2-.72l.07-2.05.09-2.08c0-.13,0-.2,0-.23.03-.32,0-.63-.09-.94-.22-.15-.47-.23-.74-.24-.11-.02-.19-.04-.25-.06,0-.08-.01-.16-.01-.24v-.19c.14,0,.31-.01.5-.01l1.69.06s.09.01.16.02h.27c.07.1.14.2.2.31.14.29.33.69.56,1.23l.06.16.89,1.95s.06.11.1.2c.06.13.12.27.18.39.06.13.12.26.19.42.07.15.13.28.19.4.06-.1.11-.2.16-.3.16-.35.3-.67.45-.97.25-.52.6-1.32,1.03-2.39.07-.17.18-.43.34-.77.16-.35.24-.54.26-.55.06-.04.13-.05.21-.04.04,0,.1,0,.18,0,.2-.01.44-.03.72-.03.4,0,.72-.01.97-.04.25-.02.38-.03.41-.03.04,0,.08,0,.14,0,0,.05,0,.1,0,.13v.17s0,.09-.01.16c-.31.04-.6.12-.88.24-.16.08-.23.17-.23.29v.09l.1,1.76c.01.16.04.96.09,2.4.01.32.04.72.08,1.22,0,.06.01.11.01.14,0,.09.02.15.06.18.04.03.38.13,1.03.33,0,.07,0,.1,0,.14,0,.08,0,.16,0,.24-.1,0-.37-.01-.78-.06-.39-.04-.78-.07-1.18-.07-.56,0-1.09.02-1.62.07-.07.01-.13.01-.2.02v-.4c.22-.08.43-.13.64-.16.14,0,.25-.06.35-.16.07-.2.1-.4.08-.61,0-.13,0-.24,0-.34-.02-.4-.03-.96-.04-1.67l-.1-2.03c-.01-.29-.03-.49-.04-.59l-1.43,3.28c-.03.07-.09.19-.15.33-.09.19-.15.32-.18.39-.3.71-.5,1.25-.62,1.63-.03.09-.08.22-.14.38h-.44s-.31-.89-.31-.89c-.09-.23-.25-.58-.47-1.05-.13-.28-.23-.49-.31-.66-.03-.05-.05-.1-.07-.16l-.07-.14s0-.04-.02-.05l-.85-1.84-.52-1.13-.05,2.72-.04,1.77c-.02.23.03.43.16.62.21.17.44.28.71.32l.28.07v.42c-.24,0-.48-.02-.72-.05-.25-.02-.59-.04-1.01-.04-.09,0-.47.02-1.13.05h0ZM144.51,83.53h.1c.27,0,.54-.02.81-.06l.24-.04c.9.07,1.47.1,1.71.1,0-.04.01-.09.01-.13,0-.05,0-.15,0-.29-.24-.03-.38-.05-.41-.06-.18,0-.35-.06-.5-.15-.06-.06-.09-.13-.08-.22.02-.14.05-.28.11-.41.25-.72.43-1.17.51-1.35h2.2s.45,1.13.45,1.13l.23.57c.02.05.03.1.03.16s-.02.1-.05.13c-.11.05-.22.09-.34.12l-.64.14c-.01.13-.02.26-.02.39h.28s.98-.06.98-.06c.13-.02.35-.02.65-.02.28,0,.59.02.93.04.34.02.65.04.94.04,0-.06,0-.1,0-.12,0-.1-.01-.19-.03-.28-.16-.07-.33-.11-.5-.14-.12,0-.23-.04-.33-.11-.08-.08-.14-.17-.17-.28-.12-.24-.22-.49-.31-.74-.14-.36-.24-.63-.32-.81-.13-.3-.29-.69-.46-1.16-.19-.48-.39-.97-.61-1.47l-1-2.37-.05-.1h-.63l-1.37,3.57-1.16,3.04c-.06.13-.13.23-.23.33-.17.08-.35.13-.54.16-.19.03-.31.06-.39.08v.39ZM147.22,80.3l.83-2.22c.12.24.26.59.45,1.04.18.46.34.85.45,1.2h-.15c-.16,0-.69,0-1.58,0h0ZM152.88,83.18c0,.06-.01.12-.02.18,0,.02,0,.09.01.18h.25c.22,0,.44-.01.66-.04l.79-.05s.12,0,.22,0c.16,0,.64.04,1.47.11h.23s.07,0,.14,0c.02-.14.03-.28.02-.42-.25-.1-.51-.17-.77-.22-.15-.03-.29-.07-.42-.14l.04-1.08-.03-1.28c0-.13,0-.26.01-.39.18,0,.32-.01.39-.01.21-.02.41.02.6.12.16.19.3.4.4.64.41.81.7,1.4.87,1.78.06.14.18.35.34.64l.19.38c.06,0,.15-.02.25-.03.22-.02.36-.04.4-.04h.58c.15,0,.3.01.46.04h.24l.3.04h.12s.16,0,.16,0c0-.05,0-.1,0-.13,0-.06-.01-.12-.03-.17-.13-.08-.26-.14-.4-.19-.16-.05-.31-.13-.44-.23-.18-.21-.33-.44-.46-.69l-.92-1.49c-.1-.16-.23-.36-.39-.59-.07-.09-.13-.19-.19-.28.46-.12.85-.36,1.16-.71.25-.31.37-.66.37-1.05-.01-.57-.24-1.03-.7-1.38-.55-.44-1.18-.64-1.88-.6-.48,0-.95.02-1.42.07l-.72.03h-.3s-.17,0-.45-.02c-.27,0-.45,0-.53,0-.18,0-.35.02-.53.05l-.02.06v.34c.11.02.32.04.63.06l.34.07c.02.22.03.73.03,1.53,0,.37,0,.75-.01,1.17v.31s0,.54,0,.54l-.02.69v1.28c.01.19,0,.37,0,.55,0,.06-.02.11-.03.17-.17.06-.35.1-.53.13-.15.01-.3.05-.44.12h0ZM155.48,79.46v-.16c0-.28,0-.51.01-.68v-.63s.01-.47.01-.47v-.77s0-.11,0-.11c.15-.02.3-.03.46-.03.27,0,.54.02.81.08.21.07.4.18.56.34.12.14.2.3.25.47.07.22.1.45.1.68.02.38-.12.69-.41.94-.42.28-.88.4-1.39.35-.09,0-.22,0-.4-.01h0ZM161.1,83.54c.07,0,.24-.02.49-.04.39-.04.68-.06.89-.06h1.01c.46.06.71.08.77.09.05,0,.1.01.15.02.02,0,.09,0,.21,0,.04,0,.08,0,.12,0,0-.09,0-.16,0-.2,0-.07,0-.17-.02-.28-.2-.03-.32-.04-.35-.05-.2-.02-.41-.06-.64-.1-.02-.04-.03-.09-.03-.13v-.22s0-1.15,0-1.15l.03-.77v-1.52c0-.35,0-.85,0-1.49,0-.11-.02-.24-.02-.4,0-.15,0-.29.04-.44.16-.06.32-.1.49-.14.18-.04.35-.09.52-.15.01-.08.02-.17.02-.25,0-.05,0-.12,0-.18-.07,0-.25.01-.53.03-.5.03-.86.05-1.09.05-.05,0-.18,0-.38-.01l-1.64-.06v.5c.08.01.15.02.21.02.26,0,.52.04.77.13.02.06.03.12.04.18v.25s.04.65.04.65l-.02.32v.77s0,.41-.03,1.17v.31s0,1.32,0,1.32v.67c.02.18-.02.34-.1.5-.18.09-.36.15-.56.19-.18.04-.3.07-.38.1v.41ZM170.16,76.26c-.28-.1-.57-.18-.87-.24-.27-.05-.54-.09-.81-.1-.73-.05-1.38.16-1.94.64-.45.42-.66.94-.66,1.56,0,.33.08.65.23.95.15.32.36.58.65.78.46.28.95.51,1.47.67.46.13.9.33,1.3.6.11.08.2.18.27.3.07.12.11.25.13.38.02.14,0,.27-.03.4-.04.13-.1.25-.19.35-.16.21-.36.35-.61.43-.22.08-.45.13-.68.13-.22,0-.44-.03-.65-.1-.19-.07-.36-.16-.51-.29-.16-.14-.29-.3-.39-.48-.05-.09-.17-.35-.35-.78h-.54v.23c0,.11,0,.28.01.53.02.49.03.75.03.79v.07s.02.08.05.11c.11.07.23.12.36.14l.69.2c.32.07.64.11.96.12.34,0,.67-.03,1-.1.27-.07.52-.19.75-.34.19-.12.37-.25.54-.41.15-.15.27-.32.35-.52.13-.34.2-.7.2-1.06,0-.28-.04-.56-.13-.82-.11-.26-.27-.49-.48-.69-.22-.22-.47-.38-.76-.5-.27-.13-.56-.24-.85-.33-.51-.11-.97-.33-1.37-.65-.21-.19-.31-.43-.32-.71,0-.3.1-.54.33-.73.26-.22.56-.31.9-.3.41,0,.76.15,1.03.46.24.31.41.65.5,1.03h.07s.41.04.41.04h.06c.01-.09.02-.16.02-.24,0-.31-.03-.62-.07-.93-.02-.2-.06-.4-.11-.59h0ZM171.93,75.77c-.03.07-.07.22-.13.45-.13.51-.3,1-.49,1.49.1.09.22.17.34.22.04,0,.12-.06.21-.18.2-.3.45-.56.74-.79.24-.08.48-.12.73-.1.66,0,1.04,0,1.16.03.03,0,.06.01.08.03.02.02.04.05.04.08.03.36.04.72.03,1.08l.03,2.18c0,1-.02,1.74-.04,2.19,0,.1-.03.2-.07.29-.27.12-.55.2-.83.26-.19.03-.35.11-.48.25v.18s.01.07.02.13c.06,0,.2,0,.42-.02.56-.04.9-.06,1.01-.06.73,0,1.23,0,1.5.04.28.02.61.04,1.01.04.05,0,.12,0,.21,0,.01-.05.02-.1.02-.15,0-.03-.01-.11-.03-.25-.09-.03-.19-.06-.31-.09-.25-.06-.4-.09-.43-.09-.12-.01-.23-.04-.34-.07-.06-.19-.08-.39-.07-.6v-.75s-.01-1.82-.01-1.82v-2.46c0-.12,0-.24.02-.37.16-.02.3-.03.4-.03.41-.01.82,0,1.23.03.06.02.12.05.16.1.09.15.16.31.22.47.09.23.2.44.33.65.14-.02.28-.05.42-.1.02-.08.03-.17.02-.25v-.29s0-.51,0-.51c0-.54,0-.93,0-1.2-.07,0-.13,0-.17,0h-.25c-.03.07-.05.12-.06.15-.03.11-.08.2-.16.28l-.34.05h-3.08s-.7,0-.7,0h-.12c-.23.01-.49.01-.79.01-.47,0-.74,0-.79-.01-.09-.12-.18-.24-.25-.37-.01-.02-.03-.05-.06-.09h-.36ZM178.4,83.53h.1c.27,0,.54-.02.81-.06l.24-.04c.9.07,1.47.1,1.71.1,0-.04.01-.09.01-.13,0-.05,0-.15,0-.29-.24-.03-.38-.05-.41-.06-.18,0-.35-.06-.51-.15-.06-.06-.09-.13-.08-.22.02-.14.05-.28.11-.41.26-.72.43-1.17.51-1.35h2.2s.45,1.13.45,1.13l.23.57c.02.05.03.1.03.16,0,.05-.02.1-.06.13-.1.05-.21.09-.33.12l-.64.14c0,.12-.02.25-.02.39h.28s.98-.06.98-.06c.14-.02.36-.02.66-.02.27,0,.58.02.92.04.34.02.65.04.94.04,0-.06,0-.1,0-.12,0-.1-.01-.19-.03-.28-.16-.07-.33-.11-.51-.14-.12,0-.23-.04-.34-.11-.08-.08-.13-.17-.17-.28-.12-.24-.23-.49-.32-.74-.14-.36-.24-.63-.31-.81-.13-.3-.29-.69-.47-1.16-.18-.48-.38-.97-.61-1.47l-1-2.37-.05-.1h-.63l-1.36,3.57-1.16,3.04c-.06.13-.14.23-.24.33-.17.08-.35.13-.54.16-.19.03-.31.06-.39.08v.39ZM181.11,80.3l.83-2.22c.12.24.26.59.45,1.04.18.46.34.85.45,1.2h-.15c-.16,0-.69,0-1.59,0h0ZM181.11,80.3"/><rect class="cls-3" x="91.17" y="68.03" width="95.48" height=".55"/></svg>