<?xml version="1.0" encoding="UTF-8"?><svg id="Layer_1" xmlns="http://www.w3.org/2000/svg" viewBox="0 0 199 120"><defs><style>.cls-1{fill:none;}.cls-1,.cls-2{stroke-width:0px;}.cls-2{fill:#98876c;fill-rule:evenodd;}</style></defs><rect class="cls-1" x="0" y="-39.5" width="199" height="199"/><path class="cls-2" d="M31.11,81.62h3.09l.14-21.04s1.04-.5,1.44.33l4.33,9.59c.7,1.61,4.72,9.95,4.81,11.12h4.05l-9.48-21.74c1.66-.44,3.86-1.98,4.88-3.35,3.97-5.3,3.18-17.36-4.88-18.04-1.24-.1-6.71,0-8.37-.02v43.14ZM155.1,38.46c7.06,0,12.79,9.66,12.79,21.58s-5.73,21.58-12.79,21.58-12.79-9.66-12.79-21.58,5.73-21.58,12.79-21.58h0ZM155.1,40.62c5.03,0,9.11,8.7,9.11,19.42s-4.08,19.42-9.11,19.42-9.11-8.7-9.11-19.42,4.08-19.42,9.11-19.42h0ZM134.56,78.99c1.18-.97,1.04-2.39,1-3.75-.02-.57-.09-.55-.64-.44-1.47,3.94-8.78,6.97-13.01,1.36-5.48-7.9-4.99-18.59-2.49-27.52,2.64-8.72,9.49-10.35,15.3-3.33.14-.31.51-2.26.55-2.81.07-1.06.64-1.26-.59-1.99-27.32-15.88-26.87,56.1-.11,38.48h0ZM106.04,78.99c1.18-.97,1.04-2.39,1-3.75-.02-.57-.08-.55-.64-.44-1.47,3.94-8.78,6.97-13.01,1.36-5.48-7.9-4.99-18.59-2.49-27.52,2.64-8.72,9.49-10.35,15.3-3.33.14-.31.51-2.26.55-2.81.07-1.06.64-1.26-.59-1.99-27.32-15.88-26.87,56.1-.11,38.48h0ZM62.86,65.06l8.13.04,3.64,16.52h4.15l-10.66-43.05c-1.19-.04-.89.49-1.22,1.4l-10.68,41.65h2.65l4-16.56ZM66.88,47.44l3.55,14.84-7.15.04,3.28-14.54c.24-.35-.06-.04.32-.34h0ZM39.65,57.59c-1.04.54-4.55,1.09-5.48.42l-.09-15.09c0-2.39-.19-2.33,1.4-2.32,1.1,0,2.76-.11,3.79.03,5.72.74,5.33,14.38.39,16.97h0ZM39.65,57.59"/></svg>