<?xml version="1.0" encoding="UTF-8"?><svg id="Layer_1" xmlns="http://www.w3.org/2000/svg" xmlns:xlink="http://www.w3.org/1999/xlink" viewBox="0 0 199 120"><defs><style>.cls-1{clip-path:url(#clippath);}.cls-2{fill:none;}.cls-2,.cls-3{stroke-width:0px;}.cls-3{fill:#98876c;}</style><clipPath id="clippath"><rect class="cls-2" x="30.43" y="16.6" width="138.14" height="86.8"/></clipPath></defs><rect class="cls-2" y="-39.5" width="199" height="199"/><g class="cls-1"><path class="cls-3" d="M69.66,99.98c-1.32,0-1.5-.64-1.5-1.86v-7.07h2.89v-3.38h-2.89v-4.51l-4.54,1.47v3.05h-2.33v3.38h2.21v7.74c0,2.95,1.41,4.6,4.45,4.6,1.01,0,2.36-.18,3.31-.58l-.18-3.14c-.49.21-.89.31-1.41.31h0ZM79.46,87.36c-4.51,0-7.21,3.63-7.21,7.93,0,4.57,2.36,8.1,7.21,8.1s7.18-3.75,7.18-8.1-2.36-7.93-7.18-7.93ZM79.46,100.11c-2.06,0-2.33-3.2-2.33-4.81,0-1.5.28-4.66,2.33-4.66s2.3,3.11,2.3,4.66-.24,4.81-2.3,4.81ZM42.37,82.73l-3.25,14.93-3.38-14.93h-5.31l5.8,20.33h5.49l5.76-20.33h-5.12,0ZM53.64,87.36c-4.51,0-7.21,3.63-7.21,7.93,0,4.57,2.36,8.1,7.21,8.1s7.18-3.75,7.18-8.1-2.36-7.93-7.18-7.93ZM53.64,100.11c-2.06,0-2.33-3.2-2.33-4.81,0-1.5.28-4.66,2.33-4.66s2.3,3.11,2.3,4.66-.24,4.81-2.3,4.81ZM136.78,99.98c-1.32,0-1.5-.64-1.5-1.86v-7.07h2.88v-3.38h-2.88v-4.51l-4.54,1.47v3.05h-2.33v3.38h2.21v7.74c0,2.95,1.41,4.6,4.45,4.6,1.01,0,2.36-.18,3.31-.58l-.18-3.14c-.49.21-.89.31-1.41.31h0ZM140.42,85.75h4.66v-3.9h-4.66v3.9ZM164.14,87.36c-1.84,0-3.19.91-4.11,2.63-.58-1.61-1.96-2.63-3.93-2.63s-3.34.95-4.2,2.63l-.15-2.32h-4.24c.06,1.07.09,2.16.09,3.23v12.16h4.63v-9.6c0-1.16.52-2.68,1.87-2.68,1.44,0,1.69,1.28,1.69,2.44v9.85h4.57v-9.6c0-1.16.58-2.68,1.9-2.68,1.44,0,1.69,1.28,1.69,2.44v9.85h4.6v-10.24c0-3.02-1.23-5.46-4.42-5.46h0ZM140.42,103.06h4.66v-15.39h-4.66v15.39ZM122.49,87.36c-2,0-3.44.95-4.27,2.63l-.13-2.32h-4.24c.06,1.09.1,2.13.1,3.23v12.16h4.66v-9.6c0-1.22.52-2.68,1.99-2.68,1.38,0,1.78,1.22,1.78,2.44v9.85h4.66v-10.18c0-3.08-1.23-5.52-4.57-5.52ZM111.17,92.94c0-3.41-1.47-5.58-6.17-5.58-1.93,0-3.7.41-5.15.91v3.43c1.42-.85,3.03-1.32,4.29-1.32,1.93,0,2.61,1.12,2.61,2.56v.55h-1.07c-3.47,0-7.64,1.34-7.64,5.3,0,2.74,1.81,4.6,4.63,4.6,1.93,0,3.13-.73,4.11-2.41l.09,2.07h4.42c-.03-.91-.12-1.86-.12-3.38v-6.73ZM106.75,96.75c0,1.62-.49,3.63-2.42,3.63-1.2,0-1.9-.76-1.9-1.98,0-2.01,1.93-2.56,3.8-2.56h.52v.91ZM92.74,90.35l-.09-2.68h-4.23c.06,1.09.09,2.13.09,3.23v12.16h4.66v-6.83c0-2.01.43-4.79,3.03-4.79.46,0,.89.09,1.32.18v-4.22c-.18-.02-.37-.05-.55-.05-2.09,0-3.38,1.16-4.23,2.99h0Z"/><path class="cls-3" d="M112.76,20.13c1.01-2.1,3.18-3.53,5.67-3.53h14.89l-29.19,58c-.89,1.76-2.65,3.04-4.78,3.04s-3.93-1.39-4.85-3.22l-7.93-15.78c.46.09.93.13,1.4.13,1.24,0,2.42-.29,3.45-.82.02-.01.05-.02.08-.03,1.98-1.02,3.58-2.65,4.57-4.64l16.68-33.13h0Z"/><path class="cls-3" d="M88.23,20.05c1-2,3.06-3.38,5.44-3.44h14.31l-17,33.77c-.82,1.63-2.34,2.88-4.28,2.88s-3.45-1.24-4.27-2.85l-7.85-15.57c.43.09.88.14,1.34.14,1,0,1.94-.21,2.79-.59l.08-.04c.09-.05.19-.09.28-.14,1.79-.92,3.23-2.39,4.13-4.19l.02-.03v-.03s5-9.91,5-9.91h0Z"/><path class="cls-3" d="M84.16,16.6l-5.62,11.15c-.69,1.38-2.11,2.34-3.77,2.34s-3.08-.96-3.77-2.34l-5.61-11.15h18.77,0Z"/></g></svg>